<svg version="1.1" id="Layer_1" xmlns="http://www.w3.org/2000/svg" xmlns:xlink="http://www.w3.org/1999/xlink" x="0px" y="0px"
	 width="100%" viewBox="0 0 500 500" enable-background="new 0 0 500 500" xml:space="preserve">
<path fill="#FFFFFF" opacity="1.000000" stroke="none" 
	d="
M332.000000,501.000000 
	C221.333359,501.000000 111.166718,501.000000 1.000059,501.000000 
	C1.000039,334.333405 1.000039,167.666794 1.000020,1.000149 
	C167.666565,1.000099 334.333130,1.000099 500.999756,1.000050 
	C500.999847,167.666519 500.999847,334.333038 500.999939,500.999786 
	C444.833344,501.000000 388.666656,501.000000 332.000000,501.000000 
M340.469818,233.986069 
	C340.469818,233.986069 340.925934,233.881683 341.616852,233.957428 
	C344.407043,231.447495 347.197205,228.937576 350.125275,226.303589 
	C342.678711,229.207870 335.791748,231.893890 328.006348,234.673431 
	C324.000824,234.867935 319.995270,235.062424 315.657257,235.273071 
	C315.598389,235.949524 315.505737,237.013794 315.329773,239.035385 
	C316.584747,237.563110 317.218353,236.819748 317.851776,236.076630 
	C323.221924,240.390472 330.542664,239.959595 338.049347,235.002563 
	C338.049347,235.002563 337.998993,235.084763 338.630463,234.994690 
	C339.118927,234.678436 339.607391,234.362183 340.024200,234.021988 
	C340.024200,234.021988 340.015198,234.097031 340.469818,233.986069 
M220.673889,145.226990 
	C216.121094,144.880920 211.568298,144.534866 206.161942,144.052948 
	C201.947037,144.754089 197.732147,145.455231 192.592957,146.112244 
	C179.454330,149.679092 168.365356,156.498642 159.077545,167.112015 
	C158.701645,167.651993 158.325745,168.191956 157.502014,169.045547 
	C157.324692,169.353973 157.147354,169.662415 156.384735,170.304916 
	C149.165924,179.794846 144.235764,190.222733 142.399826,202.145477 
	C139.150803,223.245193 142.998138,242.406647 157.189972,259.665802 
	C163.787689,265.097473 170.385391,270.529144 177.391541,276.504242 
	C179.265991,277.314972 181.140442,278.125671 183.494507,279.409698 
	C185.006927,279.842560 186.519348,280.275452 188.771408,280.987183 
	C203.411102,285.237762 217.821793,284.599854 232.743713,278.960632 
	C238.845947,275.375702 244.948196,271.790802 251.670059,267.915558 
	C256.715332,260.940643 261.760620,253.965744 267.141510,246.360260 
	C270.090912,240.624847 273.040314,234.889420 276.563843,228.730301 
	C278.424805,224.494263 280.285767,220.258224 282.836334,216.070709 
	C288.839417,219.392075 294.842468,222.713425 301.307922,226.594086 
	C309.227264,229.808319 317.375244,231.655914 326.788452,230.825821 
	C341.118195,228.852615 351.426819,221.787994 356.599487,207.286041 
	C356.727020,206.519470 356.854584,205.752884 357.539215,204.505585 
	C361.980347,188.546875 358.381927,174.512207 347.294312,162.357651 
	C346.157928,161.111908 344.401855,160.431458 342.495514,158.937988 
	C340.715424,157.921555 338.935333,156.905136 336.974854,155.195084 
	C329.461426,150.141602 321.049988,149.891083 312.745514,151.713867 
	C297.847778,154.983810 285.834473,163.134277 275.740509,175.009552 
	C274.742249,173.352402 273.743988,171.695251 273.412231,170.198730 
	C278.619659,166.370697 283.827118,162.542679 289.034576,158.714661 
	C281.934631,159.825790 276.645599,163.669342 272.250824,168.863312 
	C272.124420,169.012726 272.648407,169.712433 272.158356,170.716202 
	C270.450806,169.793671 268.743225,168.871140 266.722717,167.364761 
	C264.568848,165.852325 262.414978,164.339905 259.886902,162.254257 
	C253.971436,158.829529 248.055984,155.404800 241.638916,151.472961 
	C235.775070,149.649017 229.911209,147.825058 223.322800,145.909042 
	C222.594193,145.891403 221.865570,145.873764 220.673889,145.226990 
z"/>
<path fill="#EF03DD" opacity="1.000000" stroke="none" 
	d="
M356.142883,207.642212 
	C351.426819,221.787994 341.118195,228.852615 326.444275,230.439423 
	C327.072296,228.839447 328.044495,227.625885 328.512817,227.041290 
	C326.586823,224.343643 325.097900,222.014038 323.338593,219.910553 
	C322.603668,219.031815 321.357483,218.462051 320.234528,218.048157 
	C316.438141,216.648819 312.592773,215.382217 309.205383,214.038345 
	C324.991364,215.884918 334.341278,211.334702 339.925507,199.275360 
	C342.106567,194.565277 341.559265,189.920578 338.554688,187.641769 
	C340.939148,200.917862 332.490814,209.351639 317.008545,206.619110 
	C318.121399,206.101135 319.074249,205.657623 320.425629,205.145691 
	C326.615845,205.092209 330.379578,202.050354 332.642822,196.994583 
	C334.877686,192.002121 334.071014,187.061035 332.313049,182.199036 
	C333.901276,182.604797 335.128204,183.339111 336.393158,183.411865 
	C345.810669,183.953430 351.296844,189.501587 354.921021,197.584610 
	C355.355682,198.554031 356.166168,199.354935 356.778687,200.493835 
	C356.768829,201.101151 356.782715,201.448563 356.589783,202.072968 
	C356.393188,203.249359 356.403473,204.148788 356.339233,205.369003 
	C356.224091,206.340607 356.183502,206.991409 356.142883,207.642212 
z"/>
<path fill="#4D3EEE" opacity="1.000000" stroke="none" 
	d="
M157.949829,168.731918 
	C158.325745,168.191956 158.701645,167.651993 159.703598,167.055908 
	C164.457260,164.946152 168.584854,162.892487 172.643707,161.161285 
	C170.059006,164.337830 167.543076,167.191940 165.014130,170.022659 
	C165.001083,169.999268 165.047455,170.026138 164.696777,169.985565 
	C163.906357,170.646057 163.466614,171.347153 163.016251,172.022247 
	C163.005630,171.996262 163.053207,172.026169 162.705963,172.008514 
	C160.927902,174.375061 159.497055,176.759262 157.908188,179.454468 
	C153.159210,188.393814 149.982666,197.447128 150.995972,207.360214 
	C151.596863,213.238678 152.998856,219.035263 154.024048,225.263672 
	C156.336594,231.054779 158.665710,236.450912 160.989166,242.275345 
	C160.652802,245.449280 160.578018,248.258011 159.920883,250.923141 
	C159.237137,253.696289 157.991013,256.330750 156.990814,259.025879 
	C142.998138,242.406647 139.150803,223.245193 142.399826,202.145477 
	C144.235764,190.222733 149.165924,179.794846 156.859222,170.296677 
	C157.539093,169.769592 157.744461,169.250748 157.949829,168.731918 
z"/>
<path fill="#7709B9" opacity="1.000000" stroke="none" 
	d="
M300.845551,226.034790 
	C294.842468,222.713425 288.839417,219.392075 282.317993,215.752289 
	C276.981506,211.585632 272.163391,207.737411 267.158936,203.632843 
	C266.294556,202.602798 265.616516,201.829071 264.958527,200.641556 
	C264.059540,196.568329 263.316589,192.851837 262.156036,189.270691 
	C261.448181,187.086502 260.605469,184.452255 258.938904,183.166367 
	C254.197266,179.507736 250.753708,175.545059 252.277008,169.053528 
	C254.405731,170.015442 256.188477,171.012817 258.150818,172.287933 
	C260.571899,174.320938 262.813324,176.076233 265.308228,178.052856 
	C272.346893,184.563644 279.132141,190.853073 285.935364,197.548279 
	C286.836151,204.342056 287.681885,210.696182 294.475159,214.014862 
	C297.143127,215.318237 299.883331,216.724014 302.066132,218.671127 
	C303.264587,219.740189 303.734711,222.020264 303.794739,223.779510 
	C303.819214,224.496887 301.887360,225.281021 300.845551,226.034790 
z"/>
<path fill="#FC35E8" opacity="1.000000" stroke="none" 
	d="
M285.917358,197.142517 
	C279.132141,190.853073 272.346893,184.563644 265.352905,177.676819 
	C265.774658,174.035843 266.405151,170.992218 267.035675,167.948608 
	C268.743225,168.871140 270.450806,169.793671 272.483093,170.429260 
	C272.807831,170.142319 272.745728,170.038116 272.745728,170.038116 
	C273.743988,171.695251 274.742249,173.352402 276.187988,175.430237 
	C278.050232,177.200180 279.465057,178.549423 281.024597,180.190704 
	C282.646210,182.009094 284.123077,183.535461 285.705017,185.398895 
	C288.486328,188.499435 291.162567,191.262894 293.992920,194.332520 
	C301.239960,201.917267 309.697327,205.856812 320.027130,205.214111 
	C319.074249,205.657623 318.121399,206.101135 317.008545,206.619110 
	C332.490814,209.351639 340.939148,200.917862 338.554688,187.641769 
	C341.559265,189.920578 342.106567,194.565277 339.925507,199.275360 
	C334.341278,211.334702 324.991364,215.884918 308.875641,213.980118 
	C306.952942,213.333725 305.677338,212.874161 304.665466,212.078995 
	C298.383179,207.142044 292.160095,202.129776 285.917358,197.142517 
z"/>
<path fill="#FC35E8" opacity="1.000000" stroke="none" 
	d="
M231.998306,278.962341 
	C217.821793,284.599854 203.411102,285.237762 188.462402,280.463074 
	C188.778397,274.875702 189.403366,269.812439 190.415344,264.817627 
	C195.193314,265.989929 199.584290,267.093719 204.298828,268.453827 
	C210.488205,268.553436 216.354050,268.396759 222.601898,268.225769 
	C225.944565,267.430359 228.905228,266.649261 232.167755,266.132019 
	C232.312500,270.584656 232.155411,274.773499 231.998306,278.962341 
z"/>
<path fill="#A00AE6" opacity="1.000000" stroke="none" 
	d="
M285.935364,197.548279 
	C292.160095,202.129776 298.383179,207.142044 304.665466,212.078995 
	C305.677338,212.874161 306.952942,213.333725 308.436401,214.006653 
	C312.592773,215.382217 316.438141,216.648819 320.234528,218.048157 
	C321.357483,218.462051 322.603668,219.031815 323.338593,219.910553 
	C325.097900,222.014038 326.586823,224.343643 328.512817,227.041290 
	C328.044495,227.625885 327.072296,228.839447 326.044250,230.387863 
	C317.375244,231.655914 309.227264,229.808319 301.076721,226.314438 
	C301.887360,225.281021 303.819214,224.496887 303.794739,223.779510 
	C303.734711,222.020264 303.264587,219.740189 302.066132,218.671127 
	C299.883331,216.724014 297.143127,215.318237 294.475159,214.014862 
	C287.681885,210.696182 286.836151,204.342056 285.935364,197.548279 
z"/>
<path fill="#C536EA" opacity="1.000000" stroke="none" 
	d="
M266.805908,246.990829 
	C261.760620,253.965744 256.715332,260.940643 251.311310,267.666351 
	C250.900345,265.981171 250.881119,264.543060 250.789627,263.109589 
	C250.531570,259.066254 250.243835,255.024796 249.978928,250.729279 
	C249.996201,250.306961 250.002335,250.137924 250.008072,249.987305 
	C250.007690,250.005737 249.973816,250.020248 250.226440,249.851929 
	C250.655945,249.116150 250.832825,248.548706 251.007172,247.992859 
	C251.004639,248.004440 250.982895,248.013901 251.201950,247.903625 
	C251.687790,247.588593 251.879852,247.328629 252.152634,246.639343 
	C252.531693,243.482147 252.755295,240.699097 253.018158,237.572418 
	C257.708069,230.125809 262.358734,223.022797 267.159393,216.299194 
	C267.536957,218.130249 268.091309,219.617645 267.937042,221.027542 
	C267.151398,228.208099 266.072723,235.357895 265.371124,242.545258 
	C265.232330,243.966888 266.296478,245.505936 266.805908,246.990829 
z"/>
<path fill="#9F39EB" opacity="1.000000" stroke="none" 
	d="
M157.090393,259.345825 
	C157.991013,256.330750 159.237137,253.696289 159.920883,250.923141 
	C160.578018,248.258011 160.652802,245.449280 161.271713,242.479919 
	C167.770538,248.108185 173.981155,253.960205 179.879349,260.081482 
	C178.705643,265.554108 177.844376,270.757446 176.983093,275.960815 
	C170.385391,270.529144 163.787689,265.097473 157.090393,259.345825 
z"/>
<path fill="#DE33E8" opacity="1.000000" stroke="none" 
	d="
M249.967773,250.982590 
	C250.243835,255.024796 250.531570,259.066254 250.789627,263.109589 
	C250.881119,264.543060 250.900345,265.981171 251.001495,267.811523 
	C244.948196,271.790802 238.845947,275.375702 232.371002,278.961487 
	C232.155411,274.773499 232.312500,270.584656 232.362305,265.856750 
	C233.348801,264.625092 234.586151,264.084839 235.510956,263.213013 
	C239.064499,259.863098 242.517868,256.406921 246.003510,252.995636 
	C245.998413,253.000885 245.986496,253.008072 246.297806,253.029633 
	C247.077820,252.697708 247.546524,252.344223 248.007675,251.995636 
	C248.000122,252.000565 247.987473,252.013351 248.223846,251.915375 
	C248.646881,251.538574 248.833572,251.259735 249.010498,250.989838 
	C249.000732,250.998779 248.980057,251.015305 249.227112,251.011230 
	C249.474182,251.007172 249.967773,250.982590 249.967773,250.982590 
z"/>
<path fill="#0E12EB" opacity="1.000000" stroke="none" 
	d="
M280.879852,179.898666 
	C279.465057,178.549423 278.050232,177.200180 276.559692,175.519592 
	C285.834473,163.134277 297.847778,154.983810 312.745514,151.713867 
	C321.049988,149.891083 329.461426,150.141602 336.861816,155.825287 
	C334.457062,156.060120 332.165344,155.664734 329.477478,155.200592 
	C328.009247,155.057007 326.937073,154.982208 325.576111,154.632507 
	C320.175049,154.579147 314.876190,154.029266 309.996033,155.210037 
	C303.321350,156.824951 296.828186,159.543732 292.985168,165.995972 
	C293.000854,166.002853 292.991272,165.969971 292.691223,165.967194 
	C292.249359,166.305649 292.107513,166.646866 291.984222,166.994995 
	C292.002777,167.001892 291.990356,166.964340 291.647217,166.921875 
	C290.852234,167.583664 290.400360,168.287903 289.974792,168.998108 
	C290.001068,169.004074 289.990112,168.951279 289.709198,168.987457 
	C289.268982,169.347855 289.109680,169.672073 288.977356,170.001236 
	C289.004395,170.006180 289.000610,169.951370 288.697510,170.034241 
	C288.208221,170.486496 288.022034,170.855881 287.612122,171.445099 
	C285.218872,174.409500 283.049347,177.154083 280.879852,179.898666 
z"/>
<path fill="#4111EA" opacity="1.000000" stroke="none" 
	d="
M356.796631,201.795975 
	C356.782715,201.448563 356.768829,201.101151 356.746338,200.104126 
	C354.848633,194.649704 352.959473,189.844910 351.317169,184.830872 
	C349.993896,181.490738 348.423798,178.359833 346.884460,174.825409 
	C345.587921,169.444153 344.260620,164.466415 342.933319,159.488693 
	C344.401855,160.431458 346.157928,161.111908 347.294312,162.357651 
	C358.381927,174.512207 361.980347,188.546875 357.252716,204.738647 
	C356.966217,204.971725 356.949585,204.957748 356.985168,204.562729 
	C356.946045,203.377136 356.871338,202.586548 356.796631,201.795975 
z"/>
<path fill="#9F39EB" opacity="1.000000" stroke="none" 
	d="
M266.973694,246.675537 
	C266.296478,245.505936 265.232330,243.966888 265.371124,242.545258 
	C266.072723,235.357895 267.151398,228.208099 267.937042,221.027542 
	C268.091309,219.617645 267.536957,218.130249 267.192627,215.962799 
	C267.764679,213.799545 268.453552,212.352112 269.441925,211.071564 
	C274.924591,216.128983 274.669830,222.916077 275.989716,229.154007 
	C273.040314,234.889420 270.090912,240.624847 266.973694,246.675537 
z"/>
<path fill="#C536EA" opacity="1.000000" stroke="none" 
	d="
M257.971222,172.010193 
	C256.188477,171.012817 254.405731,170.015442 251.980820,168.891434 
	C247.456802,166.234985 243.574966,163.705170 239.610718,160.895874 
	C238.979950,160.488998 238.431610,160.361603 237.830627,160.260223 
	C237.777985,160.286255 237.662704,160.308563 237.710175,160.020676 
	C237.768356,159.538544 237.779068,159.344315 238.062469,159.031494 
	C238.568359,158.602036 238.801559,158.291199 239.179596,157.632126 
	C239.561752,155.548706 239.799088,153.813522 240.386841,152.055511 
	C241.205032,152.015167 241.672775,151.997620 242.140533,151.980072 
	C248.055984,155.404800 253.971436,158.829529 259.753571,162.791504 
	C259.070557,166.222549 258.520905,169.116379 257.971222,172.010193 
z"/>
<path fill="#0E12EB" opacity="1.000000" stroke="none" 
	d="
M172.712463,160.838837 
	C168.584854,162.892487 164.457260,164.946152 159.941544,166.965775 
	C168.365356,156.498642 179.454330,149.679092 192.916534,146.513123 
	C193.149017,148.918427 193.057938,150.922867 192.622101,153.079681 
	C186.185654,155.492615 180.093964,157.753159 173.784821,160.049530 
	C173.266205,160.184235 173.067001,160.384491 172.898193,160.712097 
	C172.826630,160.738052 172.712463,160.838837 172.712463,160.838837 
z"/>
<path fill="#6609E7" opacity="1.000000" stroke="none" 
	d="
M342.714417,159.213348 
	C344.260620,164.466415 345.587921,169.444153 346.559052,174.746964 
	C344.471985,173.710083 342.741089,172.348129 340.812714,170.728607 
	C339.067352,169.684845 337.519440,168.898636 335.659912,168.052582 
	C334.507141,167.402115 333.666046,166.811462 332.868530,165.814301 
	C331.899292,162.028320 330.886444,158.648834 329.873596,155.269363 
	C332.165344,155.664734 334.457062,156.060120 336.952026,156.172104 
	C338.935333,156.905136 340.715424,157.921555 342.714417,159.213348 
z"/>
<path fill="#470CA7" opacity="1.000000" stroke="none" 
	d="
M276.276794,228.942154 
	C274.669830,222.916077 274.924591,216.128983 269.296173,210.809189 
	C267.935577,209.669693 267.020233,208.959473 266.032928,208.026367 
	C265.960999,207.803482 265.832306,207.353119 266.127991,207.100571 
	C266.730835,205.861740 267.038055,204.875473 267.345276,203.889191 
	C272.163391,207.737411 276.981506,211.585632 281.973145,215.728027 
	C280.285767,220.258224 278.424805,224.494263 276.276794,228.942154 
z"/>
<path fill="#4111EA" opacity="1.000000" stroke="none" 
	d="
M192.966858,152.927292 
	C193.057938,150.922867 193.149017,148.918427 193.378662,146.535187 
	C197.732147,145.455231 201.947037,144.754089 206.586975,144.463562 
	C206.988510,145.558899 206.964981,146.243637 206.518524,146.955444 
	C204.096207,146.982544 202.096863,146.982544 200.097504,146.982544 
	C200.107056,147.220566 200.116592,147.458588 200.126144,147.696625 
	C204.378204,148.144547 208.630249,148.592468 212.921417,149.396973 
	C212.948395,150.469666 212.936249,151.185760 212.462311,151.925125 
	C205.655960,152.274689 199.311417,152.600998 192.966858,152.927292 
z"/>
<path fill="#C536EA" opacity="1.000000" stroke="none" 
	d="
M177.187317,276.232544 
	C177.844376,270.757446 178.705643,265.554108 180.201660,260.174133 
	C182.559189,260.977783 184.281982,261.958069 185.849579,263.313416 
	C184.801224,268.771149 183.908051,273.853760 183.014893,278.936401 
	C181.140442,278.125671 179.265991,277.314972 177.187317,276.232544 
z"/>
<path fill="#DE33E8" opacity="1.000000" stroke="none" 
	d="
M258.150818,172.287933 
	C258.520905,169.116379 259.070557,166.222549 259.940674,163.078110 
	C262.414978,164.339905 264.568848,165.852325 266.879211,167.656677 
	C266.405151,170.992218 265.774658,174.035843 265.099487,177.455475 
	C262.813324,176.076233 260.571899,174.320938 258.150818,172.287933 
z"/>
<path fill="#A00AE6" opacity="1.000000" stroke="none" 
	d="
M241.889725,151.726517 
	C241.672775,151.997620 241.205032,152.015167 240.015442,151.989227 
	C238.197784,151.587448 237.109070,150.970047 236.004211,150.939636 
	C234.758987,150.905350 233.499222,151.399628 232.245789,151.664001 
	C232.878098,152.970795 233.209152,154.625580 234.217239,155.498291 
	C235.544571,156.647339 237.404068,157.181702 239.034760,157.980347 
	C238.801559,158.291199 238.568359,158.602036 237.720032,158.958771 
	C232.374741,157.172379 227.644577,155.340088 222.972992,153.115906 
	C223.087723,152.467575 223.143890,152.211105 223.608673,151.966019 
	C225.655365,151.817856 227.293427,151.658325 230.105209,151.384491 
	C227.393326,148.974548 225.720352,147.487823 224.047363,146.001114 
	C229.911209,147.825058 235.775070,149.649017 241.889725,151.726517 
z"/>
<path fill="#DE33E8" opacity="1.000000" stroke="none" 
	d="
M183.254700,279.173035 
	C183.908051,273.853760 184.801224,268.771149 186.154541,263.436279 
	C187.752594,263.705750 188.890472,264.227448 190.028351,264.749146 
	C189.403366,269.812439 188.778397,274.875702 188.092590,280.323669 
	C186.519348,280.275452 185.006927,279.842560 183.254700,279.173035 
z"/>
<path fill="#7709B9" opacity="1.000000" stroke="none" 
	d="
M338.135437,235.046021 
	C330.542664,239.959595 323.221924,240.390472 317.851776,236.076630 
	C317.218353,236.819748 316.584747,237.563110 315.329773,239.035385 
	C315.505737,237.013794 315.598389,235.949524 315.657257,235.273071 
	C319.995270,235.062424 324.000824,234.867935 328.666199,234.956268 
	C332.262512,235.174759 335.198975,235.110397 338.135437,235.046021 
z"/>
<path fill="#470CA7" opacity="1.000000" stroke="none" 
	d="
M273.078979,170.118423 
	C272.745728,170.038116 272.807831,170.142319 272.838501,170.148926 
	C272.648407,169.712433 272.124420,169.012726 272.250824,168.863312 
	C276.645599,163.669342 281.934631,159.825790 289.034576,158.714661 
	C283.827118,162.542679 278.619659,166.370697 273.078979,170.118423 
z"/>
<path fill="#C536EA" opacity="1.000000" stroke="none" 
	d="
M338.092407,235.024292 
	C335.198975,235.110397 332.262512,235.174759 329.115417,234.909515 
	C335.791748,231.893890 342.678711,229.207870 350.125275,226.303589 
	C347.197205,228.937576 344.407043,231.447495 341.181732,233.748138 
	C340.502808,233.724899 340.259003,233.910965 340.015198,234.097031 
	C340.015198,234.097031 340.024200,234.021988 339.731812,234.006134 
	C338.959290,234.355103 338.479126,234.719940 337.998993,235.084763 
	C337.998993,235.084763 338.049347,235.002563 338.092407,235.024292 
z"/>
<path fill="#9F39EB" opacity="1.000000" stroke="none" 
	d="
M223.685089,145.955078 
	C225.720352,147.487823 227.393326,148.974548 230.105209,151.384491 
	C227.293427,151.658325 225.655365,151.817856 223.274261,151.833878 
	C221.006149,151.109695 219.481079,150.529037 217.949707,149.582001 
	C217.936401,148.483505 217.929413,147.751343 218.291977,147.020462 
	C219.486664,146.633194 220.311813,146.244659 221.136963,145.856110 
	C221.865570,145.873764 222.594193,145.891403 223.685089,145.955078 
z"/>
<path fill="#6609E7" opacity="1.000000" stroke="none" 
	d="
M220.905426,145.541550 
	C220.311813,146.244659 219.486664,146.633194 217.842346,147.019745 
	C213.662613,146.987961 210.302032,146.958160 206.941467,146.928360 
	C206.964981,146.243637 206.988510,145.558899 207.013763,144.531494 
	C211.568298,144.534866 216.121094,144.880920 220.905426,145.541550 
z"/>
<path fill="#4111EA" opacity="1.000000" stroke="none" 
	d="
M356.371185,207.464127 
	C356.183502,206.991409 356.224091,206.340607 356.475098,205.361603 
	C356.685455,205.033386 356.949585,204.957748 356.949585,204.957748 
	C356.949585,204.957748 356.966217,204.971725 356.974182,204.979019 
	C356.854584,205.752884 356.727020,206.519470 356.371185,207.464127 
z"/>
<path fill="#0E12EB" opacity="1.000000" stroke="none" 
	d="
M157.725922,168.888733 
	C157.744461,169.250748 157.539093,169.769592 157.151886,170.129639 
	C157.147354,169.662415 157.324692,169.353973 157.725922,168.888733 
z"/>
<path fill="#7709B9" opacity="1.000000" stroke="none" 
	d="
M338.314728,235.039734 
	C338.479126,234.719940 338.959290,234.355103 339.767639,234.018097 
	C339.607391,234.362183 339.118927,234.678436 338.314728,235.039734 
z"/>
<path fill="#7709B9" opacity="1.000000" stroke="none" 
	d="
M340.242493,234.041550 
	C340.259003,233.910965 340.502808,233.724899 340.836273,233.710266 
	C340.925934,233.881683 340.469818,233.986069 340.242493,234.041550 
z"/>
<path fill="#FDFCFE" opacity="1.000000" stroke="none" 
	d="
M320.425629,205.145706 
	C309.697327,205.856812 301.239960,201.917267 294.130554,194.037598 
	C294.769196,192.333527 295.424347,191.230530 296.371918,189.960815 
	C299.775177,186.452271 302.885986,183.110428 306.302429,179.673218 
	C308.070831,178.629684 309.533600,177.681534 311.308228,176.675659 
	C312.760071,176.127533 313.900024,175.637115 315.487793,175.139359 
	C318.882294,175.087082 321.829010,175.042130 324.963013,175.285706 
	C327.423370,177.789886 329.696381,180.005554 331.969391,182.221222 
	C334.071014,187.061035 334.877686,192.002121 332.642822,196.994583 
	C330.379578,202.050354 326.615845,205.092209 320.425629,205.145706 
z"/>
<path fill="#7709B9" opacity="1.000000" stroke="none" 
	d="
M332.313049,182.199036 
	C329.696381,180.005554 327.423370,177.789886 325.413574,175.263702 
	C328.787659,175.260040 331.898560,175.566895 335.355042,175.991714 
	C337.103271,176.518234 338.505829,176.926773 340.154663,177.558426 
	C343.957367,180.201065 347.513855,182.620590 351.070312,185.040115 
	C352.959473,189.844910 354.848633,194.649704 356.770111,199.844223 
	C356.166168,199.354935 355.355682,198.554031 354.921021,197.584610 
	C351.296844,189.501587 345.810669,183.953430 336.393158,183.411865 
	C335.128204,183.339111 333.901276,182.604797 332.313049,182.199036 
z"/>
<path fill="#7709B9" opacity="1.000000" stroke="none" 
	d="
M356.985168,204.562729 
	C356.949585,204.957748 356.685455,205.033386 356.549591,205.040802 
	C356.403473,204.148788 356.393188,203.249359 356.589783,202.072968 
	C356.871338,202.586548 356.946045,203.377136 356.985168,204.562729 
z"/>
<path fill="#0B0EAC" opacity="1.000000" stroke="none" 
	d="
M154.040634,224.868668 
	C152.998856,219.035263 151.596863,213.238678 150.995972,207.360214 
	C149.982666,197.447128 153.159210,188.393814 158.207520,179.293243 
	C160.127655,176.556076 161.590439,174.291122 163.053223,172.026169 
	C163.053207,172.026169 163.005630,171.996262 163.299927,171.928192 
	C164.078629,171.248779 164.563049,170.637466 165.047455,170.026138 
	C165.047455,170.026138 165.001083,169.999268 165.328476,169.899811 
	C166.148407,169.356674 166.633347,168.904236 167.134567,168.470612 
	C181.594147,155.960556 198.319077,151.849762 217.007324,155.431686 
	C218.066940,157.847778 219.039841,161.521790 220.201965,161.582657 
	C225.810776,161.876434 225.058228,165.471802 224.531631,168.985931 
	C218.439651,165.908035 209.952972,169.552353 206.248001,161.568314 
	C206.071609,161.188202 205.063568,161.079041 204.431320,161.042435 
	C191.893372,160.316559 180.930588,164.471222 172.959183,173.906723 
	C163.761826,184.793365 159.886566,197.984924 161.104492,212.316147 
	C161.442780,216.296646 162.920837,220.180298 163.875992,224.108383 
	C164.173889,224.024551 164.471771,223.940704 164.769669,223.856873 
	C164.496918,220.974197 164.224167,218.091507 163.951416,215.208832 
	C165.535110,217.263824 165.967026,219.610199 167.079453,221.570419 
	C170.343292,227.321625 172.405960,234.295471 180.215363,235.818268 
	C180.144363,235.846146 180.153702,235.693863 180.229385,235.987335 
	C180.634476,236.495056 180.963867,236.709305 181.596985,237.044601 
	C188.658844,241.000549 195.417007,244.835449 201.798920,248.791718 
	C200.639450,249.009109 199.856232,249.105103 198.642853,249.137360 
	C189.111435,246.247955 179.866379,243.807251 170.952911,240.478638 
	C163.393677,237.655716 158.879562,230.951950 154.040634,224.868668 
z"/>
<path fill="#4111EA" opacity="1.000000" stroke="none" 
	d="
M154.024048,225.263672 
	C158.879562,230.951950 163.393677,237.655716 170.952911,240.478638 
	C179.866379,243.807251 189.111435,246.247955 198.626160,249.507965 
	C200.684830,256.027374 202.330048,262.112427 203.975266,268.197510 
	C199.584290,267.093719 195.193314,265.989929 190.415344,264.817627 
	C188.890472,264.227448 187.752594,263.705750 186.309738,263.061188 
	C184.281982,261.958069 182.559189,260.977783 180.514099,259.904846 
	C173.981155,253.960205 167.770538,248.108185 161.277390,242.051605 
	C158.665710,236.450912 156.336594,231.054779 154.024048,225.263672 
z"/>
<path fill="#8579E4" opacity="1.000000" stroke="none" 
	d="
M217.007797,155.024399 
	C198.319077,151.849762 181.594147,155.960556 167.134567,168.470612 
	C166.633347,168.904236 166.148407,169.356674 165.341522,169.923187 
	C167.543076,167.191940 170.059006,164.337830 172.643707,161.161285 
	C172.712463,160.838837 172.826630,160.738052 173.119507,160.697479 
	C173.700958,160.526932 173.897598,160.312531 174.002274,160.013702 
	C180.093964,157.753159 186.185654,155.492615 192.622101,153.079681 
	C199.311417,152.600998 205.655960,152.274689 212.875839,151.993530 
	C216.805588,152.528381 219.860001,153.018097 222.914429,153.507812 
	C227.644577,155.340088 232.374741,157.172379 237.447327,159.077393 
	C237.779068,159.344315 237.768356,159.538544 237.346817,159.959229 
	C230.293243,158.465240 223.650528,156.744827 217.007797,155.024399 
z"/>
<path fill="#8579E4" opacity="1.000000" stroke="none" 
	d="
M162.705978,172.008514 
	C161.590439,174.291122 160.127655,176.556076 158.365540,178.982239 
	C159.497055,176.759262 160.927902,174.375061 162.705978,172.008514 
z"/>
<path fill="#8579E4" opacity="1.000000" stroke="none" 
	d="
M164.696777,169.985565 
	C164.563049,170.637466 164.078629,171.248779 163.310547,171.954178 
	C163.466614,171.347153 163.906357,170.646057 164.696777,169.985565 
z"/>
<path fill="#470CA7" opacity="1.000000" stroke="none" 
	d="
M217.007324,155.431686 
	C223.650528,156.744827 230.293243,158.465240 237.299347,160.247116 
	C237.662704,160.308563 237.777985,160.286255 237.971313,160.492371 
	C238.674149,160.857437 239.183624,161.016388 239.693115,161.175339 
	C243.574966,163.705170 247.456802,166.234985 251.634857,168.926880 
	C250.753708,175.545059 254.197266,179.507736 258.938904,183.166367 
	C260.605469,184.452255 261.448181,187.086502 262.156036,189.270691 
	C263.316589,192.851837 264.059540,196.568329 264.668213,200.521637 
	C263.577454,200.548721 262.797058,200.281921 261.948792,199.678436 
	C251.906219,192.180222 241.931564,185.018707 231.961182,177.463577 
	C233.119949,171.330872 227.239883,171.710190 224.931595,168.982910 
	C225.058228,165.471802 225.810776,161.876434 220.201965,161.582657 
	C219.039841,161.521790 218.066940,157.847778 217.007324,155.431686 
z"/>
<path fill="#0D0F83" opacity="1.000000" stroke="none" 
	d="
M262.016693,200.015137 
	C262.797058,200.281921 263.577454,200.548721 264.648132,200.935440 
	C265.616516,201.829071 266.294556,202.602798 267.158936,203.632843 
	C267.038055,204.875473 266.730835,205.861740 265.764893,206.976089 
	C263.117493,206.625092 261.128815,206.146042 259.139648,205.354843 
	C260.098328,203.366837 261.057495,201.690979 262.016693,200.015137 
z"/>
<path fill="#EF03DD" opacity="1.000000" stroke="none" 
	d="
M281.024597,180.190704 
	C283.049347,177.154083 285.218872,174.409500 287.874878,171.293243 
	C288.574432,170.598160 288.787506,170.274765 289.000610,169.951370 
	C289.000610,169.951370 289.004395,170.006180 289.239868,169.933258 
	C289.646973,169.557327 289.818542,169.254303 289.990112,168.951294 
	C289.990112,168.951279 290.001068,169.004074 290.270050,168.916763 
	C291.022797,168.207748 291.506592,167.586044 291.990356,166.964340 
	C291.990356,166.964340 292.002777,167.001892 292.259583,166.953857 
	C292.674683,166.593887 292.832977,166.281937 292.991272,165.969971 
	C292.991272,165.969971 293.000854,166.002853 293.335693,165.986969 
	C298.114197,163.369949 302.557892,160.768814 307.008759,158.545624 
	C307.659241,161.608109 308.302490,164.292664 308.662964,166.984619 
	C307.925507,167.271973 307.470825,167.551926 306.661621,167.910492 
	C302.841705,170.252533 299.376343,172.515945 295.628418,174.965073 
	C292.097198,178.454453 288.848572,181.758133 285.599945,185.061829 
	C284.123077,183.535461 282.646210,182.009094 281.024597,180.190704 
z"/>
<path fill="#4D3EEE" opacity="1.000000" stroke="none" 
	d="
M285.705017,185.398895 
	C288.848572,181.758133 292.097198,178.454453 295.921936,175.261566 
	C296.358521,180.290756 296.219025,185.209152 296.079498,190.127533 
	C295.424347,191.230530 294.769196,192.333527 293.976440,193.731445 
	C291.162567,191.262894 288.486328,188.499435 285.705017,185.398895 
z"/>
<path fill="#6609E7" opacity="1.000000" stroke="none" 
	d="
M204.298828,268.453827 
	C202.330048,262.112427 200.684830,256.027374 199.056305,249.571701 
	C199.856232,249.105103 200.639450,249.009109 201.789856,248.823059 
	C202.157043,248.733017 202.103592,248.697372 202.253326,249.041885 
	C204.245102,249.314621 206.087143,249.242844 208.351440,249.100967 
	C210.196762,249.075531 211.619873,249.120193 213.324966,249.397644 
	C217.000366,249.396759 220.393784,249.163086 224.212036,248.990143 
	C227.003448,248.698624 229.369995,248.346359 232.037109,248.158966 
	C232.896469,249.562057 233.455261,250.800247 233.783905,252.288177 
	C225.756363,255.942566 217.958984,259.347198 209.212875,263.166046 
	C213.804138,262.930176 217.429672,262.743896 221.077423,262.967743 
	C221.473038,264.998596 221.846466,266.619324 222.219879,268.240051 
	C216.354050,268.396759 210.488205,268.553436 204.298828,268.453827 
z"/>
<path fill="#A00AE6" opacity="1.000000" stroke="none" 
	d="
M222.601898,268.225769 
	C221.846466,266.619324 221.473038,264.998596 221.373642,262.773132 
	C226.419235,260.748749 231.190811,259.329102 236.302628,257.820129 
	C239.764786,256.150696 242.886688,254.570541 246.008591,252.990387 
	C242.517868,256.406921 239.064499,259.863098 235.510956,263.213013 
	C234.586151,264.084839 233.348801,264.625092 232.060455,265.592926 
	C228.905228,266.649261 225.944565,267.430359 222.601898,268.225769 
z"/>
<path fill="#A00AE6" opacity="1.000000" stroke="none" 
	d="
M234.014069,252.038437 
	C233.455261,250.800247 232.896469,249.562057 232.297119,247.896027 
	C239.953934,243.731949 247.522491,239.832123 251.979980,231.973541 
	C252.001541,231.993011 251.956696,231.961868 252.216217,231.907654 
	C252.637665,231.553665 252.799576,231.253906 252.979858,230.977631 
	C252.998230,231.001129 252.948990,230.967102 253.264694,230.862122 
	C254.373962,229.490463 255.167526,228.223801 255.982010,226.975555 
	C256.002930,226.993988 255.950485,226.976303 256.238373,226.848770 
	C256.685089,226.137863 256.843872,225.554489 257.006561,224.989304 
	C257.010468,225.007492 256.973785,225.013718 257.282898,224.894028 
	C257.711578,224.355606 257.831177,223.936874 258.162170,223.272278 
	C260.950684,218.100693 263.527771,213.174973 266.104858,208.249252 
	C267.020233,208.959473 267.935577,209.669693 268.996704,210.642303 
	C268.453552,212.352112 267.764679,213.799545 267.042603,215.583405 
	C262.358734,223.022797 257.708069,230.125809 252.724030,237.735687 
	C246.915344,242.769745 241.440063,247.296921 235.643417,251.890945 
	C234.886047,251.984680 234.450058,252.011551 234.014069,252.038437 
z"/>
<path fill="#DE33E8" opacity="1.000000" stroke="none" 
	d="
M235.964798,251.824081 
	C241.440063,247.296921 246.915344,242.769745 252.684753,238.079315 
	C252.755295,240.699097 252.531693,243.482147 251.934143,246.749756 
	C251.290573,247.437012 251.098145,247.696884 250.982895,248.013901 
	C250.982895,248.013901 251.004639,248.004440 250.759491,248.167786 
	C250.334167,248.894180 250.153976,249.457214 249.973816,250.020248 
	C249.973816,250.020248 250.007690,250.005737 249.765869,250.082794 
	C249.342712,250.445007 249.161392,250.730148 248.980057,251.015305 
	C248.980057,251.015305 249.000732,250.998779 248.762299,251.073929 
	C248.345062,251.437180 248.166275,251.725266 247.987473,252.013351 
	C247.987473,252.013351 248.000122,252.000565 247.697723,251.982300 
	C246.925705,252.312042 246.456100,252.660065 245.986511,253.008087 
	C245.986496,253.008072 245.998413,253.000885 246.003510,252.995636 
	C242.886688,254.570541 239.764786,256.150696 236.316742,257.392761 
	C235.981995,255.311111 235.973404,253.567596 235.964798,251.824081 
z"/>
<path fill="#A00AE6" opacity="1.000000" stroke="none" 
	d="
M250.226440,249.851929 
	C250.153976,249.457214 250.334167,248.894180 250.762024,248.156204 
	C250.832825,248.548706 250.655945,249.116150 250.226440,249.851929 
z"/>
<path fill="#A00AE6" opacity="1.000000" stroke="none" 
	d="
M249.227112,251.011230 
	C249.161392,250.730148 249.342712,250.445007 249.766235,250.064362 
	C250.002335,250.137924 249.996201,250.306961 249.978928,250.729279 
	C249.967773,250.982590 249.474182,251.007172 249.227112,251.011230 
z"/>
<path fill="#A00AE6" opacity="1.000000" stroke="none" 
	d="
M251.201950,247.903625 
	C251.098145,247.696884 251.290573,247.437012 251.778656,247.123886 
	C251.879852,247.328629 251.687790,247.588593 251.201950,247.903625 
z"/>
<path fill="#A00AE6" opacity="1.000000" stroke="none" 
	d="
M246.297821,253.029633 
	C246.456100,252.660065 246.925705,252.312042 247.705261,251.977371 
	C247.546524,252.344223 247.077820,252.697708 246.297821,253.029633 
z"/>
<path fill="#A00AE6" opacity="1.000000" stroke="none" 
	d="
M248.223846,251.915375 
	C248.166275,251.725266 248.345062,251.437180 248.772064,251.064987 
	C248.833572,251.259735 248.646881,251.538574 248.223846,251.915375 
z"/>
<path fill="#A00AE6" opacity="1.000000" stroke="none" 
	d="
M308.945740,166.977234 
	C308.302490,164.292664 307.659241,161.608109 307.372314,158.411316 
	C313.774078,156.901855 319.819489,155.904633 325.864929,154.907410 
	C326.937073,154.982208 328.009247,155.057007 329.477478,155.200592 
	C330.886444,158.648834 331.899292,162.028320 332.457031,165.781158 
	C326.673248,165.793350 321.344604,165.432175 315.665894,165.065643 
	C314.199585,165.378555 313.083313,165.696854 311.646912,166.029755 
	C310.533112,166.355316 309.739410,166.666275 308.945740,166.977234 
z"/>
<path fill="#8579E4" opacity="1.000000" stroke="none" 
	d="
M325.576111,154.632507 
	C319.819489,155.904633 313.774078,156.901855 307.365112,158.033371 
	C302.557892,160.768814 298.114197,163.369949 293.320007,165.980072 
	C296.828186,159.543732 303.321350,156.824951 309.996033,155.210037 
	C314.876190,154.029266 320.175049,154.579147 325.576111,154.632507 
z"/>
<path fill="#8579E4" opacity="1.000000" stroke="none" 
	d="
M291.647217,166.921875 
	C291.506592,167.586044 291.022797,168.207748 290.243774,168.910797 
	C290.400360,168.287903 290.852234,167.583664 291.647217,166.921875 
z"/>
<path fill="#8579E4" opacity="1.000000" stroke="none" 
	d="
M288.697510,170.034241 
	C288.787506,170.274765 288.574432,170.598160 288.098602,171.073410 
	C288.022034,170.855881 288.208221,170.486496 288.697510,170.034241 
z"/>
<path fill="#8579E4" opacity="1.000000" stroke="none" 
	d="
M289.709198,168.987457 
	C289.818542,169.254303 289.646973,169.557327 289.212860,169.928314 
	C289.109680,169.672073 289.268982,169.347855 289.709198,168.987457 
z"/>
<path fill="#8579E4" opacity="1.000000" stroke="none" 
	d="
M292.691223,165.967194 
	C292.832977,166.281937 292.674683,166.593887 292.241028,166.946960 
	C292.107513,166.646866 292.249359,166.305649 292.691223,165.967194 
z"/>
<path fill="#C536EA" opacity="1.000000" stroke="none" 
	d="
M351.317169,184.830872 
	C347.513855,182.620590 343.957367,180.201065 340.216370,177.145554 
	C340.357971,174.668442 340.684082,172.827301 341.010193,170.986176 
	C342.741089,172.348129 344.471985,173.710083 346.528290,175.150482 
	C348.423798,178.359833 349.993896,181.490738 351.317169,184.830872 
z"/>
<path fill="#9F39EB" opacity="1.000000" stroke="none" 
	d="
M239.179581,157.632126 
	C237.404068,157.181702 235.544571,156.647339 234.217239,155.498291 
	C233.209152,154.625580 232.878098,152.970795 232.245789,151.664001 
	C233.499222,151.399628 234.758987,150.905350 236.004211,150.939636 
	C237.109070,150.970047 238.197784,151.587448 239.665009,152.012039 
	C239.799088,153.813522 239.561752,155.548706 239.179581,157.632126 
z"/>
<path fill="#8579E4" opacity="1.000000" stroke="none" 
	d="
M239.610718,160.895874 
	C239.183624,161.016388 238.674149,160.857437 238.023956,160.466339 
	C238.431610,160.361603 238.979950,160.488998 239.610718,160.895874 
z"/>
<path fill="#4D3EEE" opacity="1.000000" stroke="none" 
	d="
M173.784821,160.049530 
	C173.897598,160.312531 173.700958,160.526932 173.191071,160.671509 
	C173.067001,160.384491 173.266205,160.184235 173.784821,160.049530 
z"/>
<path fill="#FC35E8" opacity="1.000000" stroke="none" 
	d="
M316.015930,165.071014 
	C321.344604,165.432175 326.673248,165.793350 332.413452,166.187668 
	C333.666046,166.811462 334.507141,167.402115 335.670593,168.447220 
	C335.665070,171.225693 335.337250,173.549713 335.009430,175.873734 
	C331.898560,175.566895 328.787659,175.260040 325.226257,174.975189 
	C321.829010,175.042130 318.882294,175.087082 315.519348,174.722260 
	C315.407379,171.232010 315.711639,168.151520 316.015930,165.071014 
z"/>
<path fill="#DE33E8" opacity="1.000000" stroke="none" 
	d="
M335.355042,175.991714 
	C335.337250,173.549713 335.665070,171.225693 335.982239,168.507050 
	C337.519440,168.898636 339.067352,169.684845 340.812714,170.728607 
	C340.684082,172.827301 340.357971,174.668442 339.970154,176.922440 
	C338.505829,176.926773 337.103271,176.518234 335.355042,175.991714 
z"/>
<path fill="#0E12EB" opacity="1.000000" stroke="none" 
	d="
M266.032928,208.026367 
	C263.527771,213.174973 260.950684,218.100693 257.920746,223.468506 
	C257.303223,224.278305 257.138489,224.646011 256.973785,225.013718 
	C256.973785,225.013718 257.010468,225.007492 256.718872,225.130066 
	C256.268311,225.827179 256.109406,226.401733 255.950470,226.976303 
	C255.950485,226.976303 256.002930,226.993988 255.630463,226.953644 
	C254.488312,228.264557 253.718643,229.615829 252.948975,230.967102 
	C252.948990,230.967102 252.998230,231.001129 252.661972,230.936768 
	C252.202698,231.235550 252.079697,231.598709 251.956696,231.961868 
	C251.956696,231.961868 252.001541,231.993011 251.630615,231.884872 
	C243.303848,239.418930 234.353012,245.467484 223.787186,248.929413 
	C220.393784,249.163086 217.000366,249.396759 213.702240,249.311401 
	C229.550095,246.258270 240.237564,236.641083 248.321594,223.525986 
	C251.973572,217.601196 255.536697,211.621674 259.140137,205.666992 
	C261.128815,206.146042 263.117493,206.625092 265.469238,207.228638 
	C265.832306,207.353119 265.960999,207.803482 266.032928,208.026367 
z"/>
<path fill="#4D3EEE" opacity="1.000000" stroke="none" 
	d="
M206.518524,146.955444 
	C210.302032,146.958160 213.662613,146.987961 217.472809,147.018463 
	C217.929413,147.751343 217.936401,148.483505 217.581818,149.579895 
	C215.774261,149.642899 214.328293,149.341644 212.882309,149.040375 
	C208.630249,148.592468 204.378204,148.144547 200.126144,147.696625 
	C200.116592,147.458588 200.107056,147.220566 200.097504,146.982544 
	C202.096863,146.982544 204.096207,146.982544 206.518524,146.955444 
z"/>
<path fill="#6609E7" opacity="1.000000" stroke="none" 
	d="
M212.921417,149.396973 
	C214.328293,149.341644 215.774261,149.642899 217.588135,149.946259 
	C219.481079,150.529037 221.006149,151.109695 222.865646,151.822495 
	C223.143890,152.211105 223.087723,152.467575 222.972992,153.115921 
	C219.860001,153.018097 216.805588,152.528381 213.337631,151.970261 
	C212.936249,151.185760 212.948395,150.469666 212.921417,149.396973 
z"/>
<path fill="#9F39EB" opacity="1.000000" stroke="none" 
	d="
M296.371918,189.960815 
	C296.219025,185.209152 296.358521,180.290756 296.204529,175.075867 
	C299.376343,172.515945 302.841705,170.252533 306.656799,168.361633 
	C306.669952,172.412292 306.333374,176.090454 305.996826,179.768600 
	C302.885986,183.110428 299.775177,186.452271 296.371918,189.960815 
z"/>
<path fill="#C536EA" opacity="1.000000" stroke="none" 
	d="
M306.302429,179.673218 
	C306.333374,176.090454 306.669952,172.412292 307.011353,168.283020 
	C307.470825,167.551926 307.925507,167.271973 308.662964,166.984619 
	C309.739410,166.666275 310.533112,166.355316 311.659302,166.462036 
	C311.660004,170.164261 311.328186,173.448837 310.996368,176.733398 
	C309.533600,177.681534 308.070831,178.629684 306.302429,179.673218 
z"/>
<path fill="#DE33E8" opacity="1.000000" stroke="none" 
	d="
M311.308228,176.675659 
	C311.328186,173.448837 311.660004,170.164261 311.979431,166.447418 
	C313.083313,165.696854 314.199585,165.378555 315.665894,165.065643 
	C315.711639,168.151520 315.407379,171.232010 315.071533,174.729614 
	C313.900024,175.637115 312.760071,176.127533 311.308228,176.675659 
z"/>
<path fill="#FDFCFE" opacity="1.000000" stroke="none" 
	d="
M259.139648,205.354828 
	C255.536697,211.621674 251.973572,217.601196 248.321594,223.525986 
	C240.237564,236.641083 229.550095,246.258270 213.420258,249.078613 
	C211.619873,249.120193 210.196762,249.075531 207.941803,249.024353 
	C205.441147,248.911011 203.772369,248.804184 202.103592,248.697372 
	C202.103592,248.697372 202.157043,248.733017 202.166107,248.701691 
	C195.417007,244.835449 188.658844,241.000549 181.493088,236.767059 
	C180.774887,236.143600 180.464294,235.918732 180.153702,235.693863 
	C180.153702,235.693863 180.144363,235.846146 180.098633,235.493469 
	C174.377548,228.380127 171.887589,220.427368 171.303345,211.761322 
	C169.963364,191.885513 186.154205,173.974976 205.964127,172.808624 
	C215.187469,172.265579 223.661118,174.282944 231.956924,177.857178 
	C241.931564,185.018707 251.906219,192.180222 261.948792,199.678436 
	C261.057495,201.690979 260.098328,203.366837 259.139648,205.354828 
M195.427658,179.670578 
	C189.805313,181.825897 185.911285,185.935089 182.905014,191.115112 
	C185.587799,189.260880 188.270599,187.406631 191.689209,185.220932 
	C195.796997,184.076630 199.904785,182.932327 204.928268,181.951218 
	C211.541214,182.329941 218.154175,182.708664 225.313385,183.509018 
	C226.454391,183.844269 227.595383,184.179504 228.939789,184.574524 
	C224.550278,177.017410 206.740860,174.415771 196.250839,179.567184 
	C196.250839,179.567184 196.226486,179.599915 196.211441,179.638611 
	C196.211441,179.638611 196.193634,179.577393 195.427658,179.670578 
M253.787857,208.331467 
	C254.833130,206.448364 256.178986,204.660416 256.815979,202.648087 
	C257.227936,201.346725 256.602600,199.717010 256.442078,198.234436 
	C255.934052,198.270950 255.426041,198.307449 254.918030,198.343964 
	C251.590820,204.734802 248.263611,211.125641 244.936417,217.516479 
	C245.368103,217.771439 245.799789,218.026382 246.231491,218.281342 
	C248.576508,215.132080 250.921539,211.982819 253.787857,208.331467 
M232.291946,235.901001 
	C236.305954,232.594315 241.339035,230.073410 241.238525,223.515121 
	C237.180679,228.152802 233.122833,232.790466 229.578613,236.841125 
	C229.554214,236.848221 230.602722,236.543243 232.291946,235.901001 
z"/>
<path fill="#0D0F83" opacity="1.000000" stroke="none" 
	d="
M231.961182,177.463577 
	C223.661118,174.282944 215.187469,172.265579 205.964127,172.808624 
	C186.154205,173.974976 169.963364,191.885513 171.303345,211.761322 
	C171.887589,220.427368 174.377548,228.380127 180.169647,235.465591 
	C172.405960,234.295471 170.343292,227.321625 167.079453,221.570419 
	C165.967026,219.610199 165.535110,217.263824 163.951416,215.208832 
	C164.224167,218.091507 164.496918,220.974197 164.769669,223.856873 
	C164.471771,223.940704 164.173889,224.024551 163.875992,224.108383 
	C162.920837,220.180298 161.442780,216.296646 161.104492,212.316147 
	C159.886566,197.984924 163.761826,184.793365 172.959183,173.906723 
	C180.930588,164.471222 191.893372,160.316559 204.431320,161.042435 
	C205.063568,161.079041 206.071609,161.188202 206.248001,161.568314 
	C209.952972,169.552353 218.439651,165.908035 224.531631,168.985931 
	C227.239883,171.710190 233.119949,171.330872 231.961182,177.463577 
z"/>
<path fill="#0D0F83" opacity="1.000000" stroke="none" 
	d="
M180.229385,235.987335 
	C180.464294,235.918732 180.774887,236.143600 181.189377,236.646011 
	C180.963867,236.709305 180.634476,236.495056 180.229385,235.987335 
z"/>
<path fill="#FC35E8" opacity="1.000000" stroke="none" 
	d="
M235.643417,251.890945 
	C235.973404,253.567596 235.981995,255.311111 235.976486,257.482025 
	C231.190811,259.329102 226.419235,260.748749 221.351440,262.363007 
	C217.429672,262.743896 213.804138,262.930176 209.212875,263.166046 
	C217.958984,259.347198 225.756363,255.942566 233.783905,252.288177 
	C234.450058,252.011551 234.886047,251.984680 235.643417,251.890945 
z"/>
<path fill="#8579E4" opacity="1.000000" stroke="none" 
	d="
M224.212036,248.990143 
	C234.353012,245.467484 243.303848,239.418930 251.609055,231.865417 
	C247.522491,239.832123 239.953934,243.731949 231.996552,247.731155 
	C229.369995,248.346359 227.003448,248.698624 224.212036,248.990143 
z"/>
<path fill="#4111EA" opacity="1.000000" stroke="none" 
	d="
M202.253326,249.041885 
	C203.772369,248.804184 205.441147,248.911011 207.519562,249.094452 
	C206.087143,249.242844 204.245102,249.314621 202.253326,249.041885 
z"/>
<path fill="#8579E4" opacity="1.000000" stroke="none" 
	d="
M253.264679,230.862122 
	C253.718643,229.615829 254.488312,228.264557 255.609528,226.935211 
	C255.167526,228.223801 254.373962,229.490463 253.264679,230.862122 
z"/>
<path fill="#8579E4" opacity="1.000000" stroke="none" 
	d="
M256.238373,226.848770 
	C256.109406,226.401733 256.268311,225.827179 256.714966,225.111877 
	C256.843872,225.554489 256.685089,226.137863 256.238373,226.848770 
z"/>
<path fill="#8579E4" opacity="1.000000" stroke="none" 
	d="
M257.282898,224.894028 
	C257.138489,224.646011 257.303223,224.278305 257.709351,223.714371 
	C257.831177,223.936874 257.711578,224.355606 257.282898,224.894028 
z"/>
<path fill="#8579E4" opacity="1.000000" stroke="none" 
	d="
M252.216217,231.907654 
	C252.079697,231.598709 252.202698,231.235550 252.643600,230.913269 
	C252.799576,231.253906 252.637665,231.553665 252.216217,231.907654 
z"/>
<path fill="#EF03DD" opacity="1.000000" stroke="none" 
	d="
M253.527222,208.582504 
	C250.921539,211.982819 248.576508,215.132080 246.231491,218.281342 
	C245.799789,218.026382 245.368103,217.771439 244.936417,217.516479 
	C248.263611,211.125641 251.590820,204.734802 254.918030,198.343964 
	C255.426041,198.307449 255.934052,198.270950 256.442078,198.234436 
	C256.602600,199.717010 257.227936,201.346725 256.815979,202.648087 
	C256.178986,204.660416 254.833130,206.448364 253.527222,208.582504 
z"/>
<path fill="#A00AE6" opacity="1.000000" stroke="none" 
	d="
M196.266159,179.529861 
	C206.740860,174.415771 224.550278,177.017410 228.939789,184.574524 
	C227.595383,184.179504 226.454391,183.844269 224.874786,182.994568 
	C219.981094,181.359482 215.526001,180.238861 210.612961,179.110291 
	C205.525391,179.244843 200.895767,179.387360 196.266159,179.529861 
z"/>
<path fill="#470CA7" opacity="1.000000" stroke="none" 
	d="
M231.971588,236.069626 
	C230.602722,236.543243 229.554214,236.848221 229.578613,236.841125 
	C233.122833,232.790466 237.180679,228.152802 241.238525,223.515121 
	C241.339035,230.073410 236.305954,232.594315 231.971588,236.069626 
z"/>
<path fill="#470CA7" opacity="1.000000" stroke="none" 
	d="
M196.258499,179.548523 
	C200.895767,179.387360 205.525391,179.244843 210.536743,179.470947 
	C208.616501,180.489044 206.314529,181.138535 204.012573,181.788025 
	C199.904785,182.932327 195.796997,184.076630 191.391144,185.002472 
	C192.778671,183.414444 194.464279,182.044876 196.325500,180.539825 
	C196.609741,180.068710 196.518204,179.800568 196.226486,179.599915 
	C196.226486,179.599915 196.250839,179.567184 196.258499,179.548523 
z"/>
<path fill="#4111EA" opacity="1.000000" stroke="none" 
	d="
M196.149872,180.675308 
	C194.464279,182.044876 192.778671,183.414444 191.023224,185.168198 
	C188.270599,187.406631 185.587799,189.260880 182.905014,191.115112 
	C185.911285,185.935089 189.805313,181.825897 195.802429,179.899658 
	C196.168076,180.310928 196.158966,180.493118 196.149872,180.675308 
z"/>
<path fill="#9F39EB" opacity="1.000000" stroke="none" 
	d="
M204.470428,181.869614 
	C206.314529,181.138535 208.616501,180.489044 210.994690,179.478897 
	C215.526001,180.238861 219.981094,181.359482 224.601654,182.783752 
	C218.154175,182.708664 211.541214,182.329941 204.470428,181.869614 
z"/>
<path fill="#A00AE6" opacity="1.000000" stroke="none" 
	d="
M196.325500,180.539825 
	C196.158966,180.493118 196.168076,180.310928 196.185425,179.853058 
	C196.193634,179.577393 196.211441,179.638611 196.218964,179.619263 
	C196.518204,179.800568 196.609741,180.068710 196.325500,180.539825 
z"/>
</svg>