<svg version="1.1" id="Layer_1" xmlns="http://www.w3.org/2000/svg" xmlns:xlink="http://www.w3.org/1999/xlink" x="0px" y="0px"
	 width="100%" viewBox="0 0 500 500" enable-background="new 0 0 500 500" xml:space="preserve">
<path fill="#100D28" opacity="1.000000" stroke="none" 
	d="
M327.000000,501.000000 
	C218.000031,501.000000 109.500053,501.000000 1.000058,501.000000 
	C1.000039,334.333405 1.000039,167.666794 1.000019,1.000148 
	C167.666565,1.000098 334.333130,1.000098 500.999756,1.000049 
	C500.999847,167.666519 500.999847,334.333038 500.999939,500.999786 
	C443.166656,501.000000 385.333344,501.000000 327.000000,501.000000 
M156.336151,170.984756 
	C156.093430,171.327209 155.850693,171.669678 155.131577,172.434143 
	C148.228912,181.466110 144.002930,191.619720 142.328659,202.856766 
	C139.630112,220.968307 142.209122,237.974960 153.010956,253.954880 
	C157.664398,258.991425 162.317825,264.027985 167.310104,269.636108 
	C170.089966,271.474091 172.869827,273.312103 176.086563,275.693878 
	C178.403488,276.770325 180.720413,277.846771 183.582901,279.406525 
	C186.723465,280.222473 189.864029,281.038422 193.745285,282.116241 
	C206.803101,284.832672 219.563385,283.935181 232.733658,278.987762 
	C235.815796,277.548187 238.897919,276.108612 242.613159,274.466583 
	C248.078094,269.316895 253.543030,264.167206 259.595367,258.689575 
	C261.868683,255.264664 264.499481,252.020187 266.338867,248.376221 
	C269.868439,241.383682 272.948944,234.164459 276.868408,226.904877 
	C278.549042,223.193085 280.229706,219.481293 282.571991,215.952713 
	C284.101868,216.762802 285.631744,217.572891 287.662720,218.887039 
	C293.730133,221.987747 299.797516,225.088470 306.371613,228.751480 
	C308.140808,229.109039 309.906921,229.482605 311.679688,229.821350 
	C319.537476,231.322845 327.360504,231.941223 335.734955,228.797989 
	C346.461761,224.303070 354.478790,217.455048 356.602905,205.152542 
	C356.602905,205.152542 356.920258,204.984039 357.494080,204.498901 
	C362.528015,188.429703 356.792114,169.101974 343.967316,159.337723 
	C343.679199,159.158890 343.391083,158.980042 342.845947,158.326263 
	C342.398682,158.036911 341.951416,157.747559 341.020111,156.974472 
	C329.533508,149.605087 317.538666,149.136368 304.955841,153.936523 
	C293.304474,158.381332 283.862610,165.641113 275.561249,175.161911 
	C275.360779,175.111771 275.160278,175.061615 274.668762,174.366699 
	C273.456757,173.212494 272.244720,172.058289 271.879913,170.645081 
	C273.029266,170.544983 274.537689,170.880478 275.271210,170.275879 
	C281.138184,165.439865 286.858582,160.426041 292.623871,155.466660 
	C283.695862,158.355148 276.503021,163.474884 270.459900,170.517883 
	C266.652313,167.644531 262.844696,164.771179 258.722015,161.286942 
	C256.222504,160.134644 253.722961,158.982346 251.157593,157.115219 
	C247.412247,155.077927 243.666916,153.040634 239.462723,150.481171 
	C231.967072,148.584198 224.471420,146.687225 216.284927,144.364197 
	C210.491821,144.605331 204.698715,144.846451 198.104538,145.014023 
	C182.592102,147.679932 169.683960,154.897369 159.338150,167.179611 
	C159.183563,167.312454 159.090714,167.479584 158.548431,167.999680 
	C158.358444,168.338257 158.168472,168.676834 158.013336,169.010834 
	C158.013336,169.010834 158.007324,168.976212 157.437408,169.240891 
	C157.236526,169.809982 157.035629,170.379074 156.926422,170.987579 
	C156.926422,170.987579 156.959732,170.893494 156.336151,170.984756 
M328.778046,238.762741 
	C330.199158,238.389999 331.620239,238.017273 333.734589,237.618942 
	C340.114624,235.201889 345.963531,232.110962 349.113434,226.742081 
	C342.667633,229.210785 335.875153,231.812256 328.254791,234.332703 
	C323.573608,234.288010 318.892456,234.243332 313.428192,233.962280 
	C311.802734,233.617416 310.184082,233.234970 308.549866,232.938400 
	C306.964508,232.650696 305.363129,232.451157 303.768799,232.212906 
	C311.214600,237.499619 318.959259,240.935410 328.778046,238.762741 
M256.919556,307.173767 
	C255.001297,307.173767 253.083038,307.173767 250.290268,307.173767 
	C253.934280,315.715851 253.843033,323.716705 250.433502,331.769409 
	C254.143478,331.769409 257.037537,331.769409 260.880524,331.769409 
	C259.804352,329.282654 258.577881,327.429077 258.249969,325.428223 
	C257.887360,323.215698 258.347443,320.868317 258.458954,318.361084 
	C264.666870,322.269470 263.940582,332.628601 273.391357,332.089081 
	C273.972870,323.647583 274.528717,315.577881 275.085999,307.488098 
	C272.388428,307.488098 269.487122,307.488098 266.451691,307.488098 
	C267.283173,312.116852 268.061432,316.449158 268.839661,320.781494 
	C268.404938,320.901642 267.970215,321.021820 267.535461,321.141968 
	C264.258881,316.516693 260.982300,311.891418 256.919556,307.173767 
M182.066391,316.717407 
	C182.742416,313.672974 183.418457,310.628510 184.140732,307.375854 
	C180.663223,307.375854 177.906281,307.375854 174.868439,307.375854 
	C175.663147,312.026794 176.423248,316.475220 177.183350,320.923645 
	C176.663452,321.089630 176.143555,321.255615 175.623672,321.421600 
	C173.610748,318.265167 171.229935,315.278992 169.671814,311.912079 
	C167.380081,306.959991 163.828445,306.350006 158.599350,307.778595 
	C162.307846,315.750580 161.750473,323.732208 158.770721,331.739563 
	C162.451202,331.739563 165.365570,331.739563 168.303787,331.739563 
	C167.582153,327.275574 166.892578,323.009949 166.071335,317.929779 
	C172.982056,322.205902 172.084274,332.624207 182.066376,332.022308 
	C182.066376,326.947540 182.066376,322.311218 182.066391,316.717407 
M364.065033,307.162476 
	C361.780823,307.162476 359.496613,307.162476 356.925598,307.162476 
	C356.925598,310.586334 356.925598,313.646667 356.925598,316.707001 
	C356.108948,316.740845 355.292267,316.774658 354.475616,316.808502 
	C354.227692,313.671173 353.979797,310.533844 353.723267,307.287750 
	C350.578705,307.287750 347.471466,307.287750 343.682861,307.287750 
	C344.026428,308.960968 343.916718,310.695496 344.699707,311.793549 
	C346.658905,314.541046 349.230652,316.854370 351.165222,319.616119 
	C353.055786,322.315033 354.705292,325.251312 350.597473,327.886139 
	C349.877838,328.347717 350.190338,330.418488 350.023224,331.770142 
	C354.067841,331.770142 357.473145,331.770142 361.300934,331.770142 
	C361.008759,330.235779 361.181824,328.288788 360.472748,327.882965 
	C355.747559,325.178406 358.026581,322.183258 360.013580,319.401245 
	C361.900238,316.759766 364.331787,314.509277 366.240601,311.881226 
	C367.586395,310.028351 368.916290,307.696686 364.065033,307.162476 
M204.793106,316.153625 
	C205.223907,314.901123 205.340240,312.950714 206.167450,312.578033 
	C207.136810,312.141235 209.698166,312.802704 209.884644,313.463257 
	C210.998199,317.407806 213.416061,315.648346 215.467270,315.498383 
	C215.467270,312.548248 215.467270,309.984314 215.467270,307.464172 
	C209.000107,307.464172 202.926224,307.464172 195.807007,307.464172 
	C200.385651,315.768921 200.092804,323.814087 196.161697,331.740295 
	C200.504288,331.740295 203.761429,331.740295 207.645752,331.740295 
	C206.419052,328.514740 205.378876,325.779663 204.209427,322.704681 
	C206.602859,322.301514 208.139252,322.042694 209.409897,321.828674 
	C211.020920,317.074707 207.788177,317.350525 204.793106,316.153625 
M326.438812,330.519623 
	C322.922577,324.649414 323.751160,318.330231 324.238953,311.874268 
	C326.888428,313.167755 329.305908,314.347961 332.395752,315.856445 
	C332.395752,312.101593 332.395752,309.858795 332.395752,307.387421 
	C324.879303,307.387421 317.659821,307.387421 310.302277,307.387421 
	C310.302277,310.023773 310.302277,312.413635 310.302277,316.193207 
	C313.234772,314.492310 315.316498,313.284882 318.758636,311.288391 
	C317.948486,318.678192 317.230011,325.231781 316.457886,332.275024 
	C319.602142,331.978729 322.968658,331.661469 326.438812,330.519623 
M296.329041,325.276184 
	C296.895081,319.340790 297.461090,313.405426 298.028107,307.459412 
	C295.062988,307.459412 291.810425,307.459412 288.508820,307.459412 
	C289.337067,311.731873 290.697845,315.705292 290.712616,319.683716 
	C290.727448,323.666077 289.397400,327.653442 288.642944,331.713745 
	C292.088501,331.713745 295.493286,331.713745 300.237244,331.713745 
	C298.550049,329.303131 297.470947,327.761322 296.329041,325.276184 
M138.197052,314.022919 
	C137.675171,319.931580 137.153275,325.840240 136.622696,331.847321 
	C139.507812,331.847321 142.772614,331.847321 147.051300,331.847321 
	C142.228531,323.596497 143.258850,315.452118 146.678268,307.337860 
	C142.499115,307.337860 139.385971,307.337860 134.941040,307.337860 
	C136.292892,309.774292 137.231888,311.466644 138.197052,314.022919 
M238.174332,309.494598 
	C237.433899,308.711884 236.759399,307.346924 235.940857,307.254242 
	C233.358261,306.961884 230.721680,307.146393 227.043686,307.146393 
	C231.259048,315.621246 231.097672,323.726562 227.149048,332.036987 
	C229.808517,332.036987 231.454163,332.036957 233.099823,332.036957 
	C234.700989,332.036957 236.302155,332.036987 238.346268,332.036987 
	C238.074951,330.288849 238.235123,328.827850 237.628357,327.836029 
	C234.756958,323.142517 234.923004,314.157928 238.174332,309.494598 
M301.483795,231.492081 
	C301.483795,231.492081 301.534180,231.487411 301.483795,231.492081 
z"/>
<path fill="#EC01DB" opacity="1.000000" stroke="none" 
	d="
M356.244934,205.178970 
	C354.478790,217.455048 346.461761,224.303070 335.373383,228.427002 
	C333.994171,225.175369 332.894165,222.320465 331.983185,219.406448 
	C331.153656,216.752914 329.861359,215.933792 326.875488,216.494965 
	C320.694763,217.656586 314.458862,217.791656 309.297241,214.015198 
	C310.227875,214.033813 310.750397,213.971054 311.220337,214.099976 
	C325.277069,217.955658 334.769104,209.053818 340.130920,198.667404 
	C342.403473,194.265213 341.413086,189.369156 338.606110,187.672272 
	C339.500153,198.603439 335.824097,205.352325 327.231049,206.501297 
	C322.665436,207.111801 317.832428,205.722672 313.562592,205.165344 
	C315.817780,205.118149 317.633789,205.224670 319.442627,205.151794 
	C330.282562,204.714996 336.249542,196.273331 333.178528,185.766342 
	C332.811798,184.511642 332.441864,183.257889 332.422760,182.053223 
	C343.687103,183.556107 352.068298,188.349014 355.699249,199.446671 
	C355.762665,199.640488 356.276062,199.687103 356.615662,200.185425 
	C356.649139,201.081161 356.646393,201.593887 356.499084,202.380997 
	C356.317963,203.496567 356.281433,204.337769 356.244934,205.178970 
z"/>
<path fill="#4A3CED" opacity="1.000000" stroke="none" 
	d="
M159.059586,167.681000 
	C159.090714,167.479584 159.183563,167.312454 159.864197,167.122223 
	C163.608200,165.383591 166.826172,163.702362 169.984344,162.358856 
	C168.292038,165.145828 166.659515,167.595078 165.013596,170.022095 
	C165.000198,169.999832 165.045547,170.025314 164.695709,169.979462 
	C163.905914,170.638123 163.465958,171.342636 163.014496,172.022507 
	C163.002975,171.997879 163.050583,172.024139 162.705002,172.008789 
	C160.927307,174.382782 159.495178,176.772141 157.910156,179.473206 
	C150.721451,193.222565 147.464981,207.082077 153.062515,222.236084 
	C153.370193,223.057999 153.668015,223.572739 154.003922,224.266953 
	C154.041992,224.446442 154.082047,224.811203 154.061615,225.208008 
	C155.059799,228.709961 156.078430,231.815125 156.820740,235.190582 
	C156.032135,237.365585 155.414139,239.249237 155.029572,241.179367 
	C154.225967,245.212555 153.545517,249.270279 152.814484,253.317932 
	C142.209122,237.974960 139.630112,220.968307 142.328659,202.856766 
	C144.002930,191.619720 148.228912,181.466110 155.662659,172.123199 
	C156.449081,171.505997 156.704407,171.199738 156.959732,170.893494 
	C156.959732,170.893494 156.926422,170.987579 157.161530,170.827454 
	C157.600189,170.103638 157.803757,169.539917 158.007324,168.976212 
	C158.007324,168.976212 158.013336,169.010834 158.275467,168.887558 
	C158.711594,168.403183 158.885590,168.042099 159.059586,167.681000 
z"/>
<path fill="#FA32E6" opacity="1.000000" stroke="none" 
	d="
M313.120117,205.236176 
	C317.832428,205.722672 322.665436,207.111801 327.231049,206.501297 
	C335.824097,205.352325 339.500153,198.603439 338.606110,187.672272 
	C341.413086,189.369156 342.403473,194.265213 340.130920,198.667404 
	C334.769104,209.053818 325.277069,217.955658 311.220337,214.099976 
	C310.750397,213.971054 310.227875,214.033813 308.967896,213.944733 
	C305.760193,212.631348 303.314514,211.380432 300.580994,209.961700 
	C290.879883,201.154633 281.466522,192.515381 272.041077,183.479980 
	C273.005920,180.393021 273.982880,177.702225 274.959808,175.011444 
	C275.160278,175.061615 275.360779,175.111771 275.967896,175.519028 
	C277.874542,177.211182 279.374603,178.546219 281.029358,180.168930 
	C282.656982,181.993362 284.129913,183.530106 285.706665,185.400757 
	C287.537201,187.826187 289.263885,189.917709 291.150696,192.267242 
	C292.131409,193.082840 292.952026,193.640457 293.956970,194.480286 
	C299.479187,200.044785 305.844421,203.465378 313.120117,205.236176 
z"/>
<path fill="#FA32E6" opacity="1.000000" stroke="none" 
	d="
M231.988586,278.967682 
	C219.563385,283.935181 206.803101,284.832672 193.372925,281.557251 
	C193.701813,276.115997 194.403030,271.233734 195.499573,266.472229 
	C198.572800,267.147491 201.250717,267.702057 204.282867,268.476837 
	C210.458038,268.541382 216.279007,268.385712 222.493073,268.222137 
	C225.901337,267.332458 228.916504,266.450745 232.057159,265.942993 
	C232.117966,270.533875 232.053268,274.750763 231.988586,278.967682 
z"/>
<path fill="#8507CD" opacity="1.000000" stroke="none" 
	d="
M272.053162,183.876144 
	C281.466522,192.515381 290.879883,201.154633 300.619995,210.359543 
	C301.171478,214.574585 301.510193,217.994843 305.538879,219.902267 
	C307.294922,220.733673 308.512177,222.703064 309.974091,224.155640 
	C308.604370,225.500168 307.234650,226.844666 305.864929,228.189178 
	C299.797516,225.088470 293.730133,221.987747 287.800842,218.389343 
	C290.211639,213.297546 288.924042,210.105453 284.923126,206.808853 
	C277.033783,200.308350 268.529938,193.894638 269.296936,182.040955 
	C270.401642,182.734955 271.227417,183.305557 272.053162,183.876144 
z"/>
<path fill="#7508B7" opacity="1.000000" stroke="none" 
	d="
M269.017975,181.917526 
	C268.529938,193.894638 277.033783,200.308350 284.923126,206.808853 
	C288.924042,210.105453 290.211639,213.297546 287.550293,218.137314 
	C285.631744,217.572891 284.101868,216.762802 282.096161,215.581573 
	C276.871887,211.435440 272.123474,207.660446 267.175598,203.622009 
	C265.938690,202.285721 264.901306,201.212860 263.900024,199.711182 
	C262.795502,192.324783 263.339325,184.717102 255.920242,180.315445 
	C254.291000,179.348846 253.197815,177.478699 251.892120,175.592529 
	C251.891876,173.163467 251.857285,171.166534 252.156158,169.102371 
	C252.942551,169.010818 253.395477,168.986496 253.906937,169.022949 
	C253.965485,169.083725 254.107819,169.167877 254.177124,169.332596 
	C254.399704,169.697617 254.601669,169.812119 254.928650,169.912476 
	C255.004959,169.984116 255.183319,170.093735 255.307800,170.309845 
	C255.882553,170.735092 256.332794,170.944199 256.929474,171.361145 
	C257.377594,171.709808 257.679291,171.850662 258.174255,172.262695 
	C261.917694,175.661774 265.467834,178.789642 269.017975,181.917526 
z"/>
<path fill="#CC34E8" opacity="1.000000" stroke="none" 
	d="
M259.007965,259.017517 
	C253.543030,264.167206 248.078094,269.316895 242.298660,274.131165 
	C241.987015,268.806396 241.989868,263.817047 242.148346,258.549316 
	C243.539383,256.506775 244.774796,254.742630 246.007019,252.996017 
	C246.003845,253.013550 245.967911,253.008453 246.290466,252.995667 
	C247.402466,252.318253 248.191925,251.653656 249.186035,250.863281 
	C249.646469,250.534500 249.843445,250.285019 250.078796,249.935181 
	C250.175980,249.881241 250.195648,249.639618 250.195648,249.639618 
	C250.195648,249.639618 250.013046,250.019638 249.797852,250.133362 
	C249.308167,250.442474 249.118393,250.700256 248.697388,251.047485 
	C247.607681,251.406570 246.833969,251.738586 245.907776,251.739883 
	C244.805222,249.914764 243.855164,248.420334 243.080688,246.640427 
	C244.899704,244.589874 246.543137,242.824829 248.508408,240.989136 
	C250.190689,239.785706 251.720673,238.802414 252.877808,237.490311 
	C255.645615,234.351776 258.237823,231.058395 260.930115,228.286438 
	C260.750000,231.358688 260.500946,233.969574 260.339020,236.585846 
	C259.876373,244.061890 259.449127,251.540131 259.007965,259.017517 
M251.527023,247.518250 
	C251.527023,247.518250 251.492340,247.536697 251.527023,247.518250 
z"/>
<path fill="#F3F3F5" opacity="1.000000" stroke="none" 
	d="
M257.312622,307.219971 
	C260.982300,311.891418 264.258881,316.516693 267.535461,321.141968 
	C267.970215,321.021820 268.404938,320.901642 268.839661,320.781494 
	C268.061432,316.449158 267.283173,312.116852 266.451691,307.488098 
	C269.487122,307.488098 272.388428,307.488098 275.085999,307.488098 
	C274.528717,315.577881 273.972870,323.647583 273.391357,332.089081 
	C263.940582,332.628601 264.666870,322.269470 258.458954,318.361084 
	C258.347443,320.868317 257.887360,323.215698 258.249969,325.428223 
	C258.577881,327.429077 259.804352,329.282654 260.880524,331.769409 
	C257.037537,331.769409 254.143478,331.769409 250.433502,331.769409 
	C253.843033,323.716705 253.934280,315.715851 250.290268,307.173767 
	C253.083038,307.173767 255.001297,307.173767 257.312622,307.219971 
z"/>
<path fill="#F3F3F5" opacity="1.000000" stroke="none" 
	d="
M182.066376,317.196167 
	C182.066376,322.311218 182.066376,326.947540 182.066376,332.022308 
	C172.084274,332.624207 172.982056,322.205902 166.071335,317.929779 
	C166.892578,323.009949 167.582153,327.275574 168.303787,331.739563 
	C165.365570,331.739563 162.451202,331.739563 158.770721,331.739563 
	C161.750473,323.732208 162.307846,315.750580 158.599350,307.778595 
	C163.828445,306.350006 167.380081,306.959991 169.671814,311.912079 
	C171.229935,315.278992 173.610748,318.265167 175.623672,321.421600 
	C176.143555,321.255615 176.663452,321.089630 177.183350,320.923645 
	C176.423248,316.475220 175.663147,312.026794 174.868439,307.375854 
	C177.906281,307.375854 180.663223,307.375854 184.140732,307.375854 
	C183.418457,310.628510 182.742416,313.672974 182.066376,317.196167 
z"/>
<path fill="#A836E7" opacity="1.000000" stroke="none" 
	d="
M259.301666,258.853546 
	C259.449127,251.540131 259.876373,244.061890 260.339020,236.585846 
	C260.500946,233.969574 260.750000,231.358688 260.959656,227.934692 
	C263.697784,221.721191 266.435516,216.318329 269.471771,211.079529 
	C271.918793,216.508820 274.067261,221.774048 276.215729,227.039276 
	C272.948944,234.164459 269.868439,241.383682 266.338867,248.376221 
	C264.499481,252.020187 261.868683,255.264664 259.301666,258.853546 
z"/>
<path fill="#BC04D3" opacity="1.000000" stroke="none" 
	d="
M306.118286,228.470337 
	C307.234650,226.844666 308.604370,225.500168 309.974091,224.155640 
	C308.512177,222.703064 307.294922,220.733673 305.538879,219.902267 
	C301.510193,217.994843 301.171478,214.574585 300.907806,210.527344 
	C303.314514,211.380432 305.760193,212.631348 308.535278,213.952728 
	C314.458862,217.791656 320.694763,217.656586 326.875488,216.494965 
	C329.861359,215.933792 331.153656,216.752914 331.983185,219.406448 
	C332.894165,222.320465 333.994171,225.175369 335.019196,228.449707 
	C327.360504,231.941223 319.537476,231.322845 311.679688,229.821350 
	C309.906921,229.482605 308.140808,229.109039 306.118286,228.470337 
z"/>
<path fill="#F3F3F5" opacity="1.000000" stroke="none" 
	d="
M364.476135,307.162964 
	C368.916290,307.696686 367.586395,310.028351 366.240601,311.881226 
	C364.331787,314.509277 361.900238,316.759766 360.013580,319.401245 
	C358.026581,322.183258 355.747559,325.178406 360.472748,327.882965 
	C361.181824,328.288788 361.008759,330.235779 361.300934,331.770142 
	C357.473145,331.770142 354.067841,331.770142 350.023224,331.770142 
	C350.190338,330.418488 349.877838,328.347717 350.597473,327.886139 
	C354.705292,325.251312 353.055786,322.315033 351.165222,319.616119 
	C349.230652,316.854370 346.658905,314.541046 344.699707,311.793549 
	C343.916718,310.695496 344.026428,308.960968 343.682861,307.287750 
	C347.471466,307.287750 350.578705,307.287750 353.723267,307.287750 
	C353.979797,310.533844 354.227692,313.671173 354.475616,316.808502 
	C355.292267,316.774658 356.108948,316.740845 356.925598,316.707001 
	C356.925598,313.646667 356.925598,310.586334 356.925598,307.162476 
	C359.496613,307.162476 361.780823,307.162476 364.476135,307.162964 
z"/>
<path fill="#7C39EC" opacity="1.000000" stroke="none" 
	d="
M152.912720,253.636414 
	C153.545517,249.270279 154.225967,245.212555 155.029572,241.179367 
	C155.414139,239.249237 156.032135,237.365585 157.055923,235.427551 
	C162.069229,241.242523 166.571030,247.090851 170.740891,253.142654 
	C169.263046,258.585602 168.117157,263.825073 166.971252,269.064545 
	C162.317825,264.027985 157.664398,258.991425 152.912720,253.636414 
z"/>
<path fill="#EDEDEF" opacity="1.000000" stroke="none" 
	d="
M205.010193,316.558136 
	C207.788177,317.350525 211.020920,317.074707 209.409897,321.828674 
	C208.139252,322.042694 206.602859,322.301514 204.209427,322.704681 
	C205.378876,325.779663 206.419052,328.514740 207.645752,331.740295 
	C203.761429,331.740295 200.504288,331.740295 196.161697,331.740295 
	C200.092804,323.814087 200.385651,315.768921 195.807007,307.464172 
	C202.926224,307.464172 209.000107,307.464172 215.467270,307.464172 
	C215.467270,309.984314 215.467270,312.548248 215.467270,315.498383 
	C213.416061,315.648346 210.998199,317.407806 209.884644,313.463257 
	C209.698166,312.802704 207.136810,312.141235 206.167450,312.578033 
	C205.340240,312.950714 205.223907,314.901123 205.010193,316.558136 
z"/>
<path fill="#EDEDEF" opacity="1.000000" stroke="none" 
	d="
M326.386993,330.931946 
	C322.968658,331.661469 319.602142,331.978729 316.457886,332.275024 
	C317.230011,325.231781 317.948486,318.678192 318.758636,311.288391 
	C315.316498,313.284882 313.234772,314.492310 310.302277,316.193207 
	C310.302277,312.413635 310.302277,310.023773 310.302277,307.387421 
	C317.659821,307.387421 324.879303,307.387421 332.395752,307.387421 
	C332.395752,309.858795 332.395752,312.101593 332.395752,315.856445 
	C329.305908,314.347961 326.888428,313.167755 324.238953,311.874268 
	C323.751160,318.330231 322.922577,324.649414 326.386993,330.931946 
z"/>
<path fill="#0B0FE8" opacity="1.000000" stroke="none" 
	d="
M280.874634,179.881256 
	C279.374603,178.546219 277.874542,177.211182 276.267303,175.599304 
	C283.862610,165.641113 293.304474,158.381332 304.955841,153.936523 
	C317.538666,149.136368 329.533508,149.605087 341.132996,157.344818 
	C341.245911,157.715164 341.006775,157.989975 340.661621,157.954803 
	C339.205475,157.629868 338.094513,157.340118 336.610291,156.983109 
	C334.526337,156.549118 332.815613,156.182373 330.738892,155.649200 
	C329.053131,155.270874 327.733459,155.059006 326.135986,154.630310 
	C314.834259,152.529724 304.954834,155.210403 296.198578,162.038010 
	C294.889801,163.058548 294.030121,164.655014 292.981689,165.994156 
	C293.000641,166.003265 292.987244,165.963364 292.680725,165.950836 
	C292.235626,166.287048 292.097076,166.635788 291.980530,166.993073 
	C292.002533,167.001602 291.986908,166.957031 291.643250,166.908478 
	C290.848999,167.570145 290.398407,168.280365 289.974335,168.997391 
	C290.000854,169.004196 289.989044,168.950729 289.704956,168.981186 
	C289.263702,169.339417 289.106567,169.667191 288.976807,170.001740 
	C289.004181,170.008530 289.002502,169.952148 288.689453,170.025620 
	C288.094177,170.420319 287.811920,170.741562 287.394989,171.342590 
	C285.131744,174.375351 283.003204,177.128311 280.874634,179.881256 
z"/>
<path fill="#3B0BE5" opacity="1.000000" stroke="none" 
	d="
M356.643646,202.106628 
	C356.646393,201.593887 356.649139,201.081161 356.587585,199.852890 
	C354.684265,194.472870 352.845245,189.808365 351.269653,184.924530 
	C350.319702,181.863113 349.106262,179.021057 347.918945,175.768250 
	C346.598450,170.261292 345.251862,165.165085 343.985809,159.998108 
	C344.066376,159.927307 344.223145,159.780945 344.223145,159.780945 
	C356.792114,169.101974 362.528015,188.429703 357.215485,204.376038 
	C356.839142,203.537659 356.741394,202.822144 356.643646,202.106628 
z"/>
<path fill="#0B0FE8" opacity="1.000000" stroke="none" 
	d="
M170.044144,162.021133 
	C166.826172,163.702362 163.608200,165.383591 159.994003,167.055786 
	C169.683960,154.897369 182.592102,147.679932 198.509857,145.346176 
	C198.895584,146.071991 198.875992,146.465652 198.537231,146.930359 
	C197.173615,147.390228 196.129166,147.779068 195.393860,148.052811 
	C196.285294,149.430679 197.096298,150.684219 197.536697,152.054245 
	C189.428192,154.769043 181.690292,157.367371 173.753357,160.010742 
	C173.279800,160.147827 173.089294,160.328415 172.873550,160.645966 
	C172.764313,160.694397 172.585983,160.853516 172.418564,160.868286 
	C172.251144,160.883057 171.959579,161.050323 171.694855,161.119431 
	C170.968140,161.466064 170.506134,161.743607 170.044144,162.021133 
z"/>
<path fill="#F3F3F5" opacity="1.000000" stroke="none" 
	d="
M296.360413,325.747864 
	C297.470947,327.761322 298.550049,329.303131 300.237244,331.713745 
	C295.493286,331.713745 292.088501,331.713745 288.642944,331.713745 
	C289.397400,327.653442 290.727448,323.666077 290.712616,319.683716 
	C290.697845,315.705292 289.337067,311.731873 288.508820,307.459412 
	C291.810425,307.459412 295.062988,307.459412 298.028107,307.459412 
	C297.461090,313.405426 296.895081,319.340790 296.360413,325.747864 
z"/>
<path fill="#EDEDEF" opacity="1.000000" stroke="none" 
	d="
M138.183960,313.590942 
	C137.231888,311.466644 136.292892,309.774292 134.941040,307.337860 
	C139.385971,307.337860 142.499115,307.337860 146.678268,307.337860 
	C143.258850,315.452118 142.228531,323.596497 147.051300,331.847321 
	C142.772614,331.847321 139.507812,331.847321 136.622696,331.847321 
	C137.153275,325.840240 137.675171,319.931580 138.183960,313.590942 
z"/>
<path fill="#EDEDEF" opacity="1.000000" stroke="none" 
	d="
M238.164764,309.893799 
	C234.923004,314.157928 234.756958,323.142517 237.628357,327.836029 
	C238.235123,328.827850 238.074951,330.288849 238.346268,332.036987 
	C236.302155,332.036987 234.700989,332.036957 233.099823,332.036957 
	C231.454163,332.036957 229.808517,332.036987 227.149048,332.036987 
	C231.097672,323.726562 231.259048,315.621246 227.043686,307.146393 
	C230.721680,307.146393 233.358261,306.961884 235.940857,307.254242 
	C236.759399,307.346924 237.433899,308.711884 238.164764,309.893799 
z"/>
<path fill="#A836E7" opacity="1.000000" stroke="none" 
	d="
M167.140686,269.350342 
	C168.117157,263.825073 169.263046,258.585602 171.029251,253.309952 
	C174.513565,255.450928 177.377579,257.628082 179.952515,260.081970 
	C179.107285,263.403046 178.701889,266.485779 177.941315,269.478241 
	C177.443588,271.436493 176.431427,273.264008 175.649689,275.150085 
	C172.869827,273.312103 170.089966,271.474091 167.140686,269.350342 
z"/>
<path fill="#A836E7" opacity="1.000000" stroke="none" 
	d="
M253.848389,168.962173 
	C253.395477,168.986496 252.942551,169.010818 251.876694,168.921295 
	C247.373718,166.288300 243.483688,163.769150 239.516479,160.985016 
	C238.929031,160.554016 238.418762,160.388016 237.845093,160.290405 
	C237.781708,160.358795 237.595230,160.362411 237.625946,160.060089 
	C237.678375,159.556335 237.700089,159.354919 237.940735,158.960052 
	C235.433701,157.161743 232.707748,155.556915 229.977783,153.537781 
	C229.946274,151.740067 229.918777,150.356644 230.288910,148.982666 
	C233.764877,149.662521 236.843231,150.332932 239.921585,151.003342 
	C243.666916,153.040634 247.412247,155.077927 250.861664,157.665939 
	C247.970596,160.715576 248.692627,163.055222 250.852768,165.387299 
	C251.907944,166.526474 252.853317,167.767334 253.848389,168.962173 
z"/>
<path fill="#E634E7" opacity="1.000000" stroke="none" 
	d="
M269.296936,182.040955 
	C265.467834,178.789642 261.917694,175.661774 258.186188,171.844849 
	C258.348907,168.069824 258.693024,164.983841 259.037109,161.897842 
	C262.844696,164.771179 266.652313,167.644531 270.772064,170.718445 
	C271.084229,170.919022 271.032715,170.904083 271.032715,170.904083 
	C272.244720,172.058289 273.456757,173.212494 274.814270,174.689072 
	C273.982880,177.702225 273.005920,180.393021 272.041077,183.479980 
	C271.227417,183.305557 270.401642,182.734955 269.296936,182.040955 
z"/>
<path fill="#E634E7" opacity="1.000000" stroke="none" 
	d="
M195.104263,266.351501 
	C194.403030,271.233734 193.701813,276.115997 193.002594,281.426270 
	C189.864029,281.038422 186.723465,280.222473 183.309052,278.745911 
	C184.039963,273.049835 185.044724,268.014374 186.344666,263.090576 
	C187.418243,263.402740 188.196671,263.603241 189.271118,263.981079 
	C191.412842,264.889435 193.258545,265.620453 195.104263,266.351501 
z"/>
<path fill="#E634E7" opacity="1.000000" stroke="none" 
	d="
M241.992722,258.827728 
	C241.989868,263.817047 241.987015,268.806396 241.982101,274.232361 
	C238.897919,276.108612 235.815796,277.548187 232.361115,278.977722 
	C232.053268,274.750763 232.117966,270.533875 232.272644,265.719238 
	C235.572647,263.023590 238.782684,260.925659 241.992722,258.827728 
z"/>
<path fill="#450AA4" opacity="1.000000" stroke="none" 
	d="
M276.542053,226.972076 
	C274.067261,221.774048 271.918793,216.508820 269.320435,210.811401 
	C268.241394,209.603348 267.612244,208.827469 266.981140,207.632111 
	C267.111176,206.103577 267.243134,204.994507 267.375061,203.885468 
	C272.123474,207.660446 276.871887,211.435440 281.765320,215.489960 
	C280.229706,219.481293 278.549042,223.193085 276.542053,226.972076 
z"/>
<path fill="#CC34E8" opacity="1.000000" stroke="none" 
	d="
M186.049484,262.978943 
	C185.044724,268.014374 184.039963,273.049835 183.036270,278.504242 
	C180.720413,277.846771 178.403488,276.770325 175.868118,275.421997 
	C176.431427,273.264008 177.443588,271.436493 177.941315,269.478241 
	C178.701889,266.485779 179.107285,263.403046 180.270782,260.178711 
	C182.601913,260.992188 184.325699,261.985565 186.049484,262.978943 
z"/>
<path fill="#CC34E8" opacity="1.000000" stroke="none" 
	d="
M258.879578,161.592392 
	C258.693024,164.983841 258.348907,168.069824 257.992920,171.573669 
	C257.679291,171.850662 257.377594,171.709808 256.828369,171.118225 
	C256.114990,170.476227 255.649155,170.284973 255.183319,170.093735 
	C255.183319,170.093735 255.004959,169.984116 254.848846,169.759003 
	C254.542252,169.340912 254.347275,169.218918 254.107819,169.167877 
	C254.107819,169.167877 253.965485,169.083725 253.906937,169.022949 
	C252.853317,167.767334 251.907944,166.526474 250.852768,165.387299 
	C248.692627,163.055222 247.970596,160.715576 250.894592,158.023361 
	C253.722961,158.982346 256.222504,160.134644 258.879578,161.592392 
z"/>
<path fill="#450AA4" opacity="1.000000" stroke="none" 
	d="
M271.456299,170.774582 
	C271.032715,170.904083 271.084229,170.919022 271.081146,170.935776 
	C276.503021,163.474884 283.695862,158.355148 292.623871,155.466660 
	C286.858582,160.426041 281.138184,165.439865 275.271210,170.275879 
	C274.537689,170.880478 273.029266,170.544983 271.456299,170.774582 
z"/>
<path fill="#8507CD" opacity="1.000000" stroke="none" 
	d="
M329.082672,234.413727 
	C335.875153,231.812256 342.667633,229.210785 349.113434,226.742081 
	C345.963531,232.110962 340.114624,235.201889 333.291229,237.334274 
	C331.592804,236.170990 330.337738,235.292358 329.082672,234.413727 
z"/>
<path fill="#450AA4" opacity="1.000000" stroke="none" 
	d="
M328.045135,238.703995 
	C318.959259,240.935410 311.214600,237.499619 303.768799,232.212906 
	C305.363129,232.451157 306.964508,232.650696 308.549866,232.938400 
	C310.184082,233.234970 311.802734,233.617416 313.888733,234.424103 
	C317.242340,235.589890 320.149567,236.241180 323.023010,237.017731 
	C324.724670,237.477600 326.372894,238.135269 328.045135,238.703995 
z"/>
<path fill="#6608E7" opacity="1.000000" stroke="none" 
	d="
M239.692154,150.742249 
	C236.843231,150.332932 233.764877,149.662521 229.909500,148.905975 
	C225.068970,147.872833 221.005478,146.925842 216.950836,145.681717 
	C216.965042,145.186478 216.970413,144.988358 216.975769,144.790253 
	C224.471420,146.687225 231.967072,148.584198 239.692154,150.742249 
z"/>
<path fill="#7508B7" opacity="1.000000" stroke="none" 
	d="
M328.411591,238.733368 
	C326.372894,238.135269 324.724670,237.477600 323.023010,237.017731 
	C320.149567,236.241180 317.242340,235.589890 314.280273,234.542297 
	C318.892456,234.243332 323.573608,234.288010 328.668732,234.373215 
	C330.337738,235.292358 331.592804,236.170990 332.944611,237.347076 
	C331.620239,238.017273 330.199158,238.389999 328.411591,238.733368 
z"/>
<path fill="#3B0BE5" opacity="1.000000" stroke="none" 
	d="
M216.630341,144.577225 
	C216.970413,144.988358 216.965042,145.186478 216.539841,145.686890 
	C214.740601,145.989258 213.361221,145.989319 211.538666,145.981201 
	C207.097260,146.333069 203.099030,146.693115 199.038025,147.006775 
	C198.975266,146.960403 198.856384,146.859314 198.856384,146.859314 
	C198.875992,146.465652 198.895584,146.071991 198.910400,145.382950 
	C204.698715,144.846451 210.491821,144.605331 216.630341,144.577225 
z"/>
<path fill="#890A8C" opacity="1.000000" stroke="none" 
	d="
M356.499023,202.380997 
	C356.741394,202.822144 356.839142,203.537659 356.928589,204.618607 
	C356.920258,204.984039 356.602905,205.152542 356.423920,205.165756 
	C356.281433,204.337769 356.317963,203.496567 356.499023,202.380997 
z"/>
<path fill="#0B0FE8" opacity="1.000000" stroke="none" 
	d="
M341.375031,157.586685 
	C341.951416,157.747559 342.398682,158.036911 342.938721,158.650208 
	C343.031494,158.974167 342.978241,159.153580 342.692139,159.073181 
	C341.939606,158.658524 341.473175,158.324249 341.006775,157.989975 
	C341.006775,157.989975 341.245911,157.715164 341.375031,157.586685 
z"/>
<path fill="#0B0FE8" opacity="1.000000" stroke="none" 
	d="
M157.722366,169.108551 
	C157.803757,169.539917 157.600189,170.103638 157.115677,170.807755 
	C157.035629,170.379074 157.236526,169.809982 157.722366,169.108551 
z"/>
<path fill="#450AA4" opacity="1.000000" stroke="none" 
	d="
M301.508972,231.489746 
	C301.534180,231.487411 301.483795,231.492081 301.508972,231.489746 
z"/>
<path fill="#0B0FE8" opacity="1.000000" stroke="none" 
	d="
M156.647949,170.939117 
	C156.704407,171.199738 156.449081,171.505997 155.900864,171.912186 
	C155.850693,171.669678 156.093430,171.327209 156.647949,170.939117 
z"/>
<path fill="#3B0BE5" opacity="1.000000" stroke="none" 
	d="
M343.067230,158.887695 
	C343.391083,158.980042 343.679199,159.158890 344.095215,159.559326 
	C344.223145,159.780945 344.066376,159.927307 343.803528,159.874695 
	C343.305511,159.639404 343.118011,159.416565 342.978241,159.153580 
	C342.978241,159.153580 343.031494,158.974167 343.067230,158.887695 
z"/>
<path fill="#0B0FE8" opacity="1.000000" stroke="none" 
	d="
M158.804016,167.840332 
	C158.885590,168.042099 158.711594,168.403183 158.258057,168.889847 
	C158.168472,168.676834 158.358444,168.338257 158.804016,167.840332 
z"/>
<path fill="#110D2A" opacity="1.000000" stroke="none" 
	d="
M313.562592,205.165344 
	C305.844421,203.465378 299.479187,200.044785 294.113037,194.153687 
	C296.439301,190.050430 298.793854,186.555939 301.484894,183.019012 
	C303.960602,181.369476 306.099792,179.762375 308.551331,178.085327 
	C309.934235,177.356506 311.004730,176.697647 312.419373,176.026932 
	C313.842651,175.660324 314.921753,175.305588 316.451233,174.983154 
	C319.596832,175.008682 322.292053,175.001907 325.154907,175.282684 
	C327.572845,177.714722 329.823151,179.859207 332.073425,182.003693 
	C332.441864,183.257889 332.811798,184.511642 333.178528,185.766342 
	C336.249542,196.273331 330.282562,204.714996 319.442627,205.151794 
	C317.633789,205.224670 315.817780,205.118149 313.562592,205.165344 
z"/>
<path fill="#890A8C" opacity="1.000000" stroke="none" 
	d="
M332.422760,182.053223 
	C329.823151,179.859207 327.572845,177.714722 325.584534,175.217377 
	C328.892334,175.196136 331.938110,175.527756 335.330414,175.989349 
	C337.093414,176.537109 338.509949,176.954941 340.150604,177.577881 
	C341.502380,178.266464 342.629974,178.749908 343.968628,179.491394 
	C346.455170,181.547562 348.730682,183.345718 351.006226,185.143875 
	C352.845245,189.808365 354.684265,194.472870 356.551392,199.469879 
	C356.276062,199.687103 355.762665,199.640488 355.699249,199.446671 
	C352.068298,188.349014 343.687103,183.556107 332.422760,182.053223 
z"/>
<path fill="#0A0EAB" opacity="1.000000" stroke="none" 
	d="
M154.082047,224.811203 
	C154.082047,224.811203 154.041992,224.446442 153.991409,223.959564 
	C153.644775,222.958069 153.348724,222.443481 153.052673,221.928879 
	C147.464981,207.082077 150.721451,193.222565 158.208145,179.307785 
	C160.122894,176.561798 161.586731,174.292969 163.050583,172.024139 
	C163.050583,172.024139 163.002975,171.997879 163.298447,171.929047 
	C164.077789,171.248596 164.561676,170.636963 165.045563,170.025330 
	C165.045547,170.025314 165.000198,169.999832 165.328339,169.900040 
	C167.304504,168.415268 168.893173,166.951508 170.609924,165.657730 
	C184.463135,155.217773 200.015045,152.114258 216.947922,155.457947 
	C216.967072,157.641998 216.978180,159.389862 217.009094,161.512466 
	C217.266235,163.317184 217.503571,164.747177 218.034409,167.945511 
	C213.105743,166.320129 209.095169,165.094559 205.161972,163.657318 
	C203.340546,162.991760 201.624664,161.068832 199.938080,161.158966 
	C188.472900,161.771805 178.832703,166.325043 171.701233,175.545670 
	C165.881775,183.069962 162.822281,191.767700 161.190155,201.037811 
	C159.883194,208.460968 161.313889,218.123459 164.360413,222.136261 
	C164.360413,219.840988 164.360413,217.596893 164.360413,215.352783 
	C165.608826,217.487503 166.046234,219.841553 167.157272,221.816650 
	C170.353119,227.497894 172.672165,234.084442 180.367279,236.115158 
	C187.095139,242.352142 194.757416,246.220642 202.747803,248.881653 
	C201.255249,249.085266 200.161957,249.186600 198.646027,249.200455 
	C193.833755,248.342697 189.444168,247.572449 184.783234,246.576691 
	C171.957199,242.577835 161.359222,236.040192 154.082047,224.811203 
z"/>
<path fill="#3B0BE5" opacity="1.000000" stroke="none" 
	d="
M154.061615,225.208008 
	C161.359222,236.040192 171.957199,242.577835 184.764954,247.011627 
	C186.337036,253.049301 187.656067,258.426514 188.975098,263.803741 
	C188.196671,263.603241 187.418243,263.402740 186.344666,263.090576 
	C184.325699,261.985565 182.601913,260.992188 180.559845,259.902039 
	C177.377579,257.628082 174.513565,255.450928 171.361191,253.106476 
	C166.571030,247.090851 162.069229,241.242523 157.332245,235.157242 
	C156.078430,231.815125 155.059799,228.709961 154.061615,225.208008 
z"/>
<path fill="#8579E4" opacity="1.000000" stroke="none" 
	d="
M216.939880,155.021759 
	C200.015045,152.114258 184.463135,155.217773 170.609924,165.657730 
	C168.893173,166.951508 167.304504,168.415268 165.341736,169.922302 
	C166.659515,167.595078 168.292038,165.145828 169.984344,162.358856 
	C170.506134,161.743607 170.968140,161.466064 171.784637,161.246414 
	C172.139160,161.304291 172.535019,161.271393 172.535019,161.271393 
	C172.535019,161.271393 172.585983,160.853516 172.585983,160.853516 
	C172.585983,160.853516 172.764313,160.694397 173.081207,160.631744 
	C173.675644,160.453323 173.860413,160.252197 173.952393,159.965714 
	C181.690292,157.367371 189.428192,154.769043 198.012863,152.100937 
	C204.542572,152.102341 210.225525,152.173523 216.213562,152.470062 
	C223.586380,154.848129 230.654083,157.000809 237.721786,159.153503 
	C237.700089,159.354919 237.678375,159.556335 237.272095,159.985138 
	C230.238312,158.482254 223.589096,156.751999 216.939880,155.021759 
z"/>
<path fill="#8579E4" opacity="1.000000" stroke="none" 
	d="
M162.705002,172.008789 
	C161.586731,174.292969 160.122894,176.561798 158.361053,178.996063 
	C159.495178,176.772141 160.927307,174.382782 162.705002,172.008789 
z"/>
<path fill="#8579E4" opacity="1.000000" stroke="none" 
	d="
M164.695724,169.979462 
	C164.561676,170.636963 164.077789,171.248596 163.309967,171.953674 
	C163.465958,171.342636 163.905914,170.638123 164.695724,169.979462 
z"/>
<path fill="#3B0BE5" opacity="1.000000" stroke="none" 
	d="
M153.062515,222.236084 
	C153.348724,222.443481 153.644775,222.958069 153.953339,223.780060 
	C153.668015,223.572739 153.370193,223.057999 153.062515,222.236084 
z"/>
<path fill="#EC01DB" opacity="1.000000" stroke="none" 
	d="
M281.029358,180.168945 
	C283.003204,177.128311 285.131744,174.375351 287.720734,171.277771 
	C288.454956,170.606140 288.728729,170.279144 289.002502,169.952148 
	C289.002502,169.952148 289.004181,170.008530 289.236877,169.930634 
	C289.642731,169.552063 289.815887,169.251404 289.989075,168.950745 
	C289.989044,168.950729 290.000854,169.004196 290.269257,168.914215 
	C291.020752,168.201813 291.503815,167.579422 291.986908,166.957031 
	C291.986908,166.957031 292.002533,167.001602 292.255890,166.950455 
	C292.668579,166.587326 292.827911,166.275345 292.987244,165.963364 
	C292.987244,165.963364 293.000641,166.003265 293.331207,165.979828 
	C297.747131,163.596802 301.832489,161.237213 306.178650,159.128098 
	C307.251984,161.881668 308.064484,164.384766 308.673035,166.907227 
	C308.469086,166.926590 308.065216,166.995422 307.738220,167.110458 
	C304.905487,168.745193 302.399719,170.264877 299.597778,171.936188 
	C297.186951,173.875885 295.072296,175.663940 292.665833,177.662872 
	C290.116943,180.271454 287.859894,182.669159 285.602844,185.066864 
	C284.129913,183.530106 282.656982,181.993362 281.029358,180.168945 
z"/>
<path fill="#7C39EC" opacity="1.000000" stroke="none" 
	d="
M292.957642,177.451996 
	C295.072296,175.663940 297.186951,173.875885 299.871674,172.251801 
	C300.677277,175.964355 300.912811,179.512894 301.148376,183.061447 
	C298.793854,186.555939 296.439301,190.050430 293.928680,193.871490 
	C292.952026,193.640457 292.131409,193.082840 291.417419,191.990128 
	C292.001892,186.787354 292.479767,182.119675 292.957642,177.451996 
z"/>
<path fill="#4A3CED" opacity="1.000000" stroke="none" 
	d="
M292.665833,177.662872 
	C292.479767,182.119675 292.001892,186.787354 291.257324,191.732147 
	C289.263885,189.917709 287.537201,187.826187 285.706665,185.400757 
	C287.859894,182.669159 290.116943,180.271454 292.665833,177.662872 
z"/>
<path fill="#6608E7" opacity="1.000000" stroke="none" 
	d="
M199.068695,249.287933 
	C200.161957,249.186600 201.255249,249.085266 202.760208,248.966248 
	C203.171890,248.948578 203.028595,249.038284 203.259674,249.286743 
	C204.978867,249.418777 206.466949,249.302338 208.374420,249.114288 
	C210.209229,249.082687 211.624649,249.122711 213.284042,249.354584 
	C214.344772,249.686096 215.161514,249.825806 215.987915,250.366333 
	C216.682587,253.553055 217.367615,256.338959 217.770050,259.343567 
	C215.055557,260.389557 212.623688,261.216858 210.191803,262.044159 
	C210.247345,262.244904 210.302887,262.445679 210.358429,262.646454 
	C213.901215,262.646454 217.444000,262.646454 221.029861,263.047852 
	C221.415283,265.042847 221.757629,266.636444 222.099960,268.230072 
	C216.279007,268.385712 210.458038,268.541382 204.301208,268.053528 
	C202.333115,261.369324 200.700897,255.328629 199.068695,249.287933 
z"/>
<path fill="#5209E7" opacity="1.000000" stroke="none" 
	d="
M198.646027,249.200439 
	C200.700897,255.328629 202.333115,261.369324 203.946991,267.833344 
	C201.250717,267.702057 198.572800,267.147491 195.499573,266.472229 
	C193.258545,265.620453 191.412842,264.889435 189.271118,263.981079 
	C187.656067,258.426514 186.337036,253.049301 185.036285,247.237137 
	C189.444168,247.572449 193.833755,248.342697 198.646027,249.200439 
z"/>
<path fill="#8508E6" opacity="1.000000" stroke="none" 
	d="
M222.493073,268.222137 
	C221.757629,266.636444 221.415283,265.042847 221.341400,262.859009 
	C226.402939,260.825867 231.196030,259.382965 236.331787,257.863586 
	C239.786362,256.184235 242.898285,254.581360 246.010208,252.978485 
	C244.774796,254.742630 243.539383,256.506775 242.148346,258.549316 
	C238.782684,260.925659 235.572647,263.023590 232.147141,265.345276 
	C228.916504,266.450745 225.901337,267.332458 222.493073,268.222137 
z"/>
<path fill="#450AA4" opacity="1.000000" stroke="none" 
	d="
M251.857788,176.024628 
	C253.197815,177.478699 254.291000,179.348846 255.920242,180.315445 
	C263.339325,184.717102 262.795502,192.324783 263.588684,199.683594 
	C262.823334,200.058609 262.405457,200.032394 261.869995,199.690491 
	C252.097763,192.311661 242.443146,185.248520 232.841446,177.786667 
	C232.262436,175.825638 232.024261,173.325729 230.929306,172.865875 
	C226.568527,171.034454 226.754990,167.622604 227.377579,164.008728 
	C229.648026,164.591080 231.684036,164.877823 233.390808,165.784409 
	C239.606003,169.085724 245.711151,172.594223 251.857788,176.024628 
z"/>
<path fill="#370DC0" opacity="1.000000" stroke="none" 
	d="
M251.892120,175.592529 
	C245.711151,172.594223 239.606003,169.085724 233.390808,165.784409 
	C231.684036,164.877823 229.648026,164.591080 227.111099,163.768982 
	C223.302490,162.724609 220.145889,161.931168 216.989288,161.137741 
	C216.978180,159.389862 216.967072,157.641998 216.947922,155.457947 
	C223.589096,156.751999 230.238312,158.482254 237.241379,160.287445 
	C237.595230,160.362411 237.781708,160.358795 237.963684,160.525879 
	C238.628326,160.878647 239.110992,161.064331 239.593658,161.250031 
	C243.483688,163.769150 247.373718,166.288300 251.543213,168.988510 
	C251.857285,171.166534 251.891876,173.163467 251.892120,175.592529 
z"/>
<path fill="#0B0D82" opacity="1.000000" stroke="none" 
	d="
M261.987579,200.006195 
	C262.405457,200.032394 262.823334,200.058609 263.552551,200.112411 
	C264.901306,201.212860 265.938690,202.285721 267.175598,203.622009 
	C267.243134,204.994507 267.111176,206.103577 266.764526,207.624832 
	C266.549805,208.037033 266.118134,208.078827 265.804565,207.864166 
	C263.287994,207.027664 261.084930,206.405823 258.933319,205.450073 
	C259.985687,203.412842 260.986633,201.709518 261.987579,200.006195 
z"/>
<path fill="#A836E7" opacity="1.000000" stroke="none" 
	d="
M255.307800,170.309845 
	C255.649155,170.284973 256.114990,170.476227 256.681946,170.910400 
	C256.332794,170.944199 255.882553,170.735092 255.307800,170.309845 
z"/>
<path fill="#A836E7" opacity="1.000000" stroke="none" 
	d="
M254.177124,169.332596 
	C254.347275,169.218918 254.542252,169.340912 254.772552,169.687347 
	C254.601669,169.812119 254.399704,169.697617 254.177124,169.332596 
z"/>
<path fill="#8508E6" opacity="1.000000" stroke="none" 
	d="
M218.052643,259.124847 
	C217.367615,256.338959 216.682587,253.553055 216.345184,250.200363 
	C219.072083,249.400848 221.451355,249.168121 224.260315,248.988174 
	C226.932724,248.608292 229.425140,248.657547 231.370102,247.650009 
	C236.601959,244.939804 241.600052,241.778336 246.800873,239.126190 
	C247.336060,239.990845 247.761322,240.525314 248.186584,241.059784 
	C246.543137,242.824829 244.899704,244.589874 242.784027,246.783875 
	C240.179596,248.697189 238.047379,250.181549 235.572708,251.794632 
	C229.504364,254.323853 223.778503,256.724335 218.052643,259.124847 
z"/>
<path fill="#BC04D3" opacity="1.000000" stroke="none" 
	d="
M248.508423,240.989136 
	C247.761322,240.525314 247.336060,239.990845 247.016174,238.859344 
	C248.732666,236.157761 250.343765,234.053192 251.978943,231.969849 
	C252.003021,231.991058 251.951401,231.958176 252.217377,231.912811 
	C252.641464,231.560776 252.799561,231.254074 252.977203,230.973969 
	C252.996735,231.000549 252.941223,230.964722 253.260864,230.868439 
	C254.373077,229.499069 255.165619,228.225967 255.979996,226.973572 
	C256.001831,226.994278 255.944916,226.975174 256.239868,226.853714 
	C256.697815,226.148575 256.860748,225.564911 257.024139,225.000183 
	C257.024567,225.019119 256.987885,225.028671 257.306915,224.906525 
	C257.744904,224.352905 257.863892,223.921432 258.214844,223.264618 
	C261.003937,218.052460 263.561035,213.065643 266.118134,208.078827 
	C266.118134,208.078827 266.549805,208.037033 266.766449,208.044312 
	C267.612244,208.827469 268.241394,209.603348 269.021881,210.647339 
	C266.435516,216.318329 263.697784,221.721191 260.930481,227.475800 
	C258.237823,231.058395 255.645615,234.351776 252.877808,237.490311 
	C251.720673,238.802414 250.190689,239.785706 248.508423,240.989136 
z"/>
<path fill="#E634E7" opacity="1.000000" stroke="none" 
	d="
M235.915161,251.665894 
	C238.047379,250.181549 240.179596,248.697189 242.608459,247.069366 
	C243.855164,248.420334 244.805222,249.914764 245.875916,251.973297 
	C245.996536,252.537430 245.967911,253.008453 245.967911,253.008453 
	C245.967911,253.008453 246.003845,253.013550 246.007019,252.996002 
	C242.898285,254.581360 239.786362,256.184235 236.334152,257.423584 
	C235.967636,255.262009 235.941391,253.463943 235.915161,251.665894 
z"/>
<path fill="#8508E6" opacity="1.000000" stroke="none" 
	d="
M246.290466,252.995667 
	C245.967911,253.008453 245.996536,252.537430 246.028397,252.304016 
	C246.833969,251.738586 247.607681,251.406570 248.690826,251.038055 
	C249.000275,251.001572 248.981369,250.989044 248.981384,250.989044 
	C248.191925,251.653656 247.402466,252.318253 246.290466,252.995667 
z"/>
<path fill="#8508E6" opacity="1.000000" stroke="none" 
	d="
M249.006821,251.010986 
	C249.118393,250.700256 249.308167,250.442474 249.791367,250.124207 
	C250.000061,250.001343 249.981613,249.989105 249.981613,249.989105 
	C249.843445,250.285019 249.646469,250.534500 249.186035,250.863281 
	C248.981369,250.989044 249.000275,251.001572 249.006821,251.010986 
z"/>
<path fill="#8508E6" opacity="1.000000" stroke="none" 
	d="
M251.509674,247.527466 
	C251.492340,247.536697 251.527023,247.518250 251.509674,247.527466 
z"/>
<path fill="#8508E6" opacity="1.000000" stroke="none" 
	d="
M250.006561,250.010498 
	C250.013046,250.019638 250.195648,249.639618 250.195648,249.639618 
	C250.195648,249.639618 250.175980,249.881241 250.078796,249.935181 
	C249.981613,249.989105 250.000061,250.001343 250.006561,250.010498 
z"/>
<path fill="#8508E6" opacity="1.000000" stroke="none" 
	d="
M326.413757,154.847122 
	C327.733459,155.059006 329.053131,155.270874 330.719269,156.061539 
	C331.682373,159.822632 332.299011,163.004913 332.497589,166.158478 
	C327.776093,165.634384 323.472626,165.139008 319.125519,164.280701 
	C318.329468,161.158890 317.577087,158.400040 317.191345,155.464218 
	C320.509888,155.140549 323.461823,154.993835 326.413757,154.847122 
z"/>
<path fill="#5209E7" opacity="1.000000" stroke="none" 
	d="
M342.692139,159.073181 
	C343.118011,159.416565 343.305511,159.639404 343.722961,159.945480 
	C345.251862,165.165085 346.598450,170.261292 347.677551,175.631866 
	C346.920990,175.667618 346.431946,175.429016 345.667480,175.009094 
	C343.935364,173.540604 342.478668,172.253433 340.885437,170.749954 
	C340.511017,170.288635 340.273132,170.043610 340.028534,169.408890 
	C339.009064,165.029602 337.996307,161.039978 336.983551,157.050369 
	C338.094513,157.340118 339.205475,157.629868 340.661621,157.954803 
	C341.473175,158.324249 341.939606,158.658524 342.692139,159.073181 
z"/>
<path fill="#6608E7" opacity="1.000000" stroke="none" 
	d="
M336.610291,156.983109 
	C337.996307,161.039978 339.009064,165.029602 339.720764,169.338501 
	C338.270905,169.149597 337.122040,168.641403 335.667542,168.060486 
	C334.546448,167.387558 333.731049,166.787384 332.915649,166.187195 
	C332.299011,163.004913 331.682373,159.822632 331.085327,156.227997 
	C332.815613,156.182373 334.526337,156.549118 336.610291,156.983109 
z"/>
<path fill="#8579E4" opacity="1.000000" stroke="none" 
	d="
M326.135986,154.630310 
	C323.461823,154.993835 320.509888,155.140549 316.800507,155.531296 
	C312.667969,156.809418 309.292908,157.843506 305.917816,158.877609 
	C301.832489,161.237213 297.747131,163.596802 293.312256,165.970718 
	C294.030121,164.655014 294.889801,163.058548 296.198578,162.038010 
	C304.954834,155.210403 314.834259,152.529724 326.135986,154.630310 
z"/>
<path fill="#8579E4" opacity="1.000000" stroke="none" 
	d="
M291.643250,166.908478 
	C291.503815,167.579422 291.020752,168.201813 290.242737,168.907410 
	C290.398407,168.280365 290.848999,167.570145 291.643250,166.908478 
z"/>
<path fill="#8579E4" opacity="1.000000" stroke="none" 
	d="
M288.689453,170.025620 
	C288.728729,170.279144 288.454956,170.606140 287.855438,170.997955 
	C287.811920,170.741562 288.094177,170.420319 288.689453,170.025620 
z"/>
<path fill="#8579E4" opacity="1.000000" stroke="none" 
	d="
M292.680725,165.950836 
	C292.827911,166.275345 292.668579,166.587326 292.233887,166.941925 
	C292.097076,166.635788 292.235626,166.287048 292.680725,165.950836 
z"/>
<path fill="#8579E4" opacity="1.000000" stroke="none" 
	d="
M289.704956,168.981201 
	C289.815887,169.251404 289.642731,169.552063 289.209503,169.923828 
	C289.106567,169.667191 289.263702,169.339417 289.704956,168.981201 
z"/>
<path fill="#A836E7" opacity="1.000000" stroke="none" 
	d="
M345.942902,175.190414 
	C346.431946,175.429016 346.920990,175.667618 347.651428,176.042603 
	C349.106262,179.021057 350.319702,181.863113 351.269653,184.924530 
	C348.730682,183.345718 346.455170,181.547562 344.245605,179.279327 
	C344.855347,177.602966 345.399109,176.396683 345.942902,175.190414 
z"/>
<path fill="#3B0BE5" opacity="1.000000" stroke="none" 
	d="
M215.908463,152.244690 
	C210.225525,152.173523 204.542572,152.102341 198.383469,151.984467 
	C197.096298,150.684219 196.285294,149.430679 195.393860,148.052811 
	C196.129166,147.779068 197.173615,147.390228 198.537231,146.930359 
	C198.856384,146.859314 198.975266,146.960403 199.324615,147.265137 
	C203.752304,148.063644 207.830627,148.557404 212.236221,149.179199 
	C213.690857,149.553650 214.818222,149.800095 215.960800,150.412262 
	C215.953491,151.266891 215.930969,151.755798 215.908463,152.244690 
z"/>
<path fill="#4A3CED" opacity="1.000000" stroke="none" 
	d="
M172.418564,160.868286 
	C172.585983,160.853516 172.535019,161.271393 172.535019,161.271393 
	C172.535019,161.271393 172.139160,161.304291 172.049377,161.177307 
	C171.959579,161.050323 172.251144,160.883057 172.418564,160.868286 
z"/>
<path fill="#4A3CED" opacity="1.000000" stroke="none" 
	d="
M173.753357,160.010742 
	C173.860413,160.252197 173.675644,160.453323 173.190430,160.583313 
	C173.089294,160.328415 173.279800,160.147827 173.753357,160.010742 
z"/>
<path fill="#7C39EC" opacity="1.000000" stroke="none" 
	d="
M215.945587,150.046524 
	C214.818222,149.800095 213.690857,149.553650 212.237152,148.795441 
	C211.934479,147.518906 211.958145,146.754150 211.981812,145.989380 
	C213.361221,145.989319 214.740601,145.989258 216.530975,145.984039 
	C221.005478,146.925842 225.068970,147.872833 229.511871,148.896515 
	C229.918777,150.356644 229.946274,151.740067 229.640671,153.403748 
	C224.853577,152.471527 220.399582,151.259018 215.945587,150.046524 
z"/>
<path fill="#8508E6" opacity="1.000000" stroke="none" 
	d="
M215.960800,150.412262 
	C220.399582,151.259018 224.853577,152.471527 229.644684,153.818054 
	C232.707748,155.556915 235.433701,157.161743 237.940735,158.960037 
	C230.654083,157.000809 223.586380,154.848129 216.213562,152.470078 
	C215.930969,151.755798 215.953491,151.266891 215.960800,150.412262 
z"/>
<path fill="#8579E4" opacity="1.000000" stroke="none" 
	d="
M239.516479,160.985016 
	C239.110992,161.064331 238.628326,160.878647 238.027069,160.457489 
	C238.418762,160.388016 238.929031,160.554016 239.516479,160.985016 
z"/>
<path fill="#6608E7" opacity="1.000000" stroke="none" 
	d="
M211.538666,145.981201 
	C211.958145,146.754150 211.934479,147.518906 211.909882,148.667419 
	C207.830627,148.557404 203.752304,148.063644 199.387390,147.311523 
	C203.099030,146.693115 207.097260,146.333069 211.538666,145.981201 
z"/>
<path fill="#FA32E6" opacity="1.000000" stroke="none" 
	d="
M332.497589,166.158478 
	C333.731049,166.787384 334.546448,167.387558 335.610352,168.439468 
	C335.567230,171.213928 335.275574,173.536667 334.983887,175.859390 
	C331.938110,175.527756 328.892334,175.196136 325.416901,174.929810 
	C322.292053,175.001907 319.596832,175.008682 316.450684,174.535858 
	C316.014954,171.079117 316.030182,168.101974 316.436798,165.079285 
	C317.608551,164.903702 318.388855,164.773682 319.169189,164.643646 
	C323.472626,165.139008 327.776093,165.634384 332.497589,166.158478 
z"/>
<path fill="#A836E7" opacity="1.000000" stroke="none" 
	d="
M301.484894,183.019012 
	C300.912811,179.512894 300.677277,175.964355 300.167847,172.100189 
	C302.399719,170.264877 304.905487,168.745193 307.719360,167.550415 
	C308.098022,171.301987 308.168488,174.728638 308.238983,178.155273 
	C306.099792,179.762375 303.960602,181.369476 301.484894,183.019012 
z"/>
<path fill="#E634E7" opacity="1.000000" stroke="none" 
	d="
M316.045380,165.124847 
	C316.030182,168.101974 316.014954,171.079117 316.000305,174.503540 
	C314.921753,175.305588 313.842651,175.660324 312.155212,175.743408 
	C311.708496,172.331085 311.870117,169.190384 312.370789,165.985214 
	C313.821655,165.655426 314.933533,165.390137 316.045380,165.124847 
z"/>
<path fill="#CC34E8" opacity="1.000000" stroke="none" 
	d="
M312.031738,166.049683 
	C311.870117,169.190384 311.708496,172.331085 311.811035,175.755280 
	C311.004730,176.697647 309.934235,177.356506 308.551331,178.085312 
	C308.168488,174.728638 308.098022,171.301987 308.046387,167.435394 
	C308.065216,166.995422 308.469086,166.926590 309.005798,166.904572 
	C310.372253,166.604935 311.201996,166.327301 312.031738,166.049683 
z"/>
<path fill="#E634E7" opacity="1.000000" stroke="none" 
	d="
M335.330383,175.989349 
	C335.275574,173.536667 335.567230,171.213928 335.916046,168.512207 
	C337.122040,168.641403 338.270905,169.149597 339.727478,169.728180 
	C340.273132,170.043610 340.511017,170.288635 340.876678,171.154297 
	C340.645111,173.640869 340.285797,175.506821 339.926453,177.372757 
	C338.509949,176.954941 337.093414,176.537109 335.330383,175.989349 
z"/>
<path fill="#CC34E8" opacity="1.000000" stroke="none" 
	d="
M340.150635,177.577881 
	C340.285797,175.506821 340.645111,173.640869 341.013214,171.370575 
	C342.478668,172.253433 343.935364,173.540604 345.667480,175.009094 
	C345.399109,176.396683 344.855347,177.602966 344.034607,179.021301 
	C342.629974,178.749908 341.502380,178.266464 340.150635,177.577881 
z"/>
<path fill="#110D2A" opacity="1.000000" stroke="none" 
	d="
M261.869995,199.690491 
	C260.986633,201.709518 259.985687,203.412842 258.712891,205.723175 
	C257.600098,207.943375 256.816650,209.589691 255.909409,211.164673 
	C245.859940,228.610123 235.428299,245.634857 213.040070,249.162750 
	C211.624649,249.122711 210.209229,249.082687 207.965759,249.062103 
	C205.767990,249.067123 204.398300,249.052704 203.028595,249.038284 
	C203.028595,249.038284 203.171890,248.948578 203.159485,248.863983 
	C194.757416,246.220642 187.095139,242.352142 180.299484,235.774734 
	C173.473877,226.188293 170.330093,216.468323 171.760117,204.997787 
	C173.903442,187.805557 188.935715,173.598312 206.233841,172.891968 
	C215.624908,172.508499 224.307953,174.564331 232.788513,178.185364 
	C242.443146,185.248520 252.097763,192.311661 261.869995,199.690491 
M182.481247,190.176361 
	C182.476151,190.607178 182.471054,191.037979 182.465942,191.468796 
	C182.747528,191.096481 183.029099,190.724167 183.760193,190.140915 
	C184.043381,189.948166 184.249954,189.693329 185.059280,189.195175 
	C191.050430,186.463058 197.041580,183.730942 203.862656,180.971786 
	C206.587967,181.175735 209.313293,181.379700 212.792923,181.746933 
	C213.559662,181.718704 214.326385,181.690460 215.910477,181.824570 
	C220.770142,182.774841 225.629807,183.725128 230.489471,184.675400 
	C230.666489,184.174103 230.843506,183.672806 231.020523,183.171509 
	C225.708725,181.256042 220.396942,179.340576 214.208313,177.098328 
	C210.372940,177.280823 206.537582,177.463333 201.945786,177.652054 
	C199.947952,178.395676 197.950119,179.139297 195.323868,180.237686 
	C191.470566,183.082199 187.617279,185.926727 183.345123,189.027008 
	C183.086777,189.252457 182.932037,189.534698 182.481247,190.176361 
M254.129929,207.388580 
	C254.076431,204.282150 260.714569,202.031143 255.108444,197.597412 
	C253.561310,200.944519 252.217239,203.852280 250.272644,207.116943 
	C248.569336,210.394501 246.866043,213.672043 245.015274,217.643890 
	C242.808929,221.466507 238.206863,223.960541 237.968994,228.874786 
	C238.422104,229.173935 238.875229,229.473068 239.328339,229.772202 
	C242.207047,225.523132 245.085754,221.274048 248.533539,216.633698 
	C250.252335,213.735184 251.971130,210.836655 254.129929,207.388580 
z"/>
<path fill="#0B0D82" opacity="1.000000" stroke="none" 
	d="
M232.841446,177.786682 
	C224.307953,174.564331 215.624908,172.508499 206.233841,172.891968 
	C188.935715,173.598312 173.903442,187.805557 171.760117,204.997787 
	C170.330093,216.468323 173.473877,226.188293 180.014099,235.602753 
	C172.672165,234.084442 170.353119,227.497894 167.157272,221.816650 
	C166.046234,219.841553 165.608826,217.487503 164.360413,215.352783 
	C164.360413,217.596893 164.360413,219.840988 164.360413,222.136261 
	C161.313889,218.123459 159.883194,208.460968 161.190155,201.037811 
	C162.822281,191.767700 165.881775,183.069962 171.701233,175.545670 
	C178.832703,166.325043 188.472900,161.771805 199.938080,161.158966 
	C201.624664,161.068832 203.340546,162.991760 205.161972,163.657318 
	C209.095169,165.094559 213.105743,166.320129 218.034409,167.945511 
	C217.503571,164.747177 217.266235,163.317184 217.009094,161.512466 
	C220.145889,161.931168 223.302490,162.724609 226.725571,163.757782 
	C226.754990,167.622604 226.568527,171.034454 230.929306,172.865875 
	C232.024261,173.325729 232.262436,175.825638 232.841446,177.786682 
z"/>
<path fill="#BC04D3" opacity="1.000000" stroke="none" 
	d="
M312.370789,165.985199 
	C311.201996,166.327301 310.372253,166.604935 309.209747,166.885223 
	C308.064484,164.384766 307.251984,161.881668 306.178650,159.128082 
	C309.292908,157.843506 312.667969,156.809418 316.433899,155.708252 
	C317.577087,158.400040 318.329468,161.158890 319.125519,164.280701 
	C318.388855,164.773682 317.608551,164.903702 316.436798,165.079285 
	C314.933533,165.390137 313.821655,165.655426 312.370789,165.985199 
z"/>
<path fill="#0B0FE8" opacity="1.000000" stroke="none" 
	d="
M213.284042,249.354584 
	C235.428299,245.634857 245.859940,228.610123 255.909409,211.164673 
	C256.816650,209.589691 257.600098,207.943375 258.661438,206.057068 
	C261.084930,206.405823 263.287994,207.027664 265.804565,207.864182 
	C263.561035,213.065643 261.003937,218.052460 257.959900,223.459229 
	C257.311279,224.262344 257.149567,224.645508 256.987885,225.028671 
	C256.987885,225.028671 257.024567,225.019119 256.729248,225.135178 
	C256.270905,225.825882 256.107910,226.400528 255.944916,226.975174 
	C255.944916,226.975174 256.001831,226.994278 255.626907,226.949188 
	C254.481735,228.257645 253.711472,229.611191 252.941223,230.964722 
	C252.941223,230.964722 252.996735,231.000549 252.650986,230.919037 
	C252.187286,231.211090 252.069336,231.584625 251.951401,231.958176 
	C251.951401,231.958176 252.003021,231.991058 251.632019,231.864410 
	C243.329315,239.403076 234.381882,245.448288 223.830643,248.935394 
	C221.451355,249.168121 219.072083,249.400848 216.335541,249.799530 
	C215.161514,249.825806 214.344772,249.686096 213.284042,249.354584 
z"/>
<path fill="#FA32E6" opacity="1.000000" stroke="none" 
	d="
M235.572693,251.794617 
	C235.941391,253.463943 235.967636,255.262009 235.991486,257.500061 
	C231.196030,259.382965 226.402939,260.825867 221.298309,262.457642 
	C217.444000,262.646454 213.901215,262.646454 210.358429,262.646454 
	C210.302887,262.445679 210.247345,262.244904 210.191803,262.044159 
	C212.623688,261.216858 215.055557,260.389557 217.770050,259.343567 
	C223.778503,256.724335 229.504364,254.323853 235.572693,251.794617 
z"/>
<path fill="#5209E7" opacity="1.000000" stroke="none" 
	d="
M203.259674,249.286743 
	C204.398300,249.052704 205.767990,249.067123 207.546371,249.133728 
	C206.466949,249.302338 204.978867,249.418777 203.259674,249.286743 
z"/>
<path fill="#8579E4" opacity="1.000000" stroke="none" 
	d="
M224.260315,248.988190 
	C234.381882,245.448288 243.329315,239.403076 251.607941,231.843201 
	C250.343765,234.053192 248.732666,236.157761 246.906250,238.529175 
	C241.600052,241.778336 236.601959,244.939804 231.370102,247.650009 
	C229.425140,248.657547 226.932724,248.608292 224.260315,248.988190 
z"/>
<path fill="#8579E4" opacity="1.000000" stroke="none" 
	d="
M253.260864,230.868439 
	C253.711472,229.611191 254.481735,228.257645 255.605072,226.928497 
	C255.165619,228.225967 254.373077,229.499069 253.260864,230.868439 
z"/>
<path fill="#8579E4" opacity="1.000000" stroke="none" 
	d="
M256.239868,226.853714 
	C256.107910,226.400528 256.270905,225.825882 256.728821,225.116241 
	C256.860748,225.564911 256.697815,226.148575 256.239868,226.853714 
z"/>
<path fill="#8579E4" opacity="1.000000" stroke="none" 
	d="
M252.217377,231.912811 
	C252.069336,231.584625 252.187286,231.211090 252.631454,230.892456 
	C252.799561,231.254074 252.641464,231.560776 252.217377,231.912811 
z"/>
<path fill="#8579E4" opacity="1.000000" stroke="none" 
	d="
M257.306915,224.906525 
	C257.149567,224.645508 257.311279,224.262344 257.727936,223.684570 
	C257.863892,223.921432 257.744904,224.352905 257.306915,224.906525 
z"/>
<path fill="#450AA4" opacity="1.000000" stroke="none" 
	d="
M203.032730,180.998825 
	C197.041580,183.730942 191.050430,186.463058 184.565536,189.133026 
	C184.071793,189.070892 183.763992,188.771255 183.763992,188.771255 
	C187.617279,185.926727 191.470566,183.082199 195.952988,180.210541 
	C198.732315,180.455200 200.882523,180.727020 203.032730,180.998825 
z"/>
<path fill="#BC04D3" opacity="1.000000" stroke="none" 
	d="
M215.085144,177.425125 
	C220.396942,179.340576 225.708725,181.256042 231.020523,183.171509 
	C230.843506,183.672806 230.666489,184.174103 230.489471,184.675400 
	C225.629807,183.725128 220.770142,182.774841 215.507233,181.389404 
	C215.097717,179.777863 215.091431,178.601501 215.085144,177.425125 
z"/>
<path fill="#7508B7" opacity="1.000000" stroke="none" 
	d="
M247.964478,217.024979 
	C245.085754,221.274048 242.207047,225.523132 239.328339,229.772202 
	C238.875229,229.473068 238.422104,229.173935 237.968994,228.874786 
	C238.206863,223.960541 242.808929,221.466507 245.439728,217.306900 
	C246.564285,216.988266 247.264374,217.006622 247.964478,217.024979 
z"/>
<path fill="#EC01DB" opacity="1.000000" stroke="none" 
	d="
M250.873169,206.760056 
	C252.217239,203.852280 253.561310,200.944519 255.108444,197.597412 
	C260.714569,202.031143 254.076431,204.282150 253.585663,207.636368 
	C252.318665,207.509460 251.595917,207.134766 250.873169,206.760056 
z"/>
<path fill="#BC04D3" opacity="1.000000" stroke="none" 
	d="
M250.572906,206.938507 
	C251.595917,207.134766 252.318665,207.509460 253.365662,207.911133 
	C251.971130,210.836655 250.252335,213.735184 248.249008,216.829346 
	C247.264374,217.006622 246.564285,216.988266 245.513458,216.959747 
	C246.866043,213.672043 248.569336,210.394501 250.572906,206.938507 
z"/>
<path fill="#7508B7" opacity="1.000000" stroke="none" 
	d="
M203.447693,180.985306 
	C200.882523,180.727020 198.732315,180.455200 196.267197,180.033157 
	C197.950119,179.139297 199.947952,178.395676 202.613754,177.960266 
	C205.812653,180.398514 210.488876,176.861832 212.038605,181.583649 
	C209.313293,181.379700 206.587967,181.175735 203.447693,180.985306 
z"/>
<path fill="#8507CD" opacity="1.000000" stroke="none" 
	d="
M212.415771,181.665283 
	C210.488876,176.861832 205.812653,180.398514 202.991974,177.957153 
	C206.537582,177.463333 210.372940,177.280823 214.646729,177.261719 
	C215.091431,178.601501 215.097717,179.777863 215.098557,181.308228 
	C214.326385,181.690460 213.559662,181.718704 212.415771,181.665283 
z"/>
<path fill="#450AA4" opacity="1.000000" stroke="none" 
	d="
M183.310684,190.351852 
	C183.029099,190.724167 182.747528,191.096481 182.465942,191.468796 
	C182.471054,191.037979 182.476151,190.607178 182.790039,190.143219 
	C183.098846,190.110062 183.310684,190.351852 183.310684,190.351852 
z"/>
<path fill="#450AA4" opacity="1.000000" stroke="none" 
	d="
M182.989868,189.991898 
	C182.932037,189.534698 183.086777,189.252457 183.554565,188.899139 
	C183.763992,188.771255 184.071793,189.070892 184.225861,189.223633 
	C184.249954,189.693329 184.043381,189.948166 183.535431,190.246384 
	C183.310684,190.351852 183.098846,190.110062 182.989868,189.991898 
z"/>
</svg>