<svg version="1.1" id="Layer_1" xmlns="http://www.w3.org/2000/svg" xmlns:xlink="http://www.w3.org/1999/xlink" x="0px" y="0px"
	 width="100%" viewBox="0 0 500 500" enable-background="new 0 0 500 500" xml:space="preserve">
<path fill="#05021B" opacity="1.000000" stroke="none" 
	d="
M330.000000,501.000000 
	C220.000031,501.000000 110.500053,501.000000 1.000059,501.000000 
	C1.000039,334.333405 1.000039,167.666794 1.000020,1.000148 
	C167.666565,1.000099 334.333130,1.000099 500.999756,1.000049 
	C500.999847,167.666519 500.999847,334.333038 500.999939,500.999786 
	C444.166656,501.000000 387.333344,501.000000 330.000000,501.000000 
M342.862274,158.317352 
	C342.436249,158.028717 342.010193,157.740067 341.069824,156.987396 
	C329.573334,149.663177 317.582764,149.120972 304.980133,153.930603 
	C293.319580,158.380722 283.884430,165.650696 275.567902,175.160446 
	C275.364929,175.110046 275.161926,175.059631 274.667694,174.360199 
	C273.448517,173.200012 272.229309,172.039825 271.834656,170.547501 
	C273.127350,170.386810 274.802094,170.689789 275.650970,169.990417 
	C281.300842,165.335693 286.774139,160.466614 292.304840,155.667206 
	C283.346222,158.299850 276.542877,163.726715 270.476288,170.535233 
	C269.322723,169.670013 268.169159,168.804810 266.732269,167.335129 
	C261.745148,164.250305 256.758026,161.165482 251.333649,157.558121 
	C247.280869,155.307419 243.228104,153.056717 238.806686,150.306259 
	C238.219360,150.112747 237.632019,149.919235 236.578552,149.198059 
	C226.056427,145.403244 215.292328,143.216522 203.200439,144.208450 
	C197.128677,145.747833 191.056900,147.287201 184.249115,148.914337 
	C174.572586,153.184631 165.942993,158.875412 159.191208,167.338959 
	C159.191208,167.338959 159.086670,167.612671 158.570099,167.964340 
	C158.375565,168.317398 158.181015,168.670471 158.024673,169.019897 
	C158.024673,169.019897 158.018997,168.981964 157.436310,169.236603 
	C157.231567,169.808792 157.026840,170.380966 156.918365,171.009613 
	C156.918365,171.009613 156.974304,170.913025 156.319458,170.982529 
	C156.061646,171.336777 155.803833,171.691040 155.131882,172.453384 
	C154.417206,173.598190 153.702515,174.743011 152.545181,176.156387 
	C152.425385,176.466614 152.305588,176.776840 151.823669,177.496704 
	C151.574814,177.965729 151.325943,178.434753 150.514450,179.331512 
	C147.774734,187.256119 144.141159,195.000443 142.498413,203.146271 
	C139.830185,216.377075 140.952530,229.577011 146.975800,242.763092 
	C148.945770,246.306015 150.915741,249.848923 153.054169,254.031281 
	C157.693466,259.043274 162.332764,264.055267 167.292984,269.626434 
	C168.856079,270.772400 170.419174,271.918365 172.258942,273.693939 
	C175.833984,275.445648 179.409012,277.197388 183.500427,279.388062 
	C184.570755,279.633148 185.641083,279.878235 187.260422,280.615051 
	C189.174362,281.028412 191.088287,281.441772 193.743515,282.116150 
	C206.800339,284.814545 219.562881,283.937378 232.734512,278.990295 
	C235.816544,277.546814 238.898575,276.103302 242.610321,274.452850 
	C245.409592,272.271393 248.208878,270.089935 251.688232,267.903870 
	C256.777344,260.905457 261.866455,253.907043 267.476562,246.476639 
	C270.438019,240.000366 273.399475,233.524094 277.005005,226.918076 
	C278.653595,223.251770 280.302185,219.585449 282.619141,216.011703 
	C284.186066,216.808182 285.753021,217.604660 287.752716,218.917313 
	C293.519623,221.896225 299.286560,224.875137 305.676849,228.283142 
	C312.484192,229.086380 319.291534,229.889618 326.886475,230.744217 
	C328.512726,230.468292 330.150146,230.245850 331.763428,229.907959 
	C344.535278,227.232910 355.110474,216.539490 356.593628,205.163544 
	C356.593628,205.163544 356.901428,204.978592 357.481506,204.496567 
	C362.458557,188.291321 356.894684,169.503311 343.981750,159.318161 
	C343.685577,159.140121 343.389404,158.962067 342.862274,158.317352 
M313.403992,233.940552 
	C311.795868,233.590393 310.195679,233.196594 308.577362,232.902496 
	C306.999115,232.615662 305.402344,232.430740 303.813721,232.201080 
	C311.136780,237.502197 318.790985,240.877625 328.672241,238.615967 
	C337.283661,237.157654 344.515198,233.547089 349.090027,226.802124 
	C342.548553,229.322540 335.726349,231.951126 328.003601,234.602966 
	C323.391144,234.476151 318.778717,234.349350 313.403992,233.940552 
M277.269623,334.763153 
	C281.083923,335.753510 282.600647,334.557465 282.693146,330.354889 
	C282.818329,324.666290 283.857208,319.002075 284.317413,313.312286 
	C284.393005,312.377441 283.577026,310.567627 283.059937,310.524689 
	C280.633972,310.323181 278.151703,310.489166 275.741791,310.861908 
	C275.487274,310.901276 275.356812,313.189758 275.546417,314.374359 
	C276.055023,317.551758 276.768646,320.696350 277.400848,323.853943 
	C276.893555,323.997375 276.386261,324.140778 275.878967,324.284210 
	C273.382568,320.426819 270.748779,316.649811 268.431366,312.687775 
	C266.420563,309.249939 263.399628,309.960632 260.560822,310.632568 
	C260.250824,310.705933 260.867279,314.062286 260.793274,315.885284 
	C260.594879,320.772156 260.232697,325.652161 259.985718,330.537415 
	C259.917786,331.881012 259.907013,334.391785 260.071350,334.408691 
	C262.664337,334.675232 265.297943,334.705933 267.892639,334.468140 
	C268.082581,334.450684 268.245758,331.933411 268.073517,330.624115 
	C267.695221,327.748657 267.093842,324.902527 266.583527,322.044403 
	C267.054504,321.931458 267.525482,321.818481 267.996460,321.705536 
	C270.867218,325.920227 273.737976,330.134888 277.269623,334.763153 
M185.089340,322.420685 
	C184.434769,322.567657 183.329346,323.018738 183.192764,322.816284 
	C180.865723,319.366882 179.099487,315.405273 176.251312,312.494141 
	C174.674927,310.882904 171.331924,311.000061 168.785263,310.338104 
	C168.829926,312.167603 168.962875,314.000061 168.902176,315.826050 
	C168.739288,320.726624 169.124435,325.765137 168.073181,330.476959 
	C167.288757,333.992920 167.612030,335.143524 171.149643,335.030243 
	C172.929276,334.973236 174.712250,335.020294 176.777985,335.020294 
	C175.976456,330.062927 175.280350,325.757629 174.584259,321.452362 
	C175.038864,321.306793 175.493469,321.161224 175.948074,321.015625 
	C178.454849,324.861084 180.727371,328.894562 183.587006,332.456757 
	C184.686874,333.826813 187.123520,334.123718 188.951080,334.909576 
	C189.563095,333.386749 190.512039,331.909790 190.726532,330.332886 
	C191.494492,324.686859 192.082474,319.012756 192.559097,313.334229 
	C192.638382,312.389587 191.900024,310.567841 191.407211,310.520203 
	C188.971466,310.284821 186.468811,310.362640 184.051208,310.732086 
	C183.693466,310.786774 183.379120,313.026123 183.540359,314.185822 
	C183.891159,316.708954 184.561798,319.187592 185.089340,322.420685 
M362.731750,311.416473 
	C360.238922,310.992828 357.757538,310.405609 355.247345,310.229950 
	C354.307434,310.164185 352.584320,310.936462 352.483337,311.538757 
	C352.309753,312.573914 352.898773,313.941711 353.573914,314.876404 
	C355.688568,317.803986 358.460632,320.361237 360.041107,323.529327 
	C360.932159,325.315430 360.092041,328.033936 359.814728,330.305939 
	C359.670410,331.488312 358.446564,332.908783 358.821960,333.681824 
	C359.205750,334.471954 360.921234,334.800751 362.105377,334.969574 
	C363.569763,335.178314 365.110046,335.170532 366.574127,334.957550 
	C367.596741,334.808807 369.038879,334.397186 369.392609,333.666656 
	C369.759430,332.909088 369.397858,331.189667 368.735352,330.646667 
	C365.621735,328.094543 366.504883,325.410217 368.283630,322.794617 
	C370.049896,320.197357 372.182373,317.851532 374.006989,315.290558 
	C374.777527,314.209106 375.171204,312.859192 375.736206,311.631317 
	C374.458740,311.131866 373.216431,310.470154 371.892914,310.183044 
	C370.783325,309.942322 369.577576,310.175415 368.416656,310.134491 
	C365.387939,310.027679 364.729004,311.476898 365.369049,314.235443 
	C365.708557,315.698761 365.429169,317.305664 365.429169,318.847748 
	C364.577271,318.821838 363.725403,318.795898 362.873505,318.769989 
	C362.873505,316.565552 362.873505,314.361084 362.731750,311.416473 
M215.838730,333.488403 
	C215.749832,332.677521 215.956070,331.624786 215.522797,331.096161 
	C213.205307,328.268616 211.876648,325.919800 217.055588,324.914581 
	C217.657440,324.797760 218.526382,323.326630 218.374054,322.702393 
	C218.152100,321.792725 217.152847,321.045258 216.416443,320.295990 
	C215.595108,319.460297 214.525787,318.803436 213.943710,317.839630 
	C213.783081,317.573669 214.986664,315.896576 215.543655,315.907654 
	C216.676102,315.930084 217.762238,316.803741 218.926193,317.068146 
	C220.669678,317.464203 222.463730,317.637665 224.236282,317.905823 
	C224.289658,315.785889 224.689499,313.583679 224.215790,311.588928 
	C224.040817,310.852081 221.825760,310.260437 220.512589,310.197357 
	C216.707138,310.014526 212.883835,310.043701 209.074936,310.186615 
	C207.874054,310.231659 205.919250,310.639832 205.685745,311.340485 
	C205.311081,312.464722 206.226746,313.958588 206.343735,315.318024 
	C206.752777,320.071320 207.220886,324.831268 207.296417,329.594543 
	C207.320114,331.089417 206.177185,332.602753 205.568237,334.107605 
	C207.297028,334.412872 209.021194,334.923950 210.755951,334.962860 
	C212.349014,334.998627 213.953491,334.525604 215.838730,333.488403 
M329.503723,310.129089 
	C326.845978,310.134827 324.158997,309.914062 321.544159,310.251862 
	C320.414673,310.397797 318.596924,311.659607 318.559296,312.481659 
	C318.479279,314.229828 319.359955,316.021942 319.846863,317.796082 
	C321.249908,317.277771 322.672943,316.806396 324.047058,316.220337 
	C324.683228,315.949036 325.224030,315.454132 325.909454,314.992310 
	C327.719543,321.041779 327.126434,325.922485 324.739075,331.162415 
	C324.365601,331.982117 325.623810,334.210327 326.687439,334.836975 
	C327.802612,335.494019 329.592255,334.992371 331.086578,335.022552 
	C334.849030,335.098541 335.912598,333.873932 333.919220,330.253204 
	C331.243195,325.392456 332.562256,320.347687 333.121124,316.041260 
	C335.888367,316.692932 337.896149,317.165741 339.903931,317.638550 
	C340.242828,315.788452 341.321350,313.608582 340.689453,312.191345 
	C340.172607,311.032257 337.664520,310.520386 335.950043,310.202606 
	C334.183502,309.875183 332.309082,310.129578 329.503723,310.129089 
M298.121674,334.756927 
	C299.936829,334.845245 301.766602,335.111176 303.562378,334.963654 
	C304.914124,334.852692 306.222321,334.211578 307.549866,333.806396 
	C307.062256,332.559509 306.768066,331.185455 306.048462,330.091095 
	C304.332306,327.481171 304.687103,317.497711 306.718353,314.733978 
	C308.582611,312.197510 308.381378,310.429688 304.819305,310.168304 
	C303.335876,310.059479 301.838074,310.148254 300.346802,310.143738 
	C296.908295,310.133362 296.491638,311.732178 297.719055,314.614197 
	C298.514679,316.482513 299.380493,318.590851 299.253052,320.528381 
	C298.951050,325.120667 298.075958,329.675293 298.121674,334.756927 
M246.469894,313.999420 
	C247.070648,307.107178 241.833908,310.711792 239.245438,310.291534 
	C235.819061,309.735291 235.456573,311.891205 236.805511,314.664734 
	C239.378555,319.955048 239.328278,325.316681 236.789536,330.594604 
	C235.415787,333.450592 235.866211,335.031464 239.321320,335.013245 
	C240.647888,335.006226 242.009430,335.201813 243.290894,334.962128 
	C244.451797,334.744995 246.133011,334.313995 246.466492,333.512177 
	C246.799316,332.711945 245.934250,331.201324 245.260880,330.234375 
	C243.206100,327.283661 243.551086,317.421844 246.469894,313.999420 
M152.575317,323.431519 
	C153.254501,320.327698 154.202103,317.247559 154.479568,314.108246 
	C154.589172,312.868073 153.478210,310.718872 152.442856,310.356873 
	C150.663162,309.734589 148.351898,309.746948 146.571091,310.370575 
	C145.617050,310.704681 144.428116,313.306152 144.842789,314.137024 
	C147.670044,319.801910 147.774551,325.707550 144.858521,330.940735 
	C144.376389,331.806030 144.563370,334.058136 144.619736,334.064423 
	C147.686508,334.405731 150.772400,334.575226 153.856339,334.762299 
	C153.678406,333.083832 153.523590,331.402466 153.316254,329.727661 
	C153.094650,327.937561 152.823532,326.153625 152.575317,323.431519 
M301.526672,231.543320 
	C301.526672,231.543320 301.493134,231.480042 301.526672,231.543320 
z"/>
<path fill="#EC01DB" opacity="1.000000" stroke="none" 
	d="
M356.235992,205.191055 
	C355.110474,216.539490 344.535278,227.232910 331.763428,229.907959 
	C330.150146,230.245850 328.512726,230.468292 326.523712,230.363953 
	C326.256775,228.545593 326.968811,226.707321 326.340363,225.739594 
	C323.803986,221.834152 322.190247,216.892502 315.997955,216.777481 
	C313.556183,216.732132 311.145355,215.019745 309.160583,214.051086 
	C321.829773,217.107712 330.971344,212.695236 338.009857,202.634003 
	C341.742188,197.298798 342.328156,190.916428 338.453278,187.120361 
	C338.607941,188.814590 338.744476,190.049042 338.829681,191.287048 
	C339.347443,198.807236 334.724884,205.579025 327.331451,206.450821 
	C322.722412,206.994293 317.896759,205.700867 313.606201,205.160980 
	C316.019684,205.102646 317.999329,205.203751 319.970123,205.112671 
	C330.167358,204.641434 336.083221,196.251328 333.313110,186.233292 
	C332.921082,184.815506 332.478058,183.411835 332.403259,182.059570 
	C343.651031,183.470169 351.941650,188.299423 355.645752,199.274841 
	C355.708038,199.459381 356.218292,199.492737 356.559723,200.022568 
	C356.602448,201.018799 356.605011,201.589096 356.495056,202.440918 
	C356.333710,203.545303 356.284851,204.368179 356.235992,205.191055 
z"/>
<path fill="#FA32E6" opacity="1.000000" stroke="none" 
	d="
M313.168335,205.231796 
	C317.896759,205.700867 322.722412,206.994293 327.331451,206.450821 
	C334.724884,205.579025 339.347443,198.807236 338.829681,191.287048 
	C338.744476,190.049042 338.607941,188.814590 338.453278,187.120361 
	C342.328156,190.916428 341.742188,197.298798 338.009857,202.634003 
	C330.971344,212.695236 321.829773,217.107712 308.843933,213.963287 
	C300.708710,208.310226 293.330292,202.729553 285.710327,196.913208 
	C280.993744,192.405029 276.518677,188.132553 272.042114,183.464233 
	C273.013397,180.382004 273.986176,177.695618 274.958954,175.009232 
	C275.161926,175.059631 275.364929,175.110046 275.975342,175.522919 
	C277.873627,177.223221 279.364502,178.561081 281.024353,180.177246 
	C282.646851,182.001968 284.100372,183.548386 285.662964,185.430481 
	C288.448242,188.545532 291.124451,191.324936 293.952759,194.408234 
	C299.452057,200.044022 305.845795,203.479523 313.168335,205.231796 
z"/>
<path fill="#FA32E6" opacity="1.000000" stroke="none" 
	d="
M231.988632,278.968384 
	C219.562881,283.937378 206.800339,284.814545 193.373138,281.564087 
	C193.705429,276.117920 194.408112,271.223816 195.508530,266.437256 
	C198.579437,267.119141 201.252609,267.693512 204.288361,268.474426 
	C210.475204,268.545624 216.299469,268.410278 222.515076,268.263489 
	C225.914246,267.326752 228.922104,266.401520 232.050949,265.855164 
	C232.110840,270.478851 232.049728,274.723602 231.988632,278.968384 
z"/>
<path fill="#7508B7" opacity="1.000000" stroke="none" 
	d="
M287.319977,218.401123 
	C285.753021,217.604660 284.186066,216.808182 282.137512,215.672455 
	C276.869385,211.481003 272.082886,207.628815 267.106018,203.514862 
	C265.639435,202.091232 264.363220,200.929352 263.080383,199.352325 
	C262.147003,191.534012 261.663666,184.232681 254.852631,178.871765 
	C252.670258,177.154068 252.829620,172.461151 252.239059,169.062531 
	C252.994904,168.959702 253.429276,168.923828 253.925125,168.969360 
	C253.986588,169.050797 254.155182,169.165710 254.218460,169.312653 
	C254.419250,169.638489 254.600388,169.738739 254.930725,169.850464 
	C255.036331,169.940613 255.274094,170.084106 255.399384,170.293274 
	C255.958405,170.730392 256.392120,170.958344 257.022522,171.453964 
	C259.800873,173.837662 262.382477,175.953720 265.127014,178.338531 
	C266.535828,179.707535 267.781708,180.807785 269.021973,182.319901 
	C270.195587,186.823242 270.319794,191.768433 272.787140,194.817581 
	C277.108093,200.157425 282.866974,204.333694 288.169495,209.181137 
	C288.526703,209.598236 288.763824,209.801361 289.020844,210.421844 
	C288.449860,213.380020 287.884918,215.890579 287.319977,218.401123 
z"/>
<path fill="#3A3BE9" opacity="1.000000" stroke="none" 
	d="
M146.893997,242.031616 
	C140.952530,229.577011 139.830185,216.377075 142.498413,203.146271 
	C144.141159,195.000443 147.774734,187.256119 150.994965,179.446548 
	C152.359818,182.058578 153.244171,184.555588 154.045380,187.432312 
	C149.563354,199.078918 148.670975,210.447617 152.629791,222.104614 
	C151.516876,225.200195 150.771988,228.165680 149.965607,231.114365 
	C148.968414,234.760742 147.920166,238.393158 146.893997,242.031616 
z"/>
<path fill="#B636E9" opacity="1.000000" stroke="none" 
	d="
M266.955566,246.908630 
	C261.866455,253.907043 256.777344,260.905457 251.350464,267.450592 
	C250.995728,261.282257 250.978760,255.567200 250.966644,249.546631 
	C250.981781,248.831024 250.992065,248.420914 251.000565,248.005096 
	C250.998779,247.999390 251.010315,247.997635 251.184052,247.868652 
	C251.575760,247.551514 251.773712,247.344223 252.107742,246.754059 
	C252.143295,243.878586 252.022720,241.366821 252.085999,238.576050 
	C257.157990,230.843079 262.046112,223.389130 267.175049,216.271042 
	C267.455444,220.031082 267.582306,223.456940 267.515900,226.879059 
	C267.386261,233.556686 267.148499,240.232224 266.955566,246.908630 
z"/>
<path fill="#52515E" opacity="1.000000" stroke="none" 
	d="
M276.939178,334.556366 
	C273.737976,330.134888 270.867218,325.920227 267.996460,321.705536 
	C267.525482,321.818481 267.054504,321.931458 266.583527,322.044403 
	C267.093842,324.902527 267.695221,327.748657 268.073517,330.624115 
	C268.245758,331.933411 268.082581,334.450684 267.892639,334.468140 
	C265.297943,334.705933 262.664337,334.675232 260.071350,334.408691 
	C259.907013,334.391785 259.917786,331.881012 259.985718,330.537415 
	C260.232697,325.652161 260.594879,320.772156 260.793274,315.885284 
	C260.867279,314.062286 260.250824,310.705933 260.560822,310.632568 
	C263.399628,309.960632 266.420563,309.249939 268.431366,312.687775 
	C270.748779,316.649811 273.382568,320.426819 275.878967,324.284210 
	C276.386261,324.140778 276.893555,323.997375 277.400848,323.853943 
	C276.768646,320.696350 276.055023,317.551758 275.546417,314.374359 
	C275.356812,313.189758 275.487274,310.901276 275.741791,310.861908 
	C278.151703,310.489166 280.633972,310.323181 283.059937,310.524689 
	C283.577026,310.567627 284.393005,312.377441 284.317413,313.312286 
	C283.857208,319.002075 282.818329,324.666290 282.693146,330.354889 
	C282.600647,334.557465 281.083923,335.753510 276.939178,334.556366 
z"/>
<path fill="#52515E" opacity="1.000000" stroke="none" 
	d="
M185.095520,322.052551 
	C184.561798,319.187592 183.891159,316.708954 183.540359,314.185822 
	C183.379120,313.026123 183.693466,310.786774 184.051208,310.732086 
	C186.468811,310.362640 188.971466,310.284821 191.407211,310.520203 
	C191.900024,310.567841 192.638382,312.389587 192.559097,313.334229 
	C192.082474,319.012756 191.494492,324.686859 190.726532,330.332886 
	C190.512039,331.909790 189.563095,333.386749 188.951080,334.909576 
	C187.123520,334.123718 184.686874,333.826813 183.587006,332.456757 
	C180.727371,328.894562 178.454849,324.861084 175.948074,321.015625 
	C175.493469,321.161224 175.038864,321.306793 174.584259,321.452362 
	C175.280350,325.757629 175.976456,330.062927 176.777985,335.020294 
	C174.712250,335.020294 172.929276,334.973236 171.149643,335.030243 
	C167.612030,335.143524 167.288757,333.992920 168.073181,330.476959 
	C169.124435,325.765137 168.739288,320.726624 168.902176,315.826050 
	C168.962875,314.000061 168.829926,312.167603 168.785248,310.338104 
	C171.331924,311.000061 174.674927,310.882904 176.251312,312.494141 
	C179.099487,315.405273 180.865723,319.366882 183.192764,322.816284 
	C183.329346,323.018738 184.434769,322.567657 185.095520,322.052551 
z"/>
<path fill="#AD04D4" opacity="1.000000" stroke="none" 
	d="
M289.026917,209.974197 
	C288.763824,209.801361 288.526703,209.598236 288.168030,208.776611 
	C287.330994,204.508575 286.641449,200.828735 285.951904,197.148895 
	C293.330292,202.729553 300.708710,208.310226 308.403778,213.978668 
	C311.145355,215.019745 313.556183,216.732132 315.997955,216.777481 
	C322.190247,216.892502 323.803986,221.834152 326.340363,225.739594 
	C326.968811,226.707321 326.256775,228.545593 326.129913,230.338272 
	C319.291534,229.889618 312.484192,229.086380 305.666504,227.866730 
	C307.073303,226.399475 308.490387,225.348618 309.907501,224.297760 
	C308.745789,222.939667 307.824554,221.199142 306.380035,220.290878 
	C300.684906,216.710052 294.825409,213.390610 289.026917,209.974197 
z"/>
<path fill="#7D39EC" opacity="1.000000" stroke="none" 
	d="
M166.972046,269.067261 
	C162.332764,264.055267 157.693466,259.043274 153.063202,253.282547 
	C154.087021,246.258591 155.101822,239.983383 156.354294,233.963928 
	C161.422958,240.456284 166.253952,246.692886 170.768997,253.151260 
	C169.292709,258.604462 168.132385,263.835846 166.972046,269.067261 
z"/>
<path fill="#52515E" opacity="1.000000" stroke="none" 
	d="
M362.802612,311.786560 
	C362.873505,314.361084 362.873505,316.565552 362.873505,318.769989 
	C363.725403,318.795898 364.577271,318.821838 365.429169,318.847748 
	C365.429169,317.305664 365.708557,315.698761 365.369049,314.235443 
	C364.729004,311.476898 365.387939,310.027679 368.416656,310.134491 
	C369.577576,310.175415 370.783325,309.942322 371.892914,310.183044 
	C373.216431,310.470154 374.458740,311.131866 375.736206,311.631317 
	C375.171204,312.859192 374.777527,314.209106 374.006989,315.290558 
	C372.182373,317.851532 370.049896,320.197357 368.283630,322.794617 
	C366.504883,325.410217 365.621735,328.094543 368.735352,330.646667 
	C369.397858,331.189667 369.759430,332.909088 369.392609,333.666656 
	C369.038879,334.397186 367.596741,334.808807 366.574127,334.957550 
	C365.110046,335.170532 363.569763,335.178314 362.105377,334.969574 
	C360.921234,334.800751 359.205750,334.471954 358.821960,333.681824 
	C358.446564,332.908783 359.670410,331.488312 359.814728,330.305939 
	C360.092041,328.033936 360.932159,325.315430 360.041107,323.529327 
	C358.460632,320.361237 355.688568,317.803986 353.573914,314.876404 
	C352.898773,313.941711 352.309753,312.573914 352.483337,311.538757 
	C352.584320,310.936462 354.307434,310.164185 355.247345,310.229950 
	C357.757538,310.405609 360.238922,310.992828 362.802612,311.786560 
z"/>
<path fill="#52515E" opacity="1.000000" stroke="none" 
	d="
M215.695831,333.882568 
	C213.953491,334.525604 212.349014,334.998627 210.755951,334.962860 
	C209.021194,334.923950 207.297028,334.412872 205.568237,334.107605 
	C206.177185,332.602753 207.320114,331.089417 207.296417,329.594543 
	C207.220886,324.831268 206.752777,320.071320 206.343735,315.318024 
	C206.226746,313.958588 205.311081,312.464722 205.685745,311.340485 
	C205.919250,310.639832 207.874054,310.231659 209.074936,310.186615 
	C212.883835,310.043701 216.707138,310.014526 220.512589,310.197357 
	C221.825760,310.260437 224.040817,310.852081 224.215790,311.588928 
	C224.689499,313.583679 224.289658,315.785889 224.236282,317.905823 
	C222.463730,317.637665 220.669678,317.464203 218.926193,317.068146 
	C217.762238,316.803741 216.676102,315.930084 215.543655,315.907654 
	C214.986664,315.896576 213.783081,317.573669 213.943710,317.839630 
	C214.525787,318.803436 215.595108,319.460297 216.416443,320.295990 
	C217.152847,321.045258 218.152100,321.792725 218.374054,322.702393 
	C218.526382,323.326630 217.657440,324.797760 217.055588,324.914581 
	C211.876648,325.919800 213.205307,328.268616 215.522797,331.096161 
	C215.956070,331.624786 215.749832,332.677521 215.695831,333.882568 
z"/>
<path fill="#52515E" opacity="1.000000" stroke="none" 
	d="
M329.992798,310.129242 
	C332.309082,310.129578 334.183502,309.875183 335.950043,310.202606 
	C337.664520,310.520386 340.172607,311.032257 340.689453,312.191345 
	C341.321350,313.608582 340.242828,315.788452 339.903931,317.638550 
	C337.896149,317.165741 335.888367,316.692932 333.121124,316.041260 
	C332.562256,320.347687 331.243195,325.392456 333.919220,330.253204 
	C335.912598,333.873932 334.849030,335.098541 331.086578,335.022552 
	C329.592255,334.992371 327.802612,335.494019 326.687439,334.836975 
	C325.623810,334.210327 324.365601,331.982117 324.739075,331.162415 
	C327.126434,325.922485 327.719543,321.041779 325.909454,314.992310 
	C325.224030,315.454132 324.683228,315.949036 324.047058,316.220337 
	C322.672943,316.806396 321.249908,317.277771 319.846863,317.796082 
	C319.359955,316.021942 318.479279,314.229828 318.559296,312.481659 
	C318.596924,311.659607 320.414673,310.397797 321.544159,310.251862 
	C324.158997,309.914062 326.845978,310.134827 329.992798,310.129242 
z"/>
<path fill="#0B0FE8" opacity="1.000000" stroke="none" 
	d="
M280.855377,179.898926 
	C279.364502,178.561081 277.873627,177.223221 276.277649,175.606781 
	C283.884430,165.650696 293.319580,158.380722 304.980133,153.930603 
	C317.582764,149.120972 329.573334,149.663177 341.176971,157.348267 
	C341.284119,157.709122 341.006104,157.990463 340.663330,157.944458 
	C339.207306,157.619080 338.094055,157.339706 336.610687,156.983185 
	C334.538361,156.526306 332.836121,156.146606 330.752625,155.603683 
	C329.004486,155.234253 327.637604,155.028030 325.989502,154.626465 
	C322.234497,154.286728 318.680573,153.602081 315.302521,154.103180 
	C306.534302,155.403839 298.321228,158.116104 292.978577,165.993668 
	C293.001068,166.003571 292.985687,165.956863 292.676453,165.942078 
	C292.228516,166.279083 292.089783,166.630905 291.976440,166.991760 
	C292.001862,167.000778 291.985291,166.949509 291.641968,166.901093 
	C290.848083,167.565491 290.397583,168.278275 289.974609,168.997559 
	C290.002136,169.004044 289.989838,168.948792 289.704712,168.978699 
	C289.262817,169.337708 289.106049,169.666824 288.977478,170.003235 
	C289.005615,170.010498 289.002991,169.952377 288.689301,170.025513 
	C288.092834,170.419800 287.810059,170.740967 287.393494,171.342346 
	C285.124939,174.381348 282.990173,177.140137 280.855377,179.898926 
z"/>
<path fill="#3B0BE5" opacity="1.000000" stroke="none" 
	d="
M356.607544,202.159393 
	C356.605011,201.589096 356.602448,201.018799 356.533081,199.719208 
	C354.636719,194.369034 352.807190,189.748154 351.231812,184.905304 
	C350.269836,181.876511 349.053711,179.069717 347.868225,175.848877 
	C346.557159,170.318954 345.215454,165.203079 343.965576,160.009827 
	C344.057434,159.932434 344.237091,159.773010 344.237091,159.773010 
	C356.894684,169.503311 362.458557,188.291321 357.196594,204.378723 
	C356.810303,203.560394 356.708923,202.859894 356.607544,202.159393 
z"/>
<path fill="#A736E7" opacity="1.000000" stroke="none" 
	d="
M267.216064,246.692627 
	C267.148499,240.232224 267.386261,233.556686 267.515900,226.879059 
	C267.582306,223.456940 267.455444,220.031082 267.255676,215.934143 
	C267.809814,213.799774 268.524170,212.338150 269.539673,211.036224 
	C272.014221,216.479889 274.187592,221.763855 276.360962,227.047821 
	C273.399475,233.524094 270.438019,240.000366 267.216064,246.692627 
z"/>
<path fill="#B636E9" opacity="1.000000" stroke="none" 
	d="
M182.984039,278.949127 
	C179.409012,277.197388 175.833984,275.445648 172.204620,272.974487 
	C172.447159,270.131439 172.535309,267.951416 173.090164,265.897461 
	C173.906418,262.875824 175.055695,259.944153 176.377838,257.101379 
	C179.846405,259.118622 183.000275,261.008667 185.889633,263.184509 
	C184.744766,268.629883 183.864395,273.789520 182.984039,278.949127 
z"/>
<path fill="#52515E" opacity="1.000000" stroke="none" 
	d="
M297.777100,334.501038 
	C298.075958,329.675293 298.951050,325.120667 299.253052,320.528381 
	C299.380493,318.590851 298.514679,316.482513 297.719055,314.614197 
	C296.491638,311.732178 296.908295,310.133362 300.346802,310.143738 
	C301.838074,310.148254 303.335876,310.059479 304.819305,310.168304 
	C308.381378,310.429688 308.582611,312.197510 306.718353,314.733978 
	C304.687103,317.497711 304.332306,327.481171 306.048462,330.091095 
	C306.768066,331.185455 307.062256,332.559509 307.549866,333.806396 
	C306.222321,334.211578 304.914124,334.852692 303.562378,334.963654 
	C301.766602,335.111176 299.936829,334.845245 297.777100,334.501038 
z"/>
<path fill="#52515E" opacity="1.000000" stroke="none" 
	d="
M246.204056,314.304810 
	C243.551086,317.421844 243.206100,327.283661 245.260880,330.234375 
	C245.934250,331.201324 246.799316,332.711945 246.466492,333.512177 
	C246.133011,334.313995 244.451797,334.744995 243.290894,334.962128 
	C242.009430,335.201813 240.647888,335.006226 239.321320,335.013245 
	C235.866211,335.031464 235.415787,333.450592 236.789536,330.594604 
	C239.328278,325.316681 239.378555,319.955048 236.805511,314.664734 
	C235.456573,311.891205 235.819061,309.735291 239.245438,310.291534 
	C241.833908,310.711792 247.070648,307.107178 246.204056,314.304810 
z"/>
<path fill="#52515E" opacity="1.000000" stroke="none" 
	d="
M152.574677,323.899261 
	C152.823532,326.153625 153.094650,327.937561 153.316254,329.727661 
	C153.523590,331.402466 153.678406,333.083832 153.856339,334.762299 
	C150.772400,334.575226 147.686508,334.405731 144.619736,334.064423 
	C144.563370,334.058136 144.376389,331.806030 144.858521,330.940735 
	C147.774551,325.707550 147.670044,319.801910 144.842789,314.137024 
	C144.428116,313.306152 145.617050,310.704681 146.571091,310.370575 
	C148.351898,309.746948 150.663162,309.734589 152.442856,310.356873 
	C153.478210,310.718872 154.589172,312.868073 154.479568,314.108246 
	C154.202103,317.247559 153.254501,320.327698 152.574677,323.899261 
z"/>
<path fill="#8507CD" opacity="1.000000" stroke="none" 
	d="
M289.020844,210.421844 
	C294.825409,213.390610 300.684906,216.710052 306.380035,220.290878 
	C307.824554,221.199142 308.745789,222.939667 309.907501,224.297760 
	C308.490387,225.348618 307.073303,226.399475 305.354828,227.652191 
	C299.286560,224.875137 293.519623,221.896225 287.536346,218.659210 
	C287.884918,215.890579 288.449860,213.380020 289.020844,210.421844 
z"/>
<path fill="#D434E8" opacity="1.000000" stroke="none" 
	d="
M264.964111,178.069763 
	C262.382477,175.953720 259.800873,173.837662 256.900330,171.230988 
	C256.145660,170.521606 255.709885,170.302856 255.274094,170.084106 
	C255.274094,170.084106 255.036331,169.940613 254.848572,169.724274 
	C254.522568,169.349167 254.354034,169.235077 254.155182,169.165710 
	C254.155182,169.165710 253.986588,169.050797 253.860443,168.654785 
	C252.844009,167.343613 251.945938,166.435867 251.064926,165.511887 
	C248.447739,162.767059 248.102036,160.231415 251.770920,158.080643 
	C256.758026,161.165482 261.745148,164.250305 266.718414,167.994263 
	C266.124390,171.792175 265.544250,174.930969 264.964111,178.069763 
z"/>
<path fill="#D434E8" opacity="1.000000" stroke="none" 
	d="
M250.961792,249.852142 
	C250.978760,255.567200 250.995728,261.282257 251.010422,267.452881 
	C248.208878,270.089935 245.409592,272.271393 242.295822,274.118713 
	C242.035904,270.683411 242.246231,267.573853 242.079849,264.484589 
	C241.995682,262.922394 241.230301,261.396942 240.897415,259.568817 
	C241.206024,258.909332 241.390152,258.535919 241.845612,258.049866 
	C243.480713,256.368103 244.844498,254.798965 246.499969,253.136017 
	C247.532822,252.358124 248.273956,251.674042 249.007629,250.995422 
	C249.000137,251.000916 248.986923,251.013962 249.195007,250.880981 
	C249.662643,250.536545 249.867752,250.281342 250.010086,249.990417 
	C250.001740,249.998428 249.985367,250.014679 250.230652,249.981079 
	C250.475922,249.947495 250.961792,249.852142 250.961792,249.852142 
z"/>
<path fill="#5209E7" opacity="1.000000" stroke="none" 
	d="
M204.035965,144.301163 
	C215.292328,143.216522 226.056427,145.403244 236.913513,149.640594 
	C237.248474,150.083115 237.333176,150.485703 236.908600,150.340256 
	C234.243103,149.771164 232.002182,149.347519 229.426559,148.736237 
	C222.618469,147.837784 216.145081,147.126953 209.671692,146.416107 
	C209.617691,146.930771 209.563690,147.445435 209.509689,147.960098 
	C213.625992,149.007751 217.742294,150.055405 221.886230,151.472244 
	C221.890717,152.337372 221.867569,152.833298 221.419159,153.275513 
	C214.987137,152.748978 208.980377,152.276169 202.934341,151.430954 
	C200.535843,150.060425 198.176620,149.062302 196.274460,148.257538 
	C198.404037,147.171997 201.220001,145.736588 204.035965,144.301163 
z"/>
<path fill="#573BED" opacity="1.000000" stroke="none" 
	d="
M156.116623,233.708160 
	C155.101822,239.983383 154.087021,246.258591 152.978973,252.962830 
	C150.915741,249.848923 148.945770,246.306015 146.934906,242.397354 
	C147.920166,238.393158 148.968414,234.760742 149.965607,231.114365 
	C150.771988,228.165680 151.516876,225.200195 152.649246,222.096832 
	C153.009430,221.951508 153.043091,221.976303 153.066483,222.275742 
	C153.369904,223.096802 153.649933,223.618423 153.972961,224.299774 
	C154.015976,224.459518 154.076675,224.784775 154.063171,225.186768 
	C154.738647,228.295242 155.427643,231.001694 156.116623,233.708160 
z"/>
<path fill="#E633E7" opacity="1.000000" stroke="none" 
	d="
M240.772934,259.854858 
	C241.230301,261.396942 241.995682,262.922394 242.079849,264.484589 
	C242.246231,267.573853 242.035904,270.683411 241.980957,274.222168 
	C238.898575,276.103302 235.816544,277.546814 232.361572,278.979340 
	C232.049728,274.723602 232.110840,270.478851 232.283890,265.657043 
	C235.188202,263.338318 237.980576,261.596588 240.772934,259.854858 
z"/>
<path fill="#0B0FE8" opacity="1.000000" stroke="none" 
	d="
M159.319641,167.288223 
	C165.942993,158.875412 174.572586,153.184631 184.841949,149.186768 
	C185.647964,151.267563 185.861160,153.075928 185.706635,154.970612 
	C181.559052,156.688232 177.779175,158.319534 173.781189,160.004272 
	C173.259109,160.161179 173.052017,160.363632 172.853363,160.680405 
	C172.764938,160.695709 172.638519,160.823120 172.431244,160.850357 
	C172.223984,160.877594 171.867325,161.095779 171.627396,161.168915 
	C170.968094,161.503052 170.548721,161.764038 169.771576,162.051041 
	C166.049057,163.814117 162.684357,165.551178 159.319641,167.288223 
z"/>
<path fill="#350A96" opacity="1.000000" stroke="none" 
	d="
M276.682983,226.982941 
	C274.187592,221.763855 272.014221,216.479889 269.385590,210.753586 
	C268.267181,209.505722 267.604034,208.700195 266.937683,207.481918 
	C267.055145,205.971649 267.175781,204.874146 267.296417,203.776627 
	C272.082886,207.628815 276.869385,211.481003 281.803284,215.626160 
	C280.302185,219.585449 278.653595,223.251770 276.682983,226.982941 
z"/>
<path fill="#573BED" opacity="1.000000" stroke="none" 
	d="
M159.255432,167.313599 
	C162.684357,165.551178 166.049057,163.814117 169.683014,162.385849 
	C168.311768,165.147064 166.671280,167.599487 165.016098,170.026855 
	C165.001404,170.001816 165.053375,170.027740 164.711166,170.005371 
	C163.922165,170.673904 163.475357,171.364792 163.016479,172.028595 
	C163.004379,172.001511 163.058777,172.025238 162.717896,172.037170 
	C160.932251,174.416428 159.487503,176.783737 157.898468,179.459320 
	C156.545624,182.195908 155.337051,184.624237 154.128510,187.052582 
	C153.244171,184.555588 152.359818,182.058578 151.276276,179.232681 
	C151.325943,178.434753 151.574814,177.965729 152.184753,177.123993 
	C152.763718,176.499557 152.911057,176.211731 152.987839,175.887817 
	C153.702515,174.743011 154.417206,173.598190 155.636978,172.142715 
	C156.419495,171.525711 156.696899,171.219376 156.974304,170.913025 
	C156.974304,170.913025 156.918365,171.009613 157.148865,170.834930 
	C157.592590,170.100830 157.805801,169.541397 158.018997,168.981964 
	C158.018997,168.981964 158.024673,169.019897 158.295822,168.885590 
	C158.740204,168.371750 158.913437,167.992218 159.086670,167.612671 
	C159.086670,167.612671 159.191208,167.338959 159.255432,167.313599 
z"/>
<path fill="#B636E9" opacity="1.000000" stroke="none" 
	d="
M251.552277,157.819382 
	C248.102036,160.231415 248.447739,162.767059 251.064926,165.511887 
	C251.945938,166.435867 252.844009,167.343613 253.798981,168.573364 
	C253.429276,168.923828 252.994904,168.959702 251.954971,168.879700 
	C247.428635,166.245575 243.507828,163.727325 239.458466,160.983185 
	C238.846725,160.578934 238.363586,160.400589 237.858551,160.266968 
	C237.836670,160.311722 237.742401,160.279495 237.704010,159.987183 
	C237.636520,159.501938 237.607407,159.309036 237.861267,158.990250 
	C238.422104,158.576401 238.699982,158.288437 239.129150,157.667297 
	C239.173813,155.240509 239.067169,153.146866 239.013977,150.991211 
	C239.067413,150.929169 239.175339,150.806015 239.175339,150.806015 
	C243.228104,153.056717 247.280869,155.307419 251.552277,157.819382 
z"/>
<path fill="#3B0BE5" opacity="1.000000" stroke="none" 
	d="
M186.074356,154.884308 
	C185.861160,153.075928 185.647964,151.267563 185.209961,149.142883 
	C191.056900,147.287201 197.128677,145.747833 203.618195,144.254807 
	C201.220001,145.736588 198.404037,147.171997 196.274460,148.257538 
	C198.176620,149.062302 200.535843,150.060425 202.501724,151.481293 
	C196.763702,152.897461 191.419022,153.890884 186.074356,154.884308 
z"/>
<path fill="#A736E7" opacity="1.000000" stroke="none" 
	d="
M176.063126,256.974152 
	C175.055695,259.944153 173.906418,262.875824 173.090164,265.897461 
	C172.535309,267.951416 172.447159,270.131439 172.066284,272.659698 
	C170.419174,271.918365 168.856079,270.772400 167.132523,269.346863 
	C168.132385,263.835846 169.292709,258.604462 171.044891,253.317444 
	C173.112198,254.499268 174.587662,255.736710 176.063126,256.974152 
z"/>
<path fill="#E633E7" opacity="1.000000" stroke="none" 
	d="
M265.127014,178.338531 
	C265.544250,174.930969 266.124390,171.792175 266.860077,168.296478 
	C268.169159,168.804810 269.322723,169.670013 270.784607,170.717194 
	C271.092926,170.899139 271.010132,170.879654 271.010132,170.879654 
	C272.229309,172.039825 273.448517,173.200012 274.813324,174.684723 
	C273.986176,177.695618 273.013397,180.382004 271.767883,183.343582 
	C270.672638,183.048523 269.850128,182.478287 269.027618,181.908035 
	C267.781708,180.807785 266.535828,179.707535 265.127014,178.338531 
z"/>
<path fill="#D434E8" opacity="1.000000" stroke="none" 
	d="
M183.242233,279.168579 
	C183.864395,273.789520 184.744766,268.629883 186.126373,263.285034 
	C187.070938,263.317505 187.514282,263.535278 188.237396,263.828552 
	C189.029434,264.152649 189.541702,264.401184 190.018036,265.084320 
	C188.891876,270.387024 187.801636,275.255188 186.711395,280.123322 
	C185.641083,279.878235 184.570755,279.633148 183.242233,279.168579 
z"/>
<path fill="#350A96" opacity="1.000000" stroke="none" 
	d="
M271.422394,170.713577 
	C271.010132,170.879654 271.092926,170.899139 271.087280,170.921112 
	C276.542877,163.726715 283.346222,158.299850 292.304840,155.667206 
	C286.774139,160.466614 281.300842,165.335693 275.650970,169.990417 
	C274.802094,170.689789 273.127350,170.386810 271.422394,170.713577 
z"/>
<path fill="#8507CD" opacity="1.000000" stroke="none" 
	d="
M328.904114,234.579712 
	C335.726349,231.951126 342.548553,229.322540 349.090027,226.802124 
	C344.515198,233.547089 337.283661,237.157654 328.348969,238.181824 
	C328.058167,237.425095 328.090637,237.102493 328.309998,236.548492 
	C328.632629,235.737976 328.768372,235.158844 328.904114,234.579712 
z"/>
<path fill="#E633E7" opacity="1.000000" stroke="none" 
	d="
M186.985901,280.369202 
	C187.801636,275.255188 188.891876,270.387024 190.350662,265.161621 
	C192.183075,265.312805 193.646942,265.821259 195.110809,266.329712 
	C194.408112,271.223816 193.705429,276.117920 193.002487,281.433594 
	C191.088287,281.441772 189.174362,281.028412 186.985901,280.369202 
z"/>
<path fill="#350A96" opacity="1.000000" stroke="none" 
	d="
M328.123138,236.779877 
	C328.090637,237.102493 328.058167,237.425095 327.908142,238.219879 
	C318.790985,240.877625 311.136780,237.502197 303.813721,232.201080 
	C305.402344,232.430740 306.999115,232.615662 308.577362,232.902496 
	C310.195679,233.196594 311.795868,233.590393 313.892761,234.417023 
	C318.962097,235.522278 323.542603,236.151077 328.123138,236.779877 
z"/>
<path fill="#6608E7" opacity="1.000000" stroke="none" 
	d="
M328.309998,236.548492 
	C323.542603,236.151077 318.962097,235.522278 314.273926,234.558014 
	C318.778717,234.349350 323.391144,234.476151 328.453857,234.591339 
	C328.768372,235.158844 328.632629,235.737976 328.309998,236.548492 
z"/>
<path fill="#880A8C" opacity="1.000000" stroke="none" 
	d="
M356.495056,202.440918 
	C356.708923,202.859894 356.810303,203.560394 356.906555,204.619751 
	C356.901428,204.978592 356.593628,205.163544 356.414795,205.177307 
	C356.284851,204.368179 356.333710,203.545303 356.495056,202.440918 
z"/>
<path fill="#B636E9" opacity="1.000000" stroke="none" 
	d="
M237.146576,149.904419 
	C237.632019,149.919235 238.219360,150.112747 238.991013,150.556137 
	C239.175339,150.806015 239.067413,150.929169 238.796188,150.949387 
	C238.127701,150.808304 237.730438,150.647003 237.333176,150.485687 
	C237.333176,150.485703 237.248474,150.083115 237.146576,149.904419 
z"/>
<path fill="#0B0FE8" opacity="1.000000" stroke="none" 
	d="
M157.727661,169.109283 
	C157.805801,169.541397 157.592590,170.100830 157.100739,170.806702 
	C157.026840,170.380966 157.231567,169.808792 157.727661,169.109283 
z"/>
<path fill="#0B0FE8" opacity="1.000000" stroke="none" 
	d="
M341.434143,157.580276 
	C342.010193,157.740067 342.436249,158.028717 342.949951,158.659454 
	C343.037659,159.001541 342.996307,159.222198 342.717468,159.112961 
	C341.961090,158.665970 341.483612,158.328217 341.006104,157.990463 
	C341.006104,157.990463 341.284119,157.709122 341.434143,157.580276 
z"/>
<path fill="#0B0FE8" opacity="1.000000" stroke="none" 
	d="
M156.646881,170.947784 
	C156.696899,171.219376 156.419495,171.525711 155.844055,171.938675 
	C155.803833,171.691040 156.061646,171.336777 156.646881,170.947784 
z"/>
<path fill="#0B0FE8" opacity="1.000000" stroke="none" 
	d="
M158.828384,167.788513 
	C158.913437,167.992218 158.740204,168.371750 158.276733,168.887421 
	C158.181015,168.670471 158.375565,168.317398 158.828384,167.788513 
z"/>
<path fill="#3A3BE9" opacity="1.000000" stroke="none" 
	d="
M152.766510,176.022095 
	C152.911057,176.211731 152.763718,176.499557 152.365814,176.919159 
	C152.305588,176.776840 152.425385,176.466614 152.766510,176.022095 
z"/>
<path fill="#3B0BE5" opacity="1.000000" stroke="none" 
	d="
M343.065430,158.892792 
	C343.389404,158.962067 343.685577,159.140121 344.109436,159.545593 
	C344.237091,159.773010 344.057434,159.932434 343.804688,159.879913 
	C343.340637,159.649628 343.155426,159.447891 342.996307,159.222198 
	C342.996307,159.222198 343.037659,159.001541 343.065430,158.892792 
z"/>
<path fill="#350A96" opacity="1.000000" stroke="none" 
	d="
M301.509888,231.511688 
	C301.493134,231.480042 301.526672,231.543320 301.509888,231.511688 
z"/>
<path fill="#06021D" opacity="1.000000" stroke="none" 
	d="
M313.606201,205.160980 
	C305.845795,203.479523 299.452057,200.044022 294.100006,194.147385 
	C294.433350,192.873260 294.771484,192.163910 295.394836,191.250488 
	C297.860748,188.280548 300.041443,185.514679 302.518555,182.546677 
	C304.208069,181.226532 305.601135,180.108505 307.320007,178.923462 
	C309.118408,177.928558 310.591034,177.000687 312.408478,176.048904 
	C313.836243,175.667038 314.919159,175.309067 316.452454,174.984344 
	C319.855560,175.110947 322.808319,175.204330 325.902313,175.591217 
	C328.048584,177.923676 330.053619,179.962646 332.058655,182.001617 
	C332.478058,183.411835 332.921082,184.815506 333.313110,186.233292 
	C336.083221,196.251328 330.167358,204.641434 319.970123,205.112671 
	C317.999329,205.203751 316.019684,205.102646 313.606201,205.160980 
z"/>
<path fill="#880A8C" opacity="1.000000" stroke="none" 
	d="
M332.403259,182.059555 
	C330.053619,179.962646 328.048584,177.923676 326.317566,175.436676 
	C329.388947,175.278473 332.186310,175.568298 335.325043,175.997894 
	C337.078217,176.556198 338.490082,176.974716 340.133240,177.589417 
	C341.482605,178.257187 342.600586,178.728760 343.934082,179.457916 
	C346.425598,181.519440 348.701660,183.323364 350.977692,185.127289 
	C352.807190,189.748154 354.636719,194.369034 356.492859,199.293274 
	C356.218292,199.492737 355.708038,199.459381 355.645752,199.274841 
	C351.941650,188.299423 343.651031,183.470169 332.403259,182.059555 
z"/>
<path fill="#EC01DB" opacity="1.000000" stroke="none" 
	d="
M281.024353,180.177246 
	C282.990173,177.140137 285.124939,174.381348 287.718384,171.276367 
	C288.452332,170.604233 288.727661,170.278320 289.002991,169.952393 
	C289.002991,169.952377 289.005615,170.010498 289.235352,169.928192 
	C289.640015,169.546875 289.814941,169.247833 289.989838,168.948792 
	C289.989838,168.948792 290.002136,169.004044 290.269043,168.911835 
	C291.019073,168.196243 291.502197,167.572876 291.985291,166.949524 
	C291.985291,166.949509 292.001862,167.000778 292.252747,166.948166 
	C292.664307,166.582657 292.825012,166.269760 292.985687,165.956863 
	C292.985687,165.956863 293.001068,166.003571 293.327362,165.972229 
	C297.759918,163.555649 301.866150,161.170410 306.197388,159.071320 
	C307.274872,161.866135 308.127441,164.374786 308.735718,166.912659 
	C308.491425,166.941879 308.009918,167.043030 307.688477,167.154083 
	C305.247253,168.500488 303.127502,169.735840 300.715118,171.107056 
	C298.939392,172.420319 297.456329,173.597702 295.667725,174.937256 
	C292.092804,178.431229 288.823364,181.763016 285.553925,185.094788 
	C284.100372,183.548386 282.646851,182.001968 281.024353,180.177246 
z"/>
<path fill="#8507CD" opacity="1.000000" stroke="none" 
	d="
M269.021973,182.319901 
	C269.850128,182.478287 270.672638,183.048523 271.769409,183.739426 
	C276.518677,188.132553 280.993744,192.405029 285.710327,196.913208 
	C286.641449,200.828735 287.330994,204.508575 288.021973,208.592926 
	C282.866974,204.333694 277.108093,200.157425 272.787140,194.817581 
	C270.319794,191.768433 270.195587,186.823242 269.021973,182.319901 
z"/>
<path fill="#573BED" opacity="1.000000" stroke="none" 
	d="
M285.662964,185.430466 
	C288.823364,181.763016 292.092804,178.431229 295.672791,175.393082 
	C295.692108,180.942673 295.400848,186.198608 295.109619,191.454559 
	C294.771484,192.163910 294.433350,192.873260 293.947937,193.843475 
	C291.124451,191.324936 288.448242,188.545532 285.662964,185.430466 
z"/>
<path fill="#6608E7" opacity="1.000000" stroke="none" 
	d="
M222.123734,268.274963 
	C216.299469,268.410278 210.475204,268.545624 204.301315,268.053894 
	C203.540741,265.493652 203.230530,263.532227 202.698135,261.633026 
	C201.543655,257.514679 200.275574,253.428207 199.467346,249.269165 
	C200.979904,249.054672 202.079071,248.899734 203.199341,248.844238 
	C203.220459,248.943680 203.033310,249.023163 203.281189,249.248688 
	C205.007324,249.377426 206.485565,249.280640 208.382019,249.111084 
	C210.212387,249.079605 211.624557,249.120911 213.295654,249.326523 
	C214.360077,249.647675 215.165573,249.804550 215.987335,250.362213 
	C216.687988,253.553268 217.372360,256.343536 217.766602,259.340088 
	C215.086456,260.392059 212.696487,261.237732 210.306503,262.083405 
	C210.401367,262.418762 210.496216,262.754120 210.591064,263.089478 
	C214.057480,262.925507 217.523880,262.761536 221.046494,263.003052 
	C221.443039,265.030670 221.783386,266.652832 222.123734,268.274963 
z"/>
<path fill="#5209E7" opacity="1.000000" stroke="none" 
	d="
M199.053940,249.328705 
	C200.275574,253.428207 201.543655,257.514679 202.698135,261.633026 
	C203.230530,263.532227 203.540741,265.493652 203.938751,267.847382 
	C201.252609,267.693512 198.579437,267.119141 195.508530,266.437256 
	C193.646942,265.821259 192.183075,265.312805 190.386597,264.727051 
	C189.541702,264.401184 189.029434,264.152649 188.244110,263.422180 
	C186.983673,257.550079 185.996307,252.159927 185.421112,246.812592 
	C190.240189,247.679855 194.647064,248.504288 199.053940,249.328705 
z"/>
<path fill="#8508E6" opacity="1.000000" stroke="none" 
	d="
M222.515076,268.263489 
	C221.783386,266.652832 221.443039,265.030670 221.370300,262.838043 
	C226.421143,260.824158 231.204376,259.380737 236.333862,257.870911 
	C237.799805,257.409119 238.919525,257.013672 240.241104,256.922485 
	C240.820084,257.538635 241.197189,257.850555 241.574280,258.162476 
	C241.390152,258.535919 241.206024,258.909332 240.897415,259.568817 
	C237.980576,261.596588 235.188202,263.338318 232.162888,265.278137 
	C228.922104,266.401520 225.914246,267.326752 222.515076,268.263489 
z"/>
<path fill="#5209AA" opacity="1.000000" stroke="none" 
	d="
M239.587036,161.209076 
	C243.507828,163.727325 247.428635,166.245575 251.633514,168.946655 
	C252.829620,172.461151 252.670258,177.154068 254.852631,178.871765 
	C261.663666,184.232681 262.147003,191.534012 262.819031,199.409302 
	C262.388672,199.909943 262.213013,199.938446 261.915436,199.653885 
	C255.505569,194.282379 249.217606,189.223953 242.949768,183.768906 
	C241.663696,180.622375 239.353531,177.912552 239.241760,175.114899 
	C238.921616,167.101959 233.152618,165.263565 227.312561,163.368210 
	C224.025635,162.301468 220.575531,161.737579 217.167984,160.524872 
	C217.110168,158.408157 217.083298,156.713699 217.458771,154.982788 
	C224.488205,156.724030 231.115311,158.501770 237.742401,160.279495 
	C237.742401,160.279495 237.836670,160.311722 237.992752,160.492279 
	C238.628235,160.851578 239.107635,161.030319 239.587036,161.209076 
z"/>
<path fill="#0B0D81" opacity="1.000000" stroke="none" 
	d="
M262.037354,199.966949 
	C262.213013,199.938446 262.388672,199.909943 262.825684,199.824432 
	C264.363220,200.929352 265.639435,202.091232 267.106018,203.514862 
	C267.175781,204.874146 267.055145,205.971649 266.719360,207.517792 
	C266.504242,207.966400 266.072571,208.067993 265.796936,207.812317 
	C263.302948,206.973633 261.084625,206.390594 258.917053,205.470993 
	C259.990997,203.411926 261.014160,201.689438 262.037354,199.966949 
z"/>
<path fill="#B636E9" opacity="1.000000" stroke="none" 
	d="
M255.399384,170.293274 
	C255.709885,170.302856 256.145660,170.521606 256.703644,170.963318 
	C256.392120,170.958344 255.958405,170.730392 255.399384,170.293274 
z"/>
<path fill="#B636E9" opacity="1.000000" stroke="none" 
	d="
M254.218460,169.312653 
	C254.354034,169.235077 254.522568,169.349167 254.742950,169.634125 
	C254.600388,169.738739 254.419250,169.638489 254.218460,169.312653 
z"/>
<path fill="#0A0DAB" opacity="1.000000" stroke="none" 
	d="
M217.056427,155.019257 
	C217.083298,156.713699 217.110168,158.408157 217.101532,160.951996 
	C217.028595,163.516144 216.991135,165.230896 216.544067,166.946442 
	C212.767471,166.207932 207.990204,166.593262 206.321030,164.500092 
	C202.606461,159.841934 198.637909,160.860519 194.305878,161.770111 
	C177.062668,165.390640 167.751251,177.081711 163.021317,193.122284 
	C160.168945,202.795486 159.805832,212.529953 164.250992,222.046677 
	C164.250992,219.875885 164.250992,217.705109 164.250992,215.534317 
	C165.527267,217.400879 166.014297,219.512924 167.001526,221.357178 
	C170.167938,227.272156 172.513458,234.001160 180.418945,236.091599 
	C187.121780,242.356567 194.749817,246.272400 203.178223,248.744781 
	C202.079071,248.899734 200.979904,249.054672 199.467346,249.269165 
	C194.647064,248.504288 190.240189,247.679855 185.142822,246.612854 
	C171.977524,242.481491 161.282074,236.088776 154.076675,224.784775 
	C154.076675,224.784775 154.015976,224.459518 153.958313,223.994080 
	C153.614777,223.011215 153.328934,222.493759 153.043091,221.976303 
	C153.043091,221.976303 153.009430,221.951508 152.989960,221.959290 
	C148.670975,210.447617 149.563354,199.078918 154.045364,187.432312 
	C155.337051,184.624237 156.545624,182.195908 158.200790,179.299835 
	C160.117859,176.563126 161.588318,174.294189 163.058777,172.025238 
	C163.058777,172.025238 163.004379,172.001511 163.299408,171.931503 
	C164.080750,171.250244 164.567062,170.638992 165.053375,170.027740 
	C165.053375,170.027740 165.001404,170.001816 165.329834,169.901917 
	C167.176575,168.514267 168.646973,167.164490 170.220718,165.948425 
	C184.163193,155.174881 199.920685,152.132721 217.056427,155.019257 
z"/>
<path fill="#AD04D4" opacity="1.000000" stroke="none" 
	d="
M266.072571,208.067993 
	C266.072571,208.067993 266.504242,207.966400 266.722565,207.930542 
	C267.604034,208.700195 268.267181,209.505722 269.084412,210.593887 
	C268.524170,212.338150 267.809814,213.799774 267.014832,215.598297 
	C262.046112,223.389130 257.157990,230.843079 251.829742,238.758057 
	C250.328781,239.848251 249.267929,240.477402 247.936508,240.872101 
	C247.315674,240.029663 246.965439,239.421677 246.834045,238.541656 
	C248.684006,236.158813 250.315109,234.047974 251.975494,231.961105 
	C252.004745,231.985062 251.941330,231.949249 252.205093,231.899841 
	C252.628815,231.545990 252.788773,231.241547 252.970184,230.967682 
	C252.991608,230.998276 252.928467,230.958267 253.245453,230.856689 
	C254.358078,229.484695 255.153717,228.214279 255.973907,226.967773 
	C255.998444,226.991669 255.933548,226.969803 256.225677,226.843201 
	C256.683838,226.133453 256.849823,225.550323 257.022888,224.994415 
	C257.029999,225.021637 256.974121,225.028381 257.284332,224.885529 
	C257.724396,224.312332 257.854218,223.881973 258.209412,223.223770 
	C260.980713,218.019943 263.526642,213.043961 266.072571,208.067993 
z"/>
<path fill="#D434E8" opacity="1.000000" stroke="none" 
	d="
M248.207092,241.106567 
	C249.267929,240.477402 250.328781,239.848251 251.645874,239.037079 
	C252.022720,241.366821 252.143295,243.878586 251.928268,246.872726 
	C251.368164,247.541748 251.174042,247.755920 251.010315,247.997635 
	C251.010315,247.997635 250.998779,247.999390 250.798401,248.211121 
	C250.393814,248.953461 250.189590,249.484070 249.985367,250.014679 
	C249.985367,250.014679 250.001740,249.998428 249.792419,250.112823 
	C249.306213,250.430222 249.107483,250.692474 248.986923,251.013962 
	C248.986923,251.013962 249.000137,251.000916 248.685822,251.020905 
	C247.574097,251.359802 246.776688,251.678711 245.840363,251.673248 
	C244.768234,249.878296 243.835007,248.407730 243.086014,246.658264 
	C244.915863,244.621765 246.561462,242.864166 248.207092,241.106567 
z"/>
<path fill="#AD04D4" opacity="1.000000" stroke="none" 
	d="
M250.230652,249.981079 
	C250.189590,249.484070 250.393814,248.953461 250.800201,248.216827 
	C250.992065,248.420914 250.981781,248.831024 250.966644,249.546631 
	C250.961792,249.852142 250.475922,249.947495 250.230652,249.981079 
z"/>
<path fill="#AD04D4" opacity="1.000000" stroke="none" 
	d="
M251.184052,247.868652 
	C251.174042,247.755920 251.368164,247.541748 251.772141,247.236450 
	C251.773712,247.344223 251.575760,247.551514 251.184052,247.868652 
z"/>
<path fill="#3B0BE5" opacity="1.000000" stroke="none" 
	d="
M154.063171,225.186768 
	C161.282074,236.088776 171.977524,242.481491 184.730621,246.570007 
	C185.996307,252.159927 186.983673,257.550079 187.964325,263.346619 
	C187.514282,263.535278 187.070938,263.317505 186.390869,262.999237 
	C183.000275,261.008667 179.846405,259.118622 176.377838,257.101379 
	C174.587662,255.736710 173.112198,254.499268 171.360840,253.095642 
	C166.253952,246.692886 161.422958,240.456284 156.354294,233.963928 
	C155.427643,231.001694 154.738647,228.295242 154.063171,225.186768 
z"/>
<path fill="#8508E6" opacity="1.000000" stroke="none" 
	d="
M326.270691,154.821808 
	C327.637604,155.028030 329.004486,155.234253 330.738831,156.019104 
	C331.707031,159.801727 332.307770,163.005707 332.490479,166.179291 
	C327.767395,165.602509 323.462341,165.056152 319.123077,164.153076 
	C318.327881,161.045471 317.566864,158.294556 317.187286,155.407257 
	C320.469360,155.121201 323.370026,154.971497 326.270691,154.821808 
z"/>
<path fill="#5209E7" opacity="1.000000" stroke="none" 
	d="
M342.717468,159.112961 
	C343.155426,159.447891 343.340637,159.649628 343.712830,159.957306 
	C345.215454,165.203079 346.557159,170.318954 347.632629,175.710724 
	C346.888062,175.745728 346.409790,175.504852 345.660675,175.071457 
	C343.929718,173.581482 342.469574,172.284012 340.872009,170.767670 
	C340.502625,170.293701 340.270599,170.038589 340.029755,169.396057 
	C339.007507,165.025879 337.994141,161.043121 336.980774,157.060349 
	C338.094055,157.339706 339.207306,157.619080 340.663330,157.944458 
	C341.483612,158.328217 341.961090,158.665970 342.717468,159.112961 
z"/>
<path fill="#6608E7" opacity="1.000000" stroke="none" 
	d="
M336.610687,156.983185 
	C337.994141,161.043121 339.007507,165.025879 339.723206,169.320786 
	C338.274506,169.134705 337.123505,168.636490 335.670105,168.060272 
	C334.547974,167.391403 333.728241,166.800552 332.908508,166.209702 
	C332.307770,163.005707 331.707031,159.801727 331.120087,156.182312 
	C332.836121,156.146606 334.538361,156.526306 336.610687,156.983185 
z"/>
<path fill="#8579E4" opacity="1.000000" stroke="none" 
	d="
M325.989502,154.626465 
	C323.370026,154.971497 320.469360,155.121201 316.797668,155.477646 
	C312.675201,156.717987 309.323822,157.751572 305.972412,158.785156 
	C301.866150,161.170410 297.759918,163.555649 293.304871,165.962326 
	C298.321228,158.116104 306.534302,155.403839 315.302521,154.103180 
	C318.680573,153.602081 322.234497,154.286728 325.989502,154.626465 
z"/>
<path fill="#8579E4" opacity="1.000000" stroke="none" 
	d="
M291.641968,166.901108 
	C291.502197,167.572876 291.019073,168.196243 290.241516,168.905334 
	C290.397583,168.278275 290.848083,167.565491 291.641968,166.901108 
z"/>
<path fill="#8579E4" opacity="1.000000" stroke="none" 
	d="
M289.704712,168.978699 
	C289.814941,169.247833 289.640015,169.546875 289.207214,169.920929 
	C289.106049,169.666824 289.262817,169.337708 289.704712,168.978699 
z"/>
<path fill="#8579E4" opacity="1.000000" stroke="none" 
	d="
M288.689331,170.025513 
	C288.727661,170.278320 288.452332,170.604233 287.852142,170.996155 
	C287.810059,170.740967 288.092834,170.419800 288.689331,170.025513 
z"/>
<path fill="#8579E4" opacity="1.000000" stroke="none" 
	d="
M292.676453,165.942078 
	C292.825012,166.269760 292.664307,166.582657 292.227356,166.939148 
	C292.089783,166.630905 292.228516,166.279083 292.676453,165.942078 
z"/>
<path fill="#B636E9" opacity="1.000000" stroke="none" 
	d="
M345.931488,175.263977 
	C346.409790,175.504852 346.888062,175.745728 347.601990,176.124756 
	C349.053711,179.069717 350.269836,181.876511 351.231812,184.905304 
	C348.701660,183.323364 346.425598,181.519440 344.193390,179.239624 
	C344.801971,177.597168 345.366730,176.430573 345.931488,175.263977 
z"/>
<path fill="#AD04D4" opacity="1.000000" stroke="none" 
	d="
M241.845612,258.049866 
	C241.197189,257.850555 240.820084,257.538635 240.429962,256.692383 
	C242.218155,255.048035 244.019348,253.938004 245.918549,252.927383 
	C246.016571,253.026810 246.208282,253.229828 246.208282,253.229828 
	C244.844498,254.798965 243.480713,256.368103 241.845612,258.049866 
z"/>
<path fill="#AD04D4" opacity="1.000000" stroke="none" 
	d="
M245.979279,251.997620 
	C246.776688,251.678711 247.574097,251.359802 248.693314,251.015427 
	C248.273956,251.674042 247.532822,252.358124 246.499985,253.136017 
	C246.208282,253.229828 246.016571,253.026810 245.961792,252.720856 
	C245.906998,252.414917 245.979279,251.997620 245.979279,251.997620 
z"/>
<path fill="#AD04D4" opacity="1.000000" stroke="none" 
	d="
M249.195007,250.880981 
	C249.107483,250.692474 249.306213,250.430222 249.800781,250.104797 
	C249.867752,250.281342 249.662643,250.536545 249.195007,250.880981 
z"/>
<path fill="#8579E4" opacity="1.000000" stroke="none" 
	d="
M217.458771,154.982788 
	C199.920685,152.132721 184.163193,155.174881 170.220718,165.948425 
	C168.646973,167.164490 167.176575,168.514267 165.344513,169.926971 
	C166.671280,167.599487 168.311768,165.147064 170.040802,162.359833 
	C170.548721,161.764038 170.968094,161.503052 171.745300,161.269562 
	C172.103134,161.297073 172.513763,161.229706 172.513763,161.229706 
	C172.513763,161.229706 172.638519,160.823120 172.638519,160.823120 
	C172.638519,160.823120 172.764938,160.695709 173.069397,160.630615 
	C173.660080,160.439804 173.868561,160.234909 173.999298,159.950836 
	C177.779175,158.319534 181.559052,156.688232 185.706635,154.970612 
	C191.419022,153.890884 196.763702,152.897461 202.540985,151.853699 
	C208.980377,152.276169 214.987137,152.748978 221.734436,153.455688 
	C227.509415,155.498444 232.543869,157.307297 237.578308,159.116135 
	C237.607407,159.309036 237.636520,159.501938 237.704010,159.987183 
	C231.115311,158.501770 224.488205,156.724030 217.458771,154.982788 
z"/>
<path fill="#7D39EC" opacity="1.000000" stroke="none" 
	d="
M221.858597,151.103058 
	C217.742294,150.055405 213.625992,149.007751 209.509689,147.960098 
	C209.563690,147.445435 209.617691,146.930771 209.671692,146.416107 
	C216.145081,147.126953 222.618469,147.837784 229.489227,149.152679 
	C229.915359,151.149841 229.944138,152.542938 229.646347,153.809326 
	C226.832703,152.822754 224.345657,151.962906 221.858597,151.103058 
z"/>
<path fill="#A736E7" opacity="1.000000" stroke="none" 
	d="
M229.972931,153.936035 
	C229.944138,152.542938 229.915359,151.149841 229.823914,149.340302 
	C232.002182,149.347519 234.243103,149.771164 236.908600,150.340240 
	C237.730438,150.647003 238.127701,150.808304 238.742752,151.011414 
	C239.067169,153.146866 239.173813,155.240509 238.808746,157.533875 
	C235.549011,156.467758 232.760971,155.201889 229.972931,153.936035 
z"/>
<path fill="#8508E6" opacity="1.000000" stroke="none" 
	d="
M229.646347,153.809326 
	C232.760971,155.201889 235.549011,156.467758 238.657440,157.867050 
	C238.699982,158.288437 238.422104,158.576401 237.861267,158.990250 
	C232.543869,157.307297 227.509415,155.498444 222.159698,153.509415 
	C221.867569,152.833298 221.890717,152.337372 221.886230,151.472244 
	C224.345657,151.962906 226.832703,152.822754 229.646347,153.809326 
z"/>
<path fill="#3B0BE5" opacity="1.000000" stroke="none" 
	d="
M153.066483,222.275742 
	C153.328934,222.493759 153.614777,223.011215 153.915283,223.834351 
	C153.649933,223.618423 153.369904,223.096802 153.066483,222.275742 
z"/>
<path fill="#573BED" opacity="1.000000" stroke="none" 
	d="
M172.431244,160.850357 
	C172.638519,160.823120 172.513763,161.229706 172.513763,161.229706 
	C172.513763,161.229706 172.103134,161.297073 171.985229,161.196426 
	C171.867325,161.095779 172.223984,160.877594 172.431244,160.850357 
z"/>
<path fill="#573BED" opacity="1.000000" stroke="none" 
	d="
M173.781189,160.004272 
	C173.868561,160.234909 173.660080,160.439804 173.157822,160.615326 
	C173.052017,160.363632 173.259109,160.161179 173.781189,160.004272 
z"/>
<path fill="#8579E4" opacity="1.000000" stroke="none" 
	d="
M162.717896,172.037170 
	C161.588318,174.294189 160.117859,176.563126 158.345093,178.991562 
	C159.487503,176.783737 160.932251,174.416428 162.717896,172.037170 
z"/>
<path fill="#8579E4" opacity="1.000000" stroke="none" 
	d="
M164.711166,170.005371 
	C164.567062,170.638992 164.080750,171.250244 163.311493,171.958588 
	C163.475357,171.364792 163.922165,170.673904 164.711166,170.005371 
z"/>
<path fill="#8579E4" opacity="1.000000" stroke="none" 
	d="
M239.458466,160.983185 
	C239.107635,161.030319 238.628235,160.851578 238.014633,160.447525 
	C238.363586,160.400589 238.846725,160.578934 239.458466,160.983185 
z"/>
<path fill="#FA32E6" opacity="1.000000" stroke="none" 
	d="
M332.490479,166.179291 
	C333.728241,166.800552 334.547974,167.391403 335.598236,168.436401 
	C335.547089,171.213058 335.265381,173.535583 334.983704,175.858124 
	C332.186310,175.568298 329.388947,175.278473 326.176331,175.143188 
	C322.808319,175.204330 319.855560,175.110947 316.451416,174.536987 
	C316.012146,171.079605 316.024231,168.102783 316.429138,165.066681 
	C317.600342,164.841537 318.378815,164.675659 319.157257,164.509781 
	C323.462341,165.056152 327.767395,165.602509 332.490479,166.179291 
z"/>
<path fill="#7D39EC" opacity="1.000000" stroke="none" 
	d="
M295.394836,191.250488 
	C295.400848,186.198608 295.692108,180.942673 295.978302,175.230896 
	C297.456329,173.597702 298.939392,172.420319 300.946838,171.453629 
	C301.721497,175.359161 301.971832,179.053986 302.222168,182.748810 
	C300.041443,185.514679 297.860748,188.280548 295.394836,191.250488 
z"/>
<path fill="#A736E7" opacity="1.000000" stroke="none" 
	d="
M302.518555,182.546692 
	C301.971832,179.053986 301.721497,175.359161 301.239441,171.317749 
	C303.127502,169.735840 305.247253,168.500488 307.681824,167.582275 
	C307.662537,171.596436 307.328369,175.293457 306.994202,178.990479 
	C305.601135,180.108505 304.208069,181.226532 302.518555,182.546692 
z"/>
<path fill="#E633E7" opacity="1.000000" stroke="none" 
	d="
M316.036346,165.125961 
	C316.024231,168.102783 316.012146,171.079605 316.001038,174.503769 
	C314.919159,175.309067 313.836243,175.667038 312.178589,175.744690 
	C311.709045,172.324585 311.814209,169.184784 312.266235,165.966431 
	C313.754150,165.633911 314.895233,165.379929 316.036346,165.125961 
z"/>
<path fill="#B636E9" opacity="1.000000" stroke="none" 
	d="
M311.919403,166.044983 
	C311.814209,169.184784 311.709045,172.324585 311.833740,175.768600 
	C310.591034,177.000687 309.118408,177.928558 307.320007,178.923462 
	C307.328369,175.293457 307.662537,171.596436 308.003296,167.471222 
	C308.009918,167.043030 308.491425,166.941879 309.043701,166.888412 
	C310.370483,166.571625 311.144928,166.308304 311.919403,166.044983 
z"/>
<path fill="#E633E7" opacity="1.000000" stroke="none" 
	d="
M335.325043,175.997910 
	C335.265381,173.535583 335.547089,171.213058 335.900635,168.514389 
	C337.123505,168.636490 338.274506,169.134705 339.732056,169.708191 
	C340.270599,170.038589 340.502625,170.293701 340.861816,171.170715 
	C340.626678,173.659485 340.264313,175.526352 339.901917,177.393234 
	C338.490082,176.974716 337.078217,176.556198 335.325043,175.997910 
z"/>
<path fill="#D434E8" opacity="1.000000" stroke="none" 
	d="
M340.133240,177.589417 
	C340.264313,175.526352 340.626678,173.659485 340.999237,171.389572 
	C342.469574,172.284012 343.929718,173.581482 345.660675,175.071472 
	C345.366730,176.430573 344.801971,177.597168 343.977905,178.982056 
	C342.600586,178.728760 341.482605,178.257187 340.133240,177.589417 
z"/>
<path fill="#AD04D4" opacity="1.000000" stroke="none" 
	d="
M312.266235,165.966431 
	C311.144928,166.308304 310.370483,166.571625 309.287994,166.859192 
	C308.127441,164.374786 307.274872,161.866135 306.197388,159.071320 
	C309.323822,157.751572 312.675201,156.717987 316.416260,155.614014 
	C317.566864,158.294556 318.327881,161.045471 319.123077,164.153076 
	C318.378815,164.675659 317.600342,164.841537 316.429138,165.066681 
	C314.895233,165.379929 313.754150,165.633911 312.266235,165.966431 
z"/>
<path fill="#06021D" opacity="1.000000" stroke="none" 
	d="
M203.199341,248.844238 
	C194.749817,246.272400 187.121780,242.356567 180.323547,235.759872 
	C177.545151,230.847061 175.136642,226.451538 172.733276,221.654617 
	C172.482971,215.704376 171.660049,210.111725 172.084366,204.615372 
	C173.128174,191.095047 184.355667,178.059387 197.331467,174.499344 
	C199.231201,173.978119 201.126343,173.440018 203.487747,172.931274 
	C208.633835,172.985703 213.315796,173.018570 218.317184,173.231522 
	C226.734299,176.996246 234.831985,180.580887 242.929657,184.165512 
	C249.217606,189.223953 255.505569,194.282379 261.915405,199.653870 
	C261.014160,201.689438 259.990997,203.411926 258.694092,205.737915 
	C257.581757,207.954300 256.802002,209.601120 255.895370,211.174866 
	C245.848022,228.615173 235.416824,245.633087 213.036728,249.162231 
	C211.624557,249.120911 210.212387,249.079605 207.972977,249.057724 
	C205.774933,249.059158 204.404114,249.041153 203.033310,249.023163 
	C203.033310,249.023163 203.220459,248.943680 203.199341,248.844238 
M212.853775,181.875107 
	C214.230942,181.847473 215.608124,181.819839 217.772247,181.936295 
	C222.040619,182.909378 226.309006,183.882477 230.577377,184.855560 
	C230.777069,184.330734 230.976761,183.805908 231.176468,183.281082 
	C225.795776,181.320724 220.415085,179.360367 214.161377,177.086288 
	C210.789032,177.139420 207.416702,177.192551 203.294128,177.196915 
	C200.828033,178.081039 198.361938,178.965179 195.270981,180.191727 
	C191.412109,183.031235 187.553238,185.870743 183.294373,189.095642 
	C183.313950,189.361923 183.333527,189.628189 183.353119,189.894455 
	C183.702209,189.778183 184.051315,189.661896 185.074722,189.326340 
	C191.066956,186.573410 197.059189,183.820480 203.873108,180.988907 
	C206.591492,181.252563 209.309891,181.516220 212.853775,181.875107 
M250.254822,207.103958 
	C248.548584,210.432419 246.842361,213.760880 244.934189,217.762558 
	C240.864334,222.855804 236.794495,227.949066 232.102554,233.206696 
	C229.314102,235.190979 226.525665,237.175262 223.737213,239.159546 
	C224.034546,239.609283 224.331863,240.059036 224.629181,240.508789 
	C228.098495,238.108917 231.567825,235.709061 235.504501,232.796112 
	C236.215302,232.209625 236.926102,231.623138 237.787796,230.934036 
	C237.787796,230.934036 238.009811,230.651352 238.597214,230.239395 
	C241.717773,225.888504 244.838318,221.537628 248.164627,216.483612 
	C249.756592,213.979080 251.348557,211.474548 253.485306,208.560745 
	C254.640579,206.576950 256.091766,204.697144 256.839111,202.570023 
	C257.281067,201.312210 256.610138,199.663376 256.439636,198.190384 
	C255.882324,198.221268 255.324997,198.252136 254.767670,198.283020 
	C253.464264,201.105576 252.160858,203.928131 250.254822,207.103958 
M181.849609,191.098541 
	C181.848465,191.312897 181.847321,191.527267 181.846176,191.741623 
	C181.989517,191.735733 182.252884,191.748642 182.257217,191.720947 
	C182.292282,191.497238 182.278656,191.265900 181.849609,191.098541 
z"/>
<path fill="#0B0FE8" opacity="1.000000" stroke="none" 
	d="
M213.295654,249.326508 
	C235.416824,245.633087 245.848022,228.615173 255.895370,211.174866 
	C256.802002,209.601120 257.581757,207.954300 258.643341,206.074478 
	C261.084625,206.390594 263.302948,206.973633 265.796936,207.812317 
	C263.526642,213.043961 260.980713,218.019943 257.952209,223.424255 
	C257.304504,224.244537 257.139313,224.636459 256.974121,225.028381 
	C256.974121,225.028381 257.029999,225.021637 256.731079,225.135712 
	C256.265991,225.823120 256.099762,226.396469 255.933548,226.969803 
	C255.933548,226.969803 255.998444,226.991669 255.620468,226.952408 
	C254.471146,228.261520 253.699799,229.609894 252.928467,230.958267 
	C252.928467,230.958267 252.991608,230.998276 252.643066,230.911804 
	C252.176788,231.199966 252.059067,231.574615 251.941345,231.949249 
	C251.941330,231.949249 252.004745,231.985062 251.629761,231.851654 
	C243.338791,239.411575 234.399429,245.473251 223.414551,248.935074 
	C220.661545,249.284760 218.316299,249.623093 215.971054,249.961426 
	C215.165573,249.804550 214.360077,249.647675 213.295654,249.326508 
z"/>
<path fill="#8508E6" opacity="1.000000" stroke="none" 
	d="
M215.987335,250.362213 
	C218.316299,249.623093 220.661545,249.284760 223.842499,248.994598 
	C226.761581,248.667557 229.089630,248.762329 230.882370,247.828949 
	C236.239166,245.039963 241.386230,241.848190 246.615189,238.813690 
	C246.965439,239.421677 247.315674,240.029663 247.936493,240.872101 
	C246.561462,242.864166 244.915863,244.621765 242.782028,246.798752 
	C239.738358,248.980774 237.182907,250.743423 234.277054,252.597900 
	C228.636688,254.837753 223.346725,256.985779 218.056747,259.133789 
	C217.372360,256.343536 216.687988,253.553268 215.987335,250.362213 
z"/>
<path fill="#FA32E6" opacity="1.000000" stroke="none" 
	d="
M217.766602,259.340088 
	C223.346725,256.985779 228.636688,254.837753 234.533936,252.938538 
	C235.423355,254.770660 235.705505,256.353973 235.987640,257.937317 
	C231.204376,259.380737 226.421143,260.824158 221.314102,262.432587 
	C217.523880,262.761536 214.057480,262.925507 210.591064,263.089478 
	C210.496216,262.754120 210.401367,262.418762 210.306503,262.083405 
	C212.696487,261.237732 215.086456,260.392059 217.766602,259.340088 
z"/>
<path fill="#5209E7" opacity="1.000000" stroke="none" 
	d="
M203.281189,249.248688 
	C204.404114,249.041153 205.774933,249.059158 207.554779,249.130493 
	C206.485565,249.280640 205.007324,249.377426 203.281189,249.248688 
z"/>
<path fill="#E633E7" opacity="1.000000" stroke="none" 
	d="
M236.333862,257.870941 
	C235.705505,256.353973 235.423355,254.770660 234.884338,252.846710 
	C237.182907,250.743423 239.738358,248.980774 242.597794,247.077637 
	C243.835007,248.407730 244.768234,249.878296 245.840363,251.673248 
	C245.979279,251.997620 245.906998,252.414917 245.863770,252.621429 
	C244.019348,253.938004 242.218155,255.048035 240.228088,256.388153 
	C238.919525,257.013672 237.799805,257.409119 236.333862,257.870941 
z"/>
<path fill="#350A96" opacity="1.000000" stroke="none" 
	d="
M242.949768,183.768906 
	C234.831985,180.580887 226.734299,176.996246 218.256378,172.849792 
	C217.568649,170.507187 217.261169,168.726425 216.953690,166.945663 
	C216.991135,165.230896 217.028595,163.516144 217.132492,161.374268 
	C220.575531,161.737579 224.025635,162.301468 227.312561,163.368210 
	C233.152618,165.263565 238.921616,167.101959 239.241760,175.114899 
	C239.353531,177.912552 241.663696,180.622375 242.949768,183.768906 
z"/>
<path fill="#0B0D81" opacity="1.000000" stroke="none" 
	d="
M216.544067,166.946442 
	C217.261169,168.726425 217.568649,170.507187 217.936920,172.669678 
	C213.315796,173.018570 208.633835,172.985703 203.468811,172.536530 
	C201.911224,165.828156 200.950729,165.149048 194.780426,166.633377 
	C192.861435,167.095001 190.971268,167.743759 189.136719,168.478638 
	C168.490921,176.748932 164.374771,200.733505 170.095428,218.063187 
	C170.577850,219.524582 171.832336,220.731110 172.728149,222.056030 
	C175.136642,226.451538 177.545151,230.847061 180.049057,235.574295 
	C172.513458,234.001160 170.167938,227.272156 167.001526,221.357178 
	C166.014297,219.512924 165.527267,217.400879 164.250992,215.534317 
	C164.250992,217.705109 164.250992,219.875885 164.250992,222.046677 
	C159.805832,212.529953 160.168945,202.795486 163.021317,193.122284 
	C167.751251,177.081711 177.062668,165.390640 194.305878,161.770111 
	C198.637909,160.860519 202.606461,159.841934 206.321030,164.500092 
	C207.990204,166.593262 212.767471,166.207932 216.544067,166.946442 
z"/>
<path fill="#8579E4" opacity="1.000000" stroke="none" 
	d="
M246.834045,238.541672 
	C241.386230,241.848190 236.239166,245.039963 230.882370,247.828949 
	C229.089630,248.762329 226.761581,248.667557 224.250275,248.983231 
	C234.399429,245.473251 243.338791,239.411575 251.600510,231.827698 
	C250.315109,234.047974 248.684006,236.158813 246.834045,238.541672 
z"/>
<path fill="#8579E4" opacity="1.000000" stroke="none" 
	d="
M253.245453,230.856689 
	C253.699799,229.609894 254.471146,228.261520 255.595917,226.928497 
	C255.153717,228.214279 254.358078,229.484695 253.245453,230.856689 
z"/>
<path fill="#8579E4" opacity="1.000000" stroke="none" 
	d="
M256.225677,226.843201 
	C256.099762,226.396469 256.265991,225.823120 256.723999,225.108490 
	C256.849823,225.550323 256.683838,226.133453 256.225677,226.843201 
z"/>
<path fill="#8579E4" opacity="1.000000" stroke="none" 
	d="
M257.284332,224.885529 
	C257.139313,224.636459 257.304504,224.244537 257.726868,223.652130 
	C257.854218,223.881973 257.724396,224.312332 257.284332,224.885529 
z"/>
<path fill="#8579E4" opacity="1.000000" stroke="none" 
	d="
M252.205109,231.899841 
	C252.059067,231.574615 252.176788,231.199966 252.621628,230.881210 
	C252.788773,231.241547 252.628815,231.545990 252.205109,231.899841 
z"/>
<path fill="#0C0D69" opacity="1.000000" stroke="none" 
	d="
M172.733276,221.654617 
	C171.832336,220.731110 170.577850,219.524582 170.095428,218.063187 
	C164.374771,200.733505 168.490921,176.748932 189.136719,168.478638 
	C190.971268,167.743759 192.861435,167.095001 194.780426,166.633377 
	C200.950729,165.149048 201.911224,165.828156 203.004669,172.514984 
	C201.126343,173.440018 199.231201,173.978119 197.331467,174.499344 
	C184.355667,178.059387 173.128174,191.095047 172.084366,204.615372 
	C171.660049,210.111725 172.482971,215.704376 172.733276,221.654617 
z"/>
<path fill="#350A96" opacity="1.000000" stroke="none" 
	d="
M203.051422,181.067566 
	C197.059189,183.820480 191.066956,186.573410 184.569992,189.219574 
	C183.941620,188.978622 183.817993,188.844437 183.694366,188.710236 
	C187.553238,185.870743 191.412109,183.031235 195.897186,180.180237 
	C198.699402,180.468353 200.875412,180.767960 203.051422,181.067566 
z"/>
<path fill="#5209AA" opacity="1.000000" stroke="none" 
	d="
M232.724655,233.042328 
	C236.794495,227.949066 240.864334,222.855804 245.387222,217.446716 
	C246.546463,217.149490 247.252670,217.168106 247.958878,217.186737 
	C244.838318,221.537628 241.717773,225.888504 238.165573,230.393433 
	C237.733932,230.547470 237.534851,230.761520 237.534851,230.761520 
	C237.534851,230.761520 237.636887,231.036621 237.636902,231.036621 
	C236.926102,231.623138 236.215302,232.209625 234.888458,232.986938 
	C233.756485,233.132599 233.240570,233.087463 232.724655,233.042328 
z"/>
<path fill="#AD04D4" opacity="1.000000" stroke="none" 
	d="
M215.034393,177.400009 
	C220.415085,179.360367 225.795776,181.320724 231.176468,183.281082 
	C230.976761,183.805908 230.777069,184.330734 230.577377,184.855560 
	C226.309006,183.882477 222.040619,182.909378 217.293884,181.568558 
	C216.221817,179.933884 215.628098,178.666946 215.034393,177.400009 
z"/>
<path fill="#EC01DB" opacity="1.000000" stroke="none" 
	d="
M250.857452,206.750687 
	C252.160858,203.928131 253.464264,201.105576 254.767670,198.283020 
	C255.324997,198.252136 255.882324,198.221268 256.439636,198.190384 
	C256.610138,199.663376 257.281067,201.312210 256.839111,202.570023 
	C256.091766,204.697144 254.640579,206.576950 252.963898,208.581512 
	C251.914139,207.985092 251.385803,207.367889 250.857452,206.750687 
z"/>
<path fill="#7508B7" opacity="1.000000" stroke="none" 
	d="
M203.462265,181.028229 
	C200.875412,180.767960 198.699402,180.468353 196.209625,180.009033 
	C198.361938,178.965179 200.828033,178.081039 203.813477,177.544250 
	C206.897995,179.187668 209.463135,180.483765 212.028275,181.779877 
	C209.309891,181.516220 206.591492,181.252563 203.462265,181.028229 
z"/>
<path fill="#8507CD" opacity="1.000000" stroke="none" 
	d="
M212.441025,181.827484 
	C209.463135,180.483765 206.897995,179.187668 204.188599,177.568634 
	C207.416702,177.192551 210.789032,177.139420 214.597885,177.243149 
	C215.628098,178.666946 216.221817,179.933884 216.900406,181.496521 
	C215.608124,181.819839 214.230942,181.847473 212.441025,181.827484 
z"/>
<path fill="#AD04D4" opacity="1.000000" stroke="none" 
	d="
M250.556137,206.927322 
	C251.385803,207.367889 251.914139,207.985092 252.691498,208.786163 
	C251.348557,211.474548 249.756592,213.979080 248.061752,216.835175 
	C247.252670,217.168106 246.546463,217.149490 245.488190,217.110107 
	C246.842361,213.760880 248.548584,210.432419 250.556137,206.927322 
z"/>
<path fill="#0C0D69" opacity="1.000000" stroke="none" 
	d="
M232.413605,233.124512 
	C233.240570,233.087463 233.756485,233.132599 234.654770,233.243469 
	C231.567825,235.709061 228.098495,238.108917 224.629181,240.508789 
	C224.331863,240.059036 224.034546,239.609283 223.737213,239.159546 
	C226.525665,237.175262 229.314102,235.190979 232.413605,233.124512 
z"/>
<path fill="#350A96" opacity="1.000000" stroke="none" 
	d="
M182.064743,191.067719 
	C182.278656,191.265900 182.292282,191.497238 182.257217,191.720947 
	C182.252884,191.748642 181.989517,191.735733 181.846176,191.741623 
	C181.847321,191.527267 181.848465,191.312897 182.064743,191.067719 
z"/>
<path fill="#350A96" opacity="1.000000" stroke="none" 
	d="
M184.232849,189.329224 
	C184.051315,189.661896 183.702209,189.778183 183.353119,189.894470 
	C183.333527,189.628189 183.313950,189.361923 183.494354,188.902939 
	C183.817993,188.844437 183.941620,188.978622 184.232849,189.329224 
z"/>
<path fill="#0C0D69" opacity="1.000000" stroke="none" 
	d="
M237.712341,230.985321 
	C237.636887,231.036621 237.534851,230.761520 237.534851,230.761520 
	C237.534851,230.761520 237.733932,230.547470 237.871872,230.599411 
	C238.009811,230.651352 237.787796,230.934036 237.712341,230.985321 
z"/>
</svg>