<svg version="1.1" id="Layer_1" xmlns="http://www.w3.org/2000/svg" xmlns:xlink="http://www.w3.org/1999/xlink" x="0px" y="0px"
	 width="100%" viewBox="0 0 500 500" enable-background="new 0 0 500 500" xml:space="preserve">
<path fill="#FFFFFF" opacity="1.000000" stroke="none" 
	d="
M333.000000,501.000000 
	C222.000031,501.000000 111.500053,501.000000 1.000059,501.000000 
	C1.000040,334.333405 1.000040,167.666794 1.000020,1.000149 
	C167.666565,1.000099 334.333130,1.000099 500.999756,1.000050 
	C500.999847,167.666519 500.999847,334.333038 500.999939,500.999786 
	C445.166656,501.000000 389.333344,501.000000 333.000000,501.000000 
M322.252136,235.014450 
	C321.155731,235.037567 320.059357,235.060669 318.230255,234.849228 
	C314.152283,234.228729 310.074280,233.608231 305.876404,233.057724 
	C305.876404,233.057724 305.921295,232.830627 305.921295,232.830627 
	C305.921295,232.830627 305.977600,233.003265 305.989960,233.402512 
	C305.989960,233.402512 306.139221,233.773010 306.088013,234.509781 
	C310.043030,235.914322 313.998077,237.318863 318.689331,238.977692 
	C325.152924,239.324051 331.646088,239.814209 337.765045,234.912918 
	C342.861694,233.424835 347.009338,230.737289 349.705872,225.797562 
	C343.945496,228.625397 338.470306,231.313232 332.134033,233.989410 
	C329.113281,234.375092 326.092499,234.760757 322.252136,235.014450 
M259.895538,162.266357 
	C256.971008,160.377289 254.046509,158.488205 250.692245,156.093887 
	C247.800323,154.689743 244.908417,153.285599 241.572296,151.362183 
	C234.749329,149.523941 227.926346,147.685699 220.654480,145.214661 
	C216.108154,144.872757 211.561813,144.530869 206.161835,144.053177 
	C201.934235,144.753006 197.706635,145.452835 192.570068,146.103851 
	C179.438889,149.677551 168.350067,156.490250 159.075073,167.113144 
	C158.698380,167.650238 158.321686,168.187332 157.496628,169.036774 
	C157.319366,169.344955 157.142105,169.653152 156.384003,170.303558 
	C149.053726,179.891479 144.129944,190.479599 142.312088,202.526428 
	C139.564804,220.732346 142.136581,237.763229 152.871338,253.873886 
	C157.571808,258.939056 162.272263,264.004211 167.280548,269.659760 
	C170.520248,271.765411 173.759964,273.871094 177.405228,276.516846 
	C179.275116,277.323273 181.145004,278.129730 183.494598,279.409332 
	C185.006958,279.842285 186.519318,280.275208 188.771378,280.986938 
	C203.411087,285.237488 217.821808,284.599579 232.739487,278.947845 
	C238.843185,275.367035 244.946884,271.786224 251.671188,267.914337 
	C256.717346,260.944702 261.763489,253.975082 267.144958,246.372406 
	C270.089172,240.654099 273.033386,234.935791 276.546387,228.779678 
	C278.518341,224.529556 280.490265,220.279419 282.553345,215.832794 
	C285.164093,217.365662 287.525665,218.752258 290.238098,220.727417 
	C301.147949,227.627823 312.800903,231.869278 326.764801,230.824890 
	C341.114777,228.872055 351.417328,221.790329 356.600250,207.283417 
	C356.723602,206.514786 356.846985,205.746155 357.538574,204.497009 
	C361.935028,188.646545 358.441010,174.659225 347.459473,162.534103 
	C346.343079,161.301437 344.557526,160.674820 342.794800,159.165787 
	C340.898987,158.055878 339.003174,156.945953 336.963806,155.140091 
	C329.430450,150.153519 321.025177,149.877899 312.720795,151.706146 
	C297.832733,154.983795 285.821899,163.123428 275.843994,175.039520 
	C272.907959,172.676056 269.971954,170.312576 266.724945,167.367401 
	C264.573639,165.858002 262.422333,164.348618 259.895538,162.266357 
M181.550156,331.875397 
	C182.119736,323.781677 182.689316,315.687927 183.270599,307.428101 
	C180.736160,307.428101 177.977997,307.428101 174.986221,307.428101 
	C175.714523,311.992554 176.421860,316.425690 177.129211,320.858826 
	C176.592392,320.999817 176.055573,321.140839 175.518753,321.281830 
	C173.573105,318.253143 171.322693,315.373291 169.753937,312.160553 
	C167.462524,307.467743 164.174377,306.044617 158.738754,307.979706 
	C162.353455,315.772858 161.686554,323.769562 158.856750,331.811768 
	C162.462173,331.811768 165.236145,331.811768 168.284302,331.811768 
	C167.468430,327.224396 166.688156,322.837189 165.907867,318.449951 
	C166.423416,318.274017 166.938965,318.098083 167.454514,317.922150 
	C169.759766,321.467773 172.218628,324.925323 174.318192,328.588806 
	C175.806793,331.186188 177.586014,332.645111 181.550156,331.875397 
M265.329193,318.421082 
	C264.000397,316.313934 262.393127,314.329285 261.401031,312.074005 
	C259.360107,307.434601 256.034973,306.234222 250.697083,307.849304 
	C253.761108,315.651489 254.072769,323.646606 250.464081,331.772522 
	C254.102097,331.772522 257.000763,331.772522 259.888428,331.772522 
	C259.149933,327.115601 258.443481,322.660492 257.617432,317.451263 
	C264.525146,321.812469 263.780457,332.277435 273.451569,332.115143 
	C273.920654,323.667603 274.363312,315.695862 274.816925,307.527100 
	C272.552795,307.527100 269.660889,307.527100 266.589325,307.527100 
	C267.389893,312.106018 268.150208,316.454681 268.910553,320.803345 
	C268.417816,320.971008 267.925110,321.138672 267.432373,321.306305 
	C266.890228,320.562103 266.348083,319.817902 265.329193,318.421082 
M357.333374,314.476898 
	C356.774780,315.277008 356.216187,316.077118 355.657623,316.877228 
	C355.241028,316.856323 354.824463,316.835419 354.407898,316.814514 
	C354.149567,313.645721 353.891205,310.476898 353.647003,307.481567 
	C350.386475,307.481567 347.284119,307.481567 343.545532,307.481567 
	C343.975311,309.177002 343.958618,310.741913 344.702515,311.739899 
	C346.930847,314.729370 349.745209,317.309021 351.769653,320.414459 
	C353.238220,322.667175 354.144989,325.390625 351.102051,327.744263 
	C350.235321,328.414612 350.339966,330.340790 349.958588,331.851868 
	C354.084839,331.851868 357.381256,331.851868 361.296021,331.851868 
	C360.883118,330.267883 360.937042,328.237701 360.147217,327.825897 
	C356.413239,325.879181 357.731415,323.080353 358.999542,320.814331 
	C360.690369,317.792847 363.138580,315.204132 365.128906,312.337433 
	C366.089905,310.953217 366.748108,309.358704 367.737183,307.494202 
	C363.305695,307.494202 360.204071,307.494202 356.564331,307.494202 
	C357.017303,309.870789 357.398499,311.870758 357.333374,314.476898 
M196.948120,311.815643 
	C197.511444,312.118073 198.572601,312.435120 198.564209,312.720764 
	C198.413483,317.853180 201.092575,323.245514 197.071548,328.078918 
	C196.422485,328.859100 196.771576,330.469666 196.649078,331.807556 
	C200.371277,331.807556 203.610580,331.807556 207.524261,331.807556 
	C206.383972,328.545166 205.392776,325.709320 204.338181,322.692078 
	C206.721252,322.270691 208.123672,322.022736 209.260834,321.821655 
	C211.278473,316.746552 206.894592,317.747070 204.559219,316.713501 
	C204.784363,315.109436 204.975082,313.750610 205.310150,311.363464 
	C208.943069,313.276917 211.844711,314.805206 215.504242,316.732697 
	C215.504242,312.799011 215.504242,310.243439 215.504242,307.199463 
	C210.110489,307.199463 204.992813,307.381348 199.896011,307.133667 
	C196.654892,306.976166 196.284485,308.568390 196.948120,311.815643 
M316.811768,311.873444 
	C317.122314,311.965637 317.704529,312.057892 317.704498,312.149963 
	C317.702881,317.473022 320.280304,322.996918 316.295715,328.044891 
	C315.645203,328.868988 315.984528,330.474365 315.859283,331.793030 
	C319.529877,331.793030 322.775574,331.793030 325.408356,331.793030 
	C324.730164,325.127045 324.068817,318.626617 323.339050,311.453766 
	C326.853058,313.126007 329.271576,314.276917 332.227936,315.683807 
	C332.227936,311.968445 332.227936,309.733521 332.227936,307.594513 
	C324.636200,307.594513 317.430359,307.594513 310.346741,307.594513 
	C310.346741,310.249817 310.346741,312.504364 310.346741,314.758911 
	C310.746460,315.104187 311.146210,315.449463 311.545929,315.794739 
	C313.017395,314.581055 314.488831,313.367340 316.811768,311.873444 
M146.416992,329.680450 
	C141.394287,322.420593 144.117279,314.902893 146.506363,307.377380 
	C142.567261,307.377380 139.459778,307.377380 135.441727,307.377380 
	C139.447845,315.661865 139.369614,323.774323 134.983475,333.053192 
	C139.839767,331.960938 143.119827,331.223206 146.416992,329.680450 
M230.047623,324.132996 
	C229.148788,326.577576 228.249969,329.022156 227.234085,331.785095 
	C231.404358,331.785095 234.645325,331.785095 238.802338,331.785095 
	C233.911682,323.530304 235.065002,315.434723 238.364960,307.431763 
	C234.310059,307.431763 231.200150,307.431763 228.392868,307.431763 
	C228.960541,312.847931 229.504196,318.035095 230.047623,324.132996 
M289.867889,311.932770 
	C290.938141,317.454010 292.965149,322.998413 288.652710,328.203796 
	C288.054688,328.925659 288.570129,330.569977 288.570129,331.743652 
	C292.237366,331.743652 295.506500,331.743652 299.716614,331.743652 
	C294.436920,323.574341 295.359680,315.558350 299.343536,307.443970 
	C295.072113,307.443970 291.957458,307.443970 288.111389,307.443970 
	C288.480682,309.097656 288.770966,310.397461 289.867889,311.932770 
z"/>
<path fill="#560BAD" opacity="1.000000" stroke="none" 
	d="
M289.887238,220.138855 
	C287.525665,218.752258 285.164093,217.365662 282.553345,215.832794 
	C280.490265,220.279419 278.518341,224.529556 276.230530,228.579254 
	C275.598083,226.598312 275.596405,224.683075 274.903381,223.063690 
	C273.135406,218.932297 271.059021,214.932907 268.963806,210.619995 
	C267.926147,209.646515 267.030640,208.933762 266.072205,208.030853 
	C266.009216,207.840714 265.947571,207.444916 266.212341,207.153381 
	C268.106720,202.549301 265.131836,201.221848 261.937500,199.653442 
	C251.900482,192.174561 241.944290,185.026489 231.990967,177.482086 
	C233.174042,171.331451 227.297852,171.687027 224.988556,168.548370 
	C224.152786,166.100510 223.493988,162.462250 222.406708,162.329330 
	C217.553772,161.736099 217.055939,158.715317 217.445801,154.968414 
	C224.505173,156.676392 231.158371,158.414032 237.842773,160.162964 
	C237.873962,160.174240 237.935425,160.149323 238.060440,160.396667 
	C238.700867,160.809128 239.216263,160.974258 239.982422,161.383484 
	C244.147293,164.106430 248.061401,166.585266 251.987030,169.491608 
	C252.619965,172.706680 252.353653,176.316376 254.030243,178.126801 
	C258.944702,183.433640 264.632324,188.024521 270.195770,193.176514 
	C275.859894,198.442322 281.254852,203.532166 286.861969,208.376434 
	C290.703949,211.695709 291.303040,215.595490 289.887238,220.138855 
z"/>
<path fill="#EF03DD" opacity="1.000000" stroke="none" 
	d="
M356.142944,207.641464 
	C351.417328,221.790329 341.114777,228.872055 326.423035,230.433258 
	C327.060303,228.833130 328.039276,227.624603 328.790527,226.697174 
	C327.002991,224.694946 325.544891,222.881271 323.891144,221.268143 
	C322.635132,220.042938 321.277161,218.727371 319.706329,218.059219 
	C316.132629,216.539200 312.399963,215.392838 309.182129,214.056824 
	C325.063873,215.844208 334.335815,211.333282 339.921844,199.282730 
	C342.104614,194.573914 341.561493,189.933746 338.558716,187.637054 
	C340.932434,200.973450 332.449585,209.342987 317.007172,206.619629 
	C318.121399,206.101059 319.074280,205.657593 320.425385,205.145737 
	C327.066956,204.999512 331.618103,201.802750 332.752930,195.977829 
	C333.609192,191.582672 332.278717,186.761490 332.280212,182.096100 
	C334.025238,182.483932 335.388580,183.156845 336.801758,183.286423 
	C345.930145,184.123459 351.450256,189.478973 355.005859,197.452484 
	C355.440338,198.426834 356.240112,199.238297 356.826569,200.410873 
	C356.813080,201.079514 356.843658,201.462555 356.672546,202.106201 
	C356.496735,203.221741 356.522675,204.076675 356.430756,205.258286 
	C356.256256,206.270462 356.199585,206.955963 356.142944,207.641464 
z"/>
<path fill="#4D3EEE" opacity="1.000000" stroke="none" 
	d="
M152.666916,253.213486 
	C142.136581,237.763229 139.564804,220.732346 142.312088,202.526428 
	C144.129944,190.479599 149.053726,179.891479 156.855347,170.296204 
	C157.532776,169.767365 157.738892,169.245880 157.944992,168.724411 
	C158.321686,168.187332 158.698380,167.650238 159.698883,167.055634 
	C163.570023,165.345901 166.817352,163.693695 170.011719,162.380798 
	C168.314911,165.162109 166.671051,167.604080 165.014130,170.022675 
	C165.001083,169.999283 165.047455,170.026138 164.696793,169.985565 
	C163.906387,170.646072 163.466644,171.347168 163.016266,172.022247 
	C163.005615,171.996262 163.053207,172.026169 162.705978,172.008514 
	C160.927887,174.375061 159.497040,176.759277 157.908173,179.454498 
	C153.159180,188.393829 149.982727,197.447128 150.995956,207.360168 
	C151.596817,213.238632 152.998856,219.035202 154.024017,225.262238 
	C155.327560,229.119308 156.647736,232.582733 157.630676,236.226807 
	C156.860672,237.903473 156.408859,239.394272 155.998795,240.896500 
	C154.878754,244.999588 153.776321,249.107483 152.666916,253.213486 
z"/>
<path fill="#9906D1" opacity="1.000000" stroke="none" 
	d="
M308.731903,214.094604 
	C312.399963,215.392838 316.132629,216.539200 319.706329,218.059219 
	C321.277161,218.727371 322.635132,220.042938 323.891144,221.268143 
	C325.544891,222.881271 327.002991,224.694946 328.790527,226.697174 
	C328.039276,227.624603 327.060303,228.833130 326.022064,230.376465 
	C312.800903,231.869278 301.147949,227.627823 290.062683,220.433136 
	C291.303040,215.595490 290.703949,211.695709 286.861969,208.376434 
	C281.254852,203.532166 275.859894,198.442322 270.337738,192.862640 
	C269.892303,188.790024 269.483612,185.311920 269.381958,181.978485 
	C277.286041,189.057083 284.676025,196.238312 292.555023,202.835526 
	C297.572205,207.036499 303.314667,210.371368 308.731903,214.094604 
z"/>
<path fill="#FC35E8" opacity="1.000000" stroke="none" 
	d="
M309.182129,214.056824 
	C303.314667,210.371368 297.572205,207.036499 292.555023,202.835526 
	C284.676025,196.238312 277.286041,189.057083 269.207825,181.721588 
	C267.492523,180.159470 266.258423,178.998932 265.080872,177.457275 
	C265.770233,174.033798 266.403076,170.991440 267.035919,167.949097 
	C269.971954,170.312576 272.907959,172.676056 276.233948,175.442795 
	C278.039398,177.202240 279.454865,178.558411 281.020081,180.203369 
	C282.646484,182.015396 284.123199,183.538620 285.704956,185.398926 
	C288.486267,188.499466 291.162537,191.262955 293.992920,194.332550 
	C301.237793,201.922531 309.682861,205.892166 320.027130,205.214111 
	C319.074280,205.657593 318.121399,206.101059 317.007172,206.619629 
	C332.449585,209.342987 340.932434,200.973450 338.558716,187.637054 
	C341.561493,189.933746 342.104614,194.573914 339.921844,199.282730 
	C334.335815,211.333282 325.063873,215.844208 309.182129,214.056824 
z"/>
<path fill="#FC35E8" opacity="1.000000" stroke="none" 
	d="
M231.998337,278.962097 
	C217.821808,284.599579 203.411087,285.237488 188.462418,280.463013 
	C188.779495,274.898102 189.405533,269.857147 190.417679,264.876465 
	C195.178757,266.041779 199.553711,267.146790 204.272842,268.488586 
	C210.478378,268.557678 216.339767,268.389984 222.582275,268.209412 
	C226.305618,267.140686 229.647812,266.084839 232.995300,265.464722 
	C232.666504,270.254303 232.332413,274.608215 231.998337,278.962097 
z"/>
<path fill="#C536EA" opacity="1.000000" stroke="none" 
	d="
M266.809631,247.005447 
	C261.763489,253.975082 256.717346,260.944702 251.308716,267.657166 
	C250.877991,265.691132 250.846375,263.979889 250.733948,262.273926 
	C250.485260,258.500885 250.195953,254.730530 249.944778,250.712433 
	C249.966339,250.465790 250.008224,249.971741 250.008179,249.988861 
	C250.008118,250.005981 249.976181,250.018372 250.220535,249.846985 
	C250.642502,249.118484 250.820114,248.561371 250.998550,248.001816 
	C250.999390,247.999390 251.004028,247.996735 251.206085,247.890350 
	C251.654633,247.595230 251.841385,247.359222 252.124817,246.696808 
	C252.506912,243.499496 252.732620,240.681305 252.997711,237.521347 
	C257.684509,230.084244 262.331909,222.988937 267.131714,216.274307 
	C267.519104,217.941391 268.066010,219.259872 267.937500,220.508896 
	C267.196747,227.709137 266.184357,234.882889 265.537262,242.090164 
	C265.394745,243.677704 266.356415,245.364410 266.809631,247.005447 
z"/>
<path fill="#1119EC" opacity="1.000000" stroke="none" 
	d="
M181.106644,331.940643 
	C177.586014,332.645111 175.806793,331.186188 174.318192,328.588806 
	C172.218628,324.925323 169.759766,321.467773 167.454514,317.922150 
	C166.938965,318.098083 166.423416,318.274017 165.907867,318.449951 
	C166.688156,322.837189 167.468430,327.224396 168.284302,331.811768 
	C165.236145,331.811768 162.462173,331.811768 158.856750,331.811768 
	C161.686554,323.769562 162.353455,315.772858 158.738754,307.979706 
	C164.174377,306.044617 167.462524,307.467743 169.753937,312.160553 
	C171.322693,315.373291 173.573105,318.253143 175.518753,321.281830 
	C176.055573,321.140839 176.592392,320.999817 177.129211,320.858826 
	C176.421860,316.425690 175.714523,311.992554 174.986221,307.428101 
	C177.977997,307.428101 180.736160,307.428101 183.270599,307.428101 
	C182.689316,315.687927 182.119736,323.781677 181.106644,331.940643 
z"/>
<path fill="#1119EC" opacity="1.000000" stroke="none" 
	d="
M265.567566,318.747375 
	C266.348083,319.817902 266.890228,320.562103 267.432373,321.306305 
	C267.925110,321.138672 268.417816,320.971008 268.910553,320.803345 
	C268.150208,316.454681 267.389893,312.106018 266.589325,307.527100 
	C269.660889,307.527100 272.552795,307.527100 274.816925,307.527100 
	C274.363312,315.695862 273.920654,323.667603 273.451569,332.115143 
	C263.780457,332.277435 264.525146,321.812469 257.617432,317.451263 
	C258.443481,322.660492 259.149933,327.115601 259.888428,331.772522 
	C257.000763,331.772522 254.102097,331.772522 250.464081,331.772522 
	C254.072769,323.646606 253.761108,315.651489 250.697083,307.849304 
	C256.034973,306.234222 259.360107,307.434601 261.401031,312.074005 
	C262.393127,314.329285 264.000397,316.313934 265.567566,318.747375 
z"/>
<path fill="#1119EC" opacity="1.000000" stroke="none" 
	d="
M357.556519,314.173828 
	C357.398499,311.870758 357.017303,309.870789 356.564331,307.494202 
	C360.204071,307.494202 363.305695,307.494202 367.737183,307.494202 
	C366.748108,309.358704 366.089905,310.953217 365.128906,312.337433 
	C363.138580,315.204132 360.690369,317.792847 358.999542,320.814331 
	C357.731415,323.080353 356.413239,325.879181 360.147217,327.825897 
	C360.937042,328.237701 360.883118,330.267883 361.296021,331.851868 
	C357.381256,331.851868 354.084839,331.851868 349.958588,331.851868 
	C350.339966,330.340790 350.235321,328.414612 351.102051,327.744263 
	C354.144989,325.390625 353.238220,322.667175 351.769653,320.414459 
	C349.745209,317.309021 346.930847,314.729370 344.702515,311.739899 
	C343.958618,310.741913 343.975311,309.177002 343.545532,307.481567 
	C347.284119,307.481567 350.386475,307.481567 353.647003,307.481567 
	C353.891205,310.476898 354.149567,313.645721 354.407898,316.814514 
	C354.824463,316.835419 355.241028,316.856323 355.657623,316.877228 
	C356.216187,316.077118 356.774780,315.277008 357.556519,314.173828 
z"/>
<path fill="#7F3BED" opacity="1.000000" stroke="none" 
	d="
M152.769135,253.543686 
	C153.776321,249.107483 154.878754,244.999588 155.998795,240.896500 
	C156.408859,239.394272 156.860672,237.903473 157.891754,236.436111 
	C162.668991,241.966553 166.847900,247.468323 170.725037,253.205536 
	C169.947540,255.141449 169.379944,256.822510 169.015411,258.546539 
	C168.276337,262.041840 167.647186,265.560394 166.972733,269.069366 
	C162.272263,264.004211 157.571808,258.939056 152.769135,253.543686 
z"/>
<path fill="#1920ED" opacity="1.000000" stroke="none" 
	d="
M196.793884,311.442078 
	C196.284485,308.568390 196.654892,306.976166 199.896011,307.133667 
	C204.992813,307.381348 210.110489,307.199463 215.504242,307.199463 
	C215.504242,310.243439 215.504242,312.799011 215.504242,316.732697 
	C211.844711,314.805206 208.943069,313.276917 205.310150,311.363464 
	C204.975082,313.750610 204.784363,315.109436 204.559219,316.713501 
	C206.894592,317.747070 211.278473,316.746552 209.260834,321.821655 
	C208.123672,322.022736 206.721252,322.270691 204.338181,322.692078 
	C205.392776,325.709320 206.383972,328.545166 207.524261,331.807556 
	C203.610580,331.807556 200.371277,331.807556 196.649078,331.807556 
	C196.771576,330.469666 196.422485,328.859100 197.071548,328.078918 
	C201.092575,323.245514 198.413483,317.853180 198.564209,312.720764 
	C198.572601,312.435120 197.511444,312.118073 196.793884,311.442078 
z"/>
<path fill="#DE33E8" opacity="1.000000" stroke="none" 
	d="
M249.923218,250.959076 
	C250.195953,254.730530 250.485260,258.500885 250.733948,262.273926 
	C250.846375,263.979889 250.877991,265.691132 250.998413,267.802704 
	C244.946884,271.786224 238.843185,275.367035 232.368912,278.954956 
	C232.332413,274.608215 232.666504,270.254303 233.194260,265.190491 
	C237.595352,260.649750 241.802780,256.818939 246.004227,252.994461 
	C245.998230,253.000778 245.983765,253.009476 246.294434,253.026184 
	C247.076309,252.691483 247.547501,252.340088 248.009430,251.994812 
	C248.000168,252.000931 247.984467,252.016708 248.217438,251.912216 
	C248.641144,251.531403 248.831909,251.255081 249.011642,250.988678 
	C249.000626,250.998596 248.977722,251.017426 249.214157,251.003799 
	C249.450592,250.990173 249.923218,250.959076 249.923218,250.959076 
z"/>
<path fill="#1920ED" opacity="1.000000" stroke="none" 
	d="
M316.386047,312.013550 
	C314.488831,313.367340 313.017395,314.581055 311.545929,315.794739 
	C311.146210,315.449463 310.746460,315.104187 310.346741,314.758911 
	C310.346741,312.504364 310.346741,310.249817 310.346741,307.594513 
	C317.430359,307.594513 324.636200,307.594513 332.227936,307.594513 
	C332.227936,309.733521 332.227936,311.968445 332.227936,315.683807 
	C329.271576,314.276917 326.853058,313.126007 323.339050,311.453766 
	C324.068817,318.626617 324.730164,325.127045 325.408356,331.793030 
	C322.775574,331.793030 319.529877,331.793030 315.859283,331.793030 
	C315.984528,330.474365 315.645203,328.868988 316.295715,328.044891 
	C320.280304,322.996918 317.702881,317.473022 317.704498,312.149963 
	C317.704529,312.057892 317.122314,311.965637 316.386047,312.013550 
z"/>
<path fill="#1119EC" opacity="1.000000" stroke="none" 
	d="
M280.870361,179.914581 
	C279.454865,178.558411 278.039398,177.202240 276.552917,175.512543 
	C285.821899,163.123428 297.832733,154.983795 312.720795,151.706146 
	C321.025177,149.877899 329.430450,150.153519 336.992493,155.761505 
	C337.008820,156.567200 336.996490,156.751465 336.615906,156.934784 
	C334.120087,156.372391 331.992523,155.810974 329.467896,155.192581 
	C328.003479,155.059708 326.936096,154.983795 325.574951,154.638962 
	C321.842682,154.256866 318.311157,153.585907 314.984314,154.141251 
	C306.903687,155.490112 299.086304,157.730423 293.991089,165.001617 
	C293.999329,164.999390 294.004883,164.983109 293.711304,164.991318 
	C293.269623,165.331406 293.121490,165.663284 292.988098,165.999084 
	C293.002808,166.003006 292.996033,165.973267 292.701721,165.980469 
	C292.261139,166.322189 292.114838,166.656708 291.985779,166.996826 
	C292.002960,167.002396 291.993713,166.967422 291.652863,166.932983 
	C290.858215,167.597336 290.404388,168.296143 289.976379,168.999969 
	C290.002197,169.004990 289.992584,168.953247 289.715668,168.996140 
	C289.276611,169.358963 289.114502,169.678909 288.979248,170.002899 
	C289.006073,170.006958 289.002991,169.952698 288.708679,170.037338 
	C288.226044,170.478851 288.037720,170.835739 287.632965,171.422180 
	C285.234467,174.406021 283.052429,177.160294 280.870361,179.914581 
z"/>
<path fill="#4111EA" opacity="1.000000" stroke="none" 
	d="
M356.874207,201.845581 
	C356.843658,201.462555 356.813080,201.079514 356.736359,200.041855 
	C354.823792,194.650131 352.957428,189.913025 351.331146,184.940842 
	C350.033020,181.515656 348.494812,178.325546 346.964600,174.735687 
	C345.675903,169.479614 344.379211,164.623291 343.082489,159.766968 
	C344.557526,160.674820 346.343079,161.301437 347.459473,162.534103 
	C358.441010,174.659225 361.935028,188.646545 357.230042,204.714996 
	C356.921539,204.932983 356.872040,204.889221 356.909607,204.510773 
	C356.922882,203.370087 356.898529,202.607834 356.874207,201.845581 
z"/>
<path fill="#AA39E9" opacity="1.000000" stroke="none" 
	d="
M266.977295,246.688934 
	C266.356415,245.364410 265.394745,243.677704 265.537262,242.090164 
	C266.184357,234.882889 267.196747,227.709137 267.937500,220.508896 
	C268.066010,219.259872 267.519104,217.941391 267.161926,215.938812 
	C267.728455,213.775330 268.417206,212.328033 269.105988,210.880722 
	C271.059021,214.932907 273.135406,218.932297 274.903381,223.063690 
	C275.596405,224.683075 275.598083,226.598312 275.946136,228.798157 
	C273.033386,234.935791 270.089172,240.654099 266.977295,246.688934 
z"/>
<path fill="#1920ED" opacity="1.000000" stroke="none" 
	d="
M146.408447,330.082947 
	C143.119827,331.223206 139.839767,331.960938 134.983475,333.053192 
	C139.369614,323.774323 139.447845,315.661865 135.441727,307.377380 
	C139.459778,307.377380 142.567261,307.377380 146.506363,307.377380 
	C144.117279,314.902893 141.394287,322.420593 146.408447,330.082947 
z"/>
<path fill="#1920ED" opacity="1.000000" stroke="none" 
	d="
M230.047729,323.677612 
	C229.504196,318.035095 228.960541,312.847931 228.392868,307.431763 
	C231.200150,307.431763 234.310059,307.431763 238.364960,307.431763 
	C235.065002,315.434723 233.911682,323.530304 238.802338,331.785095 
	C234.645325,331.785095 231.404358,331.785095 227.234085,331.785095 
	C228.249969,329.022156 229.148788,326.577576 230.047729,323.677612 
z"/>
<path fill="#1119EC" opacity="1.000000" stroke="none" 
	d="
M289.464539,311.815002 
	C288.770966,310.397461 288.480682,309.097656 288.111389,307.443970 
	C291.957458,307.443970 295.072113,307.443970 299.343536,307.443970 
	C295.359680,315.558350 294.436920,323.574341 299.716614,331.743652 
	C295.506500,331.743652 292.237366,331.743652 288.570129,331.743652 
	C288.570129,330.569977 288.054688,328.925659 288.652710,328.203796 
	C292.965149,322.998413 290.938141,317.454010 289.464539,311.815002 
z"/>
<path fill="#AA39E9" opacity="1.000000" stroke="none" 
	d="
M167.126648,269.364563 
	C167.647186,265.560394 168.276337,262.041840 169.015411,258.546539 
	C169.379944,256.822510 169.947540,255.141449 171.021805,253.362152 
	C174.480301,255.473404 177.340240,257.663452 179.886505,260.116821 
	C178.715118,265.579010 177.857391,270.777863 176.999664,275.976746 
	C173.759964,273.871094 170.520248,271.765411 167.126648,269.364563 
z"/>
<path fill="#1119EC" opacity="1.000000" stroke="none" 
	d="
M170.064667,162.041473 
	C166.817352,163.693695 163.570023,165.345901 159.934540,166.962524 
	C168.350067,156.490250 179.438889,149.677551 192.894623,146.510803 
	C193.136520,148.926575 193.053864,150.935379 192.626984,153.097504 
	C186.193481,155.508255 180.104187,157.765686 173.796844,160.060394 
	C173.277496,160.199097 173.078354,160.401123 172.901108,160.738541 
	C172.820877,160.773346 172.692062,160.891647 172.495071,160.909515 
	C172.298080,160.927399 171.934967,161.084366 171.668137,161.137238 
	C170.955765,161.473907 170.510223,161.757690 170.064667,162.041473 
z"/>
<path fill="#AA39E9" opacity="1.000000" stroke="none" 
	d="
M251.975525,169.064117 
	C248.061401,166.585266 244.147293,164.106430 239.887207,161.115143 
	C239.005981,160.451553 238.470703,160.300446 237.935425,160.149323 
	C237.935425,160.149323 237.873962,160.174240 237.849792,159.915802 
	C237.825623,159.657364 237.804718,159.166428 238.037842,158.979782 
	C236.187790,157.508911 234.104614,156.224686 232.007690,154.533783 
	C232.154129,152.810120 232.314316,151.493118 232.469009,150.221115 
	C236.076874,150.848526 239.046692,151.364990 242.016510,151.881454 
	C244.908417,153.285599 247.800323,154.689743 250.837860,156.768539 
	C248.533661,162.146332 250.806320,165.663055 253.564529,168.985718 
	C252.823624,169.016876 252.399582,169.040497 251.975525,169.064117 
z"/>
<path fill="#7F3BED" opacity="1.000000" stroke="none" 
	d="
M241.794403,151.621826 
	C239.046692,151.364990 236.076874,150.848526 232.469009,150.221115 
	C232.314316,151.493118 232.154129,152.810120 231.671021,154.409927 
	C228.596725,153.791473 225.845383,152.890198 222.750702,151.836380 
	C219.263977,150.807037 216.120575,149.930237 212.547791,149.036606 
	C208.120117,148.547928 204.121841,148.076096 200.123550,147.604263 
	C200.129059,147.379990 200.134583,147.155701 200.140091,146.931427 
	C202.436737,146.931427 204.733383,146.931427 207.490891,146.945099 
	C212.335632,146.588333 216.719498,146.217896 221.103378,145.847443 
	C227.926346,147.685699 234.749329,149.523941 241.794403,151.621826 
z"/>
<path fill="#4111EA" opacity="1.000000" stroke="none" 
	d="
M207.030029,146.931427 
	C204.733383,146.931427 202.436737,146.931427 200.140091,146.931427 
	C200.134583,147.155701 200.129059,147.379990 200.123550,147.604263 
	C204.121841,148.076096 208.120117,148.547928 212.552612,149.392441 
	C212.965927,150.477356 212.945007,151.189606 212.462311,151.925095 
	C205.657410,152.280304 199.314316,152.612244 192.971207,152.944183 
	C193.053864,150.935379 193.136520,148.926575 193.349121,146.535217 
	C197.706635,145.452835 201.934235,144.753006 206.587570,144.464691 
	C207.018890,145.561279 207.024460,146.246353 207.030029,146.931427 
z"/>
<path fill="#C536EA" opacity="1.000000" stroke="none" 
	d="
M177.202454,276.246796 
	C177.857391,270.777863 178.715118,265.579010 180.210083,260.195099 
	C182.566498,260.986145 184.285675,261.962250 185.849609,263.313385 
	C184.801193,268.771027 183.908051,273.853577 183.014893,278.936157 
	C181.145004,278.129730 179.275116,277.323273 177.202454,276.246796 
z"/>
<path fill="#DE33E8" opacity="1.000000" stroke="none" 
	d="
M266.880432,167.658249 
	C266.403076,170.991440 265.770233,174.033798 264.769714,177.362427 
	C262.250122,175.772766 260.098145,173.896820 257.968933,171.614120 
	C258.751465,168.417999 259.511261,165.628616 260.271027,162.839233 
	C262.422333,164.348618 264.573639,165.858002 266.880432,167.658249 
z"/>
<path fill="#C536EA" opacity="1.000000" stroke="none" 
	d="
M260.083282,162.552795 
	C259.511261,165.628616 258.751465,168.417999 257.729736,171.545364 
	C257.160004,171.720810 256.938538,171.479126 256.721985,170.891968 
	C256.142853,170.447037 255.645172,170.268433 255.071442,170.044983 
	C254.995377,170.000153 254.873505,169.872391 254.802338,169.694489 
	C254.573090,169.293869 254.358170,169.168259 254.027527,169.109024 
	C253.968658,169.078293 253.881378,168.978195 253.881378,168.978195 
	C250.806320,165.663055 248.533661,162.146332 251.052734,157.021149 
	C254.046509,158.488205 256.971008,160.377289 260.083282,162.552795 
z"/>
<path fill="#DE33E8" opacity="1.000000" stroke="none" 
	d="
M183.254745,279.172729 
	C183.908051,273.853577 184.801193,268.771027 186.150269,263.431854 
	C187.397903,263.387787 188.189636,263.600311 189.186630,263.952942 
	C189.711258,264.240265 189.924484,264.481293 190.031570,264.816193 
	C189.405533,269.857147 188.779495,274.898102 188.092560,280.323608 
	C186.519318,280.275208 185.006958,279.842285 183.254745,279.172729 
z"/>
<path fill="#5209E7" opacity="1.000000" stroke="none" 
	d="
M342.938660,159.466370 
	C344.379211,164.623291 345.675903,169.479614 346.715515,174.726593 
	C346.458374,175.117233 345.962646,175.173462 345.683868,174.996735 
	C343.950348,173.526123 342.495605,172.232224 340.910156,170.719421 
	C340.531494,170.267319 340.283569,170.034119 340.028076,169.411041 
	C339.008392,164.992676 337.996277,160.964218 336.984161,156.935745 
	C336.996490,156.751465 337.008820,156.567200 337.064270,156.109482 
	C339.003174,156.945953 340.898987,158.055878 342.938660,159.466370 
z"/>
<path fill="#C536EA" opacity="1.000000" stroke="none" 
	d="
M332.995117,234.001068 
	C338.470306,231.313232 343.945496,228.625397 349.705872,225.797562 
	C347.009338,230.737289 342.861694,233.424835 337.031860,234.985535 
	C335.224121,235.059433 334.149597,235.060745 333.068787,234.795776 
	C333.040039,234.353348 333.017578,234.177200 332.995117,234.001068 
z"/>
<path fill="#560BAD" opacity="1.000000" stroke="none" 
	d="
M333.075073,235.062073 
	C334.149597,235.060745 335.224121,235.059433 336.693390,235.125885 
	C331.646088,239.814209 325.152924,239.324051 318.336823,238.534729 
	C318.054840,237.676117 318.125366,237.260468 318.597839,236.855896 
	C320.371490,236.853821 321.743134,236.840637 323.512268,236.843292 
	C326.964813,236.260101 330.019958,235.661087 333.075073,235.062073 
z"/>
<path fill="#6609E7" opacity="1.000000" stroke="none" 
	d="
M207.490891,146.945099 
	C207.024460,146.246353 207.018890,145.561279 207.014404,144.532593 
	C211.561813,144.530869 216.108154,144.872757 220.878937,145.531052 
	C216.719498,146.217896 212.335632,146.588333 207.490891,146.945099 
z"/>
<path fill="#0D0F83" opacity="1.000000" stroke="none" 
	d="
M318.195892,236.844803 
	C318.125366,237.260468 318.054840,237.676117 317.968689,238.407593 
	C313.998077,237.318863 310.043030,235.914322 306.500610,234.187531 
	C310.528473,234.607513 314.143738,235.349731 317.856079,236.287354 
	C317.953125,236.482742 318.195892,236.844803 318.195892,236.844803 
z"/>
<path fill="#5209E7" opacity="1.000000" stroke="none" 
	d="
M317.759003,236.091980 
	C314.143738,235.349731 310.528473,234.607513 306.526215,233.819153 
	C306.139221,233.773010 305.989960,233.402512 305.998169,233.208328 
	C306.006409,233.014145 305.996307,232.987747 305.996307,232.987747 
	C310.074280,233.608231 314.152283,234.228729 318.459503,235.199417 
	C318.378845,235.730392 318.068939,235.911179 317.759003,236.091980 
z"/>
<path fill="#9906D1" opacity="1.000000" stroke="none" 
	d="
M333.068787,234.795776 
	C330.019958,235.661087 326.964813,236.260101 323.489258,236.565063 
	C323.069763,235.896149 323.070740,235.521301 323.071747,235.146423 
	C326.092499,234.760757 329.113281,234.375092 332.564575,233.995239 
	C333.017578,234.177200 333.040039,234.353348 333.068787,234.795776 
z"/>
<path fill="#6609E7" opacity="1.000000" stroke="none" 
	d="
M322.661926,235.080444 
	C323.070740,235.521301 323.069763,235.896149 323.091797,236.549240 
	C321.743134,236.840637 320.371490,236.853821 318.597839,236.855896 
	C318.195892,236.844803 317.953125,236.482742 317.856079,236.287354 
	C318.068939,235.911179 318.378845,235.730392 318.825867,235.316696 
	C320.059357,235.060669 321.155731,235.037567 322.661926,235.080444 
z"/>
<path fill="#4111EA" opacity="1.000000" stroke="none" 
	d="
M356.371582,207.462433 
	C356.199585,206.955963 356.256256,206.270462 356.511475,205.258118 
	C356.710052,204.931290 356.872040,204.889221 356.872040,204.889221 
	C356.872040,204.889221 356.921539,204.932983 356.945923,204.955261 
	C356.846985,205.746155 356.723602,206.514786 356.371582,207.462433 
z"/>
<path fill="#1119EC" opacity="1.000000" stroke="none" 
	d="
M157.720810,168.880585 
	C157.738892,169.245880 157.532776,169.767365 157.145767,170.125092 
	C157.142105,169.653152 157.319366,169.344955 157.720810,168.880585 
z"/>
<path fill="#5209E7" opacity="1.000000" stroke="none" 
	d="
M305.992004,233.008698 
	C305.977600,233.003265 305.921295,232.830627 305.921295,232.830627 
	C305.921295,232.830627 305.876404,233.057724 305.936340,233.022736 
	C305.996307,232.987747 306.006409,233.014145 305.992004,233.008698 
z"/>
<path fill="#FDFCFE" opacity="1.000000" stroke="none" 
	d="
M231.988098,177.878418 
	C241.944290,185.026489 251.900482,192.174561 261.693298,199.882141 
	C260.728821,202.192688 259.927643,203.943726 258.863892,205.946625 
	C255.321136,211.772156 252.116821,217.392212 248.745728,222.910370 
	C240.439789,236.506393 229.425507,246.475616 212.648407,249.081879 
	C210.805206,249.060928 209.383926,249.114563 207.549805,249.090866 
	C205.463623,248.910828 203.790298,248.808136 202.140167,248.727509 
	C202.163376,248.749588 202.187317,248.689392 201.930054,248.436401 
	C194.879608,244.430099 188.086411,240.676804 181.188721,236.645126 
	C180.771805,236.141724 180.459381,235.916702 180.143890,235.769623 
	C180.140808,235.847565 180.285782,235.789917 180.169159,235.465057 
	C161.954056,211.666214 173.066071,179.475174 201.554138,173.394470 
	C212.107742,171.141815 222.274643,173.443741 231.988098,177.878418 
M195.427109,179.662277 
	C190.849106,182.989090 186.271103,186.315903 181.693085,189.642715 
	C182.053040,190.148682 182.412994,190.654663 182.772949,191.160629 
	C185.514069,189.278625 188.255188,187.396637 191.738693,185.215332 
	C195.884506,184.048279 200.030334,182.881241 205.079956,181.842010 
	C212.999069,182.358459 220.918182,182.874908 228.274475,183.354645 
	C223.426422,176.886719 206.776138,174.556488 196.255096,179.540100 
	C196.255096,179.540100 196.230240,179.568558 196.202209,179.592285 
	C196.202209,179.592285 196.188599,179.537430 195.427109,179.662277 
M246.384888,217.910538 
	C249.888840,212.851852 253.524460,207.875519 256.784302,202.664139 
	C257.427124,201.636459 256.622009,199.703094 256.484619,198.187408 
	C255.998001,198.234894 255.511368,198.282394 255.024719,198.329880 
	C252.124405,203.707932 249.178574,209.062347 246.365036,214.485428 
	C245.848129,215.481781 245.868149,216.756683 246.384888,217.910538 
M240.668259,224.740189 
	C237.029861,229.196014 233.391479,233.651840 229.753082,238.107666 
	C229.269302,237.626160 228.785507,237.144638 228.301727,236.663132 
	C233.069138,236.548386 241.582764,229.458908 242.007858,225.163681 
	C242.034958,224.889786 241.276871,224.538208 240.668259,224.740189 
z"/>
<path fill="#0B0EAC" opacity="1.000000" stroke="none" 
	d="
M181.293228,236.923508 
	C188.086411,240.676804 194.879608,244.430099 201.548172,248.554077 
	C200.634750,249.031586 199.845947,249.138397 198.627716,249.165421 
	C193.812897,248.347275 189.427490,247.608902 184.792023,246.617401 
	C180.122604,244.533539 175.649216,242.821808 171.295914,240.845581 
	C163.800552,237.442947 158.899475,231.160873 154.040649,224.868591 
	C152.998856,219.035202 151.596817,213.238632 150.995956,207.360168 
	C149.982727,197.447128 153.159180,188.393829 158.207489,179.293274 
	C160.127625,176.556091 161.590408,174.291122 163.053207,172.026169 
	C163.053207,172.026169 163.005615,171.996262 163.299927,171.928192 
	C164.078644,171.248779 164.563049,170.637451 165.047455,170.026138 
	C165.047455,170.026138 165.001083,169.999283 165.328476,169.899811 
	C166.148575,169.356506 166.633881,168.904129 167.135056,168.470108 
	C181.600128,155.943405 198.350433,151.878891 217.039642,154.998062 
	C217.055939,158.715317 217.553772,161.736099 222.406708,162.329330 
	C223.493988,162.462250 224.152786,166.100510 224.584381,168.555588 
	C218.231018,166.266159 209.956360,169.168991 206.057388,161.432739 
	C205.842117,161.005600 204.520050,161.038361 203.710068,161.023407 
	C189.828766,160.767258 178.518616,165.829666 170.392914,177.315506 
	C165.207153,184.645660 162.222183,192.941666 161.170639,201.741272 
	C160.263367,209.333710 160.914825,216.942688 164.814621,223.924149 
	C164.521576,221.005966 164.228531,218.087784 163.935486,215.169601 
	C165.518234,217.224319 165.959808,219.563828 167.067490,221.527634 
	C170.324249,227.301697 172.393112,234.281525 180.285782,235.789917 
	C180.285782,235.789917 180.140808,235.847565 180.221252,236.064514 
	C180.632217,236.495499 180.962723,236.709503 181.293228,236.923508 
z"/>
<path fill="#0D0F83" opacity="1.000000" stroke="none" 
	d="
M180.169159,235.465057 
	C172.393112,234.281525 170.324249,227.301697 167.067490,221.527634 
	C165.959808,219.563828 165.518234,217.224319 163.935486,215.169601 
	C164.228531,218.087784 164.521576,221.005966 164.814621,223.924149 
	C160.914825,216.942688 160.263367,209.333710 161.170639,201.741272 
	C162.222183,192.941666 165.207153,184.645660 170.392914,177.315506 
	C178.518616,165.829666 189.828766,160.767258 203.710068,161.023407 
	C204.520050,161.038361 205.842117,161.005600 206.057388,161.432739 
	C209.956360,169.168991 218.231018,166.266159 224.564087,168.978973 
	C227.297852,171.687027 233.174042,171.331451 231.990967,177.482086 
	C222.274643,173.443741 212.107742,171.141815 201.554138,173.394470 
	C173.066071,179.475174 161.954056,211.666214 180.169159,235.465057 
z"/>
<path fill="#1119EC" opacity="1.000000" stroke="none" 
	d="
M213.070312,249.156479 
	C229.425507,246.475616 240.439789,236.506393 248.745728,222.910370 
	C252.116821,217.392212 255.321136,211.772156 259.247711,206.010635 
	C261.911926,206.363510 263.929749,206.904205 265.947571,207.444916 
	C265.947571,207.444916 266.009216,207.840714 265.976562,208.370911 
	C263.282806,213.774155 260.621735,218.647217 257.723083,223.719086 
	C257.317108,224.285080 257.148682,224.652252 256.997009,225.014984 
	C257.013733,225.010544 257.011658,224.975998 256.727905,225.118927 
	C256.281860,225.833420 256.119537,226.404984 255.979828,226.985840 
	C256.002441,226.995132 255.963638,226.963455 255.614105,226.949478 
	C254.495224,228.279465 253.725861,229.623428 252.977936,230.984009 
	C252.999390,231.000610 252.962311,230.961639 252.651260,230.929932 
	C252.214996,231.253174 252.089783,231.608139 251.981003,231.981033 
	C251.997437,231.998978 251.960678,231.962067 251.611450,231.883484 
	C243.368576,239.525253 234.350174,245.442276 223.392578,248.927612 
	C219.671158,249.005447 216.370728,249.080963 213.070312,249.156479 
z"/>
<path fill="#9906D1" opacity="1.000000" stroke="none" 
	d="
M257.960632,223.520279 
	C260.621735,218.647217 263.282806,213.774155 266.039551,208.561035 
	C267.030640,208.933762 267.926147,209.646515 268.963806,210.619995 
	C268.417206,212.328033 267.728455,213.775330 267.009491,215.558136 
	C262.331909,222.988937 257.684509,230.084244 252.706360,237.693405 
	C246.898438,242.726883 241.421280,247.246521 235.628067,251.843002 
	C234.880630,251.946808 234.449234,251.973770 233.973450,251.659424 
	C233.218933,250.205780 232.508804,249.093430 232.050323,247.721710 
	C239.990723,243.736160 247.556152,239.853561 251.960678,231.962067 
	C251.960678,231.962067 251.997437,231.998978 252.245453,231.937332 
	C252.649750,231.570999 252.806030,231.266327 252.962311,230.961639 
	C252.962311,230.961639 252.999390,231.000610 253.297729,230.888199 
	C254.385254,229.505005 255.174454,228.234238 255.963654,226.963470 
	C255.963638,226.963455 256.002441,226.995132 256.274170,226.866470 
	C256.701141,226.150543 256.856415,225.563263 257.011658,224.975998 
	C257.011658,224.975998 257.013733,225.010544 257.312988,224.901962 
	C257.728394,224.369019 257.844513,223.944641 257.960632,223.520279 
z"/>
<path fill="#6609E7" opacity="1.000000" stroke="none" 
	d="
M256.803467,171.158310 
	C256.938538,171.479126 257.160004,171.720810 257.707001,171.952103 
	C260.098145,173.896820 262.250122,175.772766 264.713196,177.743561 
	C266.258423,178.998932 267.492523,180.159470 268.900757,181.576920 
	C269.483612,185.311920 269.892303,188.790024 270.159027,192.582001 
	C264.632324,188.024521 258.944702,183.433640 254.030243,178.126801 
	C252.353653,176.316376 252.619965,172.706680 251.987030,169.491608 
	C252.399582,169.040497 252.823624,169.016876 253.564529,168.985718 
	C253.881378,168.978195 253.968658,169.078293 254.091309,169.290985 
	C254.375824,169.730225 254.595673,169.853119 254.873505,169.872391 
	C254.873505,169.872391 254.995377,170.000153 255.188766,170.274628 
	C255.855927,170.752167 256.329712,170.955246 256.803467,171.158310 
z"/>
<path fill="#8579E4" opacity="1.000000" stroke="none" 
	d="
M217.445801,154.968414 
	C198.350433,151.878891 181.600128,155.943405 167.135056,168.470108 
	C166.633881,168.904129 166.148575,169.356506 165.341522,169.923187 
	C166.671051,167.604080 168.314911,165.162109 170.011719,162.380798 
	C170.510223,161.757690 170.955765,161.473907 171.768433,161.282043 
	C172.321045,161.213211 172.506561,161.052429 172.692062,160.891647 
	C172.692062,160.891647 172.820877,160.773346 173.120728,160.716919 
	C173.704483,160.528107 173.902588,160.315643 174.014908,160.023102 
	C180.104187,157.765686 186.193481,155.508255 192.626984,153.097504 
	C199.314316,152.612244 205.657410,152.280304 212.875763,151.993484 
	C216.802444,152.524307 219.853882,153.009995 223.206085,153.675903 
	C228.272827,155.626205 233.038773,157.396317 237.804718,159.166428 
	C237.804718,159.166428 237.825623,159.657364 237.818604,159.904510 
	C231.158371,158.414032 224.505173,156.676392 217.445801,154.968414 
z"/>
<path fill="#0D0F83" opacity="1.000000" stroke="none" 
	d="
M266.212341,207.153381 
	C263.929749,206.904205 261.911926,206.363510 259.510284,205.758789 
	C259.927643,203.943726 260.728821,202.192688 261.774170,200.212952 
	C265.131836,201.221848 268.106720,202.549301 266.212341,207.153381 
z"/>
<path fill="#8579E4" opacity="1.000000" stroke="none" 
	d="
M238.060440,160.396667 
	C238.470703,160.300446 239.005981,160.451553 239.636475,160.871033 
	C239.216263,160.974258 238.700867,160.809128 238.060440,160.396667 
z"/>
<path fill="#FDFCFE" opacity="1.000000" stroke="none" 
	d="
M320.425385,205.145721 
	C309.682861,205.892166 301.237793,201.922531 294.129395,194.039474 
	C294.751007,192.340500 295.390198,191.240723 296.318390,189.980957 
	C297.758850,188.239105 298.910309,186.657211 300.359863,184.933014 
	C302.442413,183.116302 304.226837,181.441895 306.314758,179.669998 
	C308.077606,178.626129 309.536987,177.679749 311.308228,176.675629 
	C312.760071,176.127487 313.900024,175.637085 315.489685,175.139160 
	C318.926056,175.114105 321.912720,175.096588 325.086060,175.356445 
	C327.488983,177.799179 329.705261,179.964554 331.921570,182.129929 
	C332.278717,186.761490 333.609192,191.582672 332.752930,195.977829 
	C331.618103,201.802750 327.066956,204.999512 320.425385,205.145721 
z"/>
<path fill="#560BAD" opacity="1.000000" stroke="none" 
	d="
M332.280212,182.096100 
	C329.705261,179.964554 327.488983,177.799179 325.523560,175.333832 
	C328.862396,175.337326 331.950317,175.640778 335.379639,176.081116 
	C337.129578,176.640076 338.538116,177.062149 340.164307,177.685944 
	C341.508270,178.353882 342.634552,178.820084 343.967651,179.546631 
	C346.480011,181.596634 348.785522,183.386292 351.091064,185.175934 
	C352.957428,189.913025 354.823792,194.650131 356.780396,199.756241 
	C356.240112,199.238297 355.440338,198.426834 355.005859,197.452484 
	C351.450256,189.478973 345.930145,184.123459 336.801758,183.286423 
	C335.388580,183.156845 334.025238,182.483932 332.280212,182.096100 
z"/>
<path fill="#560BAD" opacity="1.000000" stroke="none" 
	d="
M356.909607,204.510773 
	C356.872040,204.889221 356.710052,204.931290 356.629333,204.931458 
	C356.522675,204.076675 356.496735,203.221741 356.672485,202.106201 
	C356.898529,202.607834 356.922882,203.370087 356.909607,204.510773 
z"/>
<path fill="#4111EA" opacity="1.000000" stroke="none" 
	d="
M154.024017,225.262238 
	C158.899475,231.160873 163.800552,237.442947 171.295914,240.845581 
	C175.649216,242.821808 180.122604,244.533539 184.777191,247.044998 
	C185.380753,249.811066 185.621994,251.929001 186.146286,253.974365 
	C186.993362,257.278961 188.026703,260.535797 188.981369,263.812805 
	C188.189636,263.600311 187.397903,263.387787 186.305511,263.056793 
	C184.285675,261.962250 182.566498,260.986145 180.523743,259.931763 
	C177.340240,257.663452 174.480301,255.473404 171.323578,253.126740 
	C166.847900,247.468323 162.668991,241.966553 158.229004,236.255463 
	C156.647736,232.582733 155.327560,229.119308 154.024017,225.262238 
z"/>
<path fill="#8579E4" opacity="1.000000" stroke="none" 
	d="
M162.705978,172.008514 
	C161.590408,174.291122 160.127625,176.556091 158.365509,178.982269 
	C159.497040,176.759277 160.927887,174.375061 162.705978,172.008514 
z"/>
<path fill="#8579E4" opacity="1.000000" stroke="none" 
	d="
M164.696793,169.985565 
	C164.563049,170.637451 164.078644,171.248779 163.310577,171.954178 
	C163.466644,171.347168 163.906387,170.646072 164.696793,169.985565 
z"/>
<path fill="#EF03DD" opacity="1.000000" stroke="none" 
	d="
M281.020081,180.203369 
	C283.052429,177.160294 285.234467,174.406021 287.895691,171.280167 
	C288.584259,170.589951 288.793610,170.271332 289.002991,169.952698 
	C289.002991,169.952698 289.006073,170.006958 289.241241,169.933990 
	C289.648468,169.558426 289.820526,169.255844 289.992584,168.953247 
	C289.992584,168.953247 290.002197,169.004990 290.270508,168.916290 
	C291.023773,168.207535 291.508759,167.587479 291.993713,166.967422 
	C291.993713,166.967422 292.002960,167.002396 292.261597,166.956345 
	C292.678802,166.597946 292.837402,166.285599 292.996033,165.973267 
	C292.996033,165.973267 293.002808,166.003006 293.272614,165.972565 
	C293.696564,165.622452 293.850739,165.302780 294.004883,164.983124 
	C294.004883,164.983109 293.999329,164.999390 294.347473,165.019318 
	C298.822083,162.749588 302.948517,160.459946 307.067688,158.546448 
	C307.705536,161.596481 308.350677,164.270401 308.705566,166.962585 
	C307.944244,167.261871 307.473145,167.542877 306.655884,167.897522 
	C304.164062,169.248016 302.018463,170.524857 299.556610,171.881744 
	C298.129639,172.938156 297.018890,173.914551 295.612885,175.046967 
	C292.078400,178.489273 288.839172,181.775574 285.599915,185.061859 
	C284.123199,183.538620 282.646484,182.015396 281.020081,180.203369 
z"/>
<path fill="#4D3EEE" opacity="1.000000" stroke="none" 
	d="
M285.704956,185.398926 
	C288.839172,181.775574 292.078400,178.489273 295.903290,175.330414 
	C296.335754,180.352219 296.182587,185.246582 296.029388,190.140945 
	C295.390198,191.240723 294.751007,192.340500 293.975311,193.733337 
	C291.162537,191.262955 288.486267,188.499466 285.704956,185.398926 
z"/>
<path fill="#6609E7" opacity="1.000000" stroke="none" 
	d="
M231.798691,247.981094 
	C232.508804,249.093430 233.218933,250.205780 233.748627,251.918030 
	C225.767212,255.926239 217.966232,259.334534 209.231766,263.150696 
	C213.803833,262.934113 217.428314,262.762421 221.077332,262.997375 
	C221.468292,265.010132 221.834717,266.616241 222.201141,268.222321 
	C216.339767,268.389984 210.478378,268.557678 204.294647,268.062927 
	C202.333908,261.348755 200.695526,255.296982 199.057144,249.245209 
	C199.845947,249.138397 200.634750,249.031586 201.805435,248.807083 
	C202.187317,248.689392 202.163376,248.749588 202.292313,249.071503 
	C204.268387,249.318329 206.115509,249.243256 207.962646,249.168182 
	C209.383926,249.114563 210.805206,249.060928 212.648407,249.081879 
	C216.370728,249.080963 219.671158,249.005447 223.816910,248.990295 
	C227.041061,248.694138 229.419876,248.337616 231.798691,247.981094 
z"/>
<path fill="#5209E7" opacity="1.000000" stroke="none" 
	d="
M198.627716,249.165436 
	C200.695526,255.296982 202.333908,261.348755 203.950485,267.826172 
	C199.553711,267.146790 195.178757,266.041779 190.417679,264.876465 
	C189.924484,264.481293 189.711258,264.240265 189.186630,263.952942 
	C188.026703,260.535797 186.993362,257.278961 186.146286,253.974365 
	C185.621994,251.929001 185.380753,249.811066 185.027267,247.298126 
	C189.427490,247.608902 193.812897,248.347275 198.627716,249.165436 
z"/>
<path fill="#9906D1" opacity="1.000000" stroke="none" 
	d="
M222.582275,268.209412 
	C221.834717,266.616241 221.468292,265.010132 221.372559,262.799561 
	C226.417725,260.775116 231.192200,259.355225 236.308380,257.848938 
	C239.770126,256.171051 242.890167,254.579590 246.010223,252.988129 
	C241.802780,256.818939 237.595352,260.649750 233.188965,264.754791 
	C229.647812,266.084839 226.305618,267.140686 222.582275,268.209412 
z"/>
<path fill="#DE33E8" opacity="1.000000" stroke="none" 
	d="
M246.004211,252.994446 
	C242.890167,254.579590 239.770126,256.171051 236.320999,257.415619 
	C235.975983,255.301178 235.960052,253.533676 235.944122,251.766159 
	C241.421280,247.246521 246.898438,242.726883 252.666962,238.035187 
	C252.732620,240.681305 252.506912,243.499496 251.918457,246.794983 
	C251.304871,247.462753 251.120972,247.704239 251.004028,247.996735 
	C251.004028,247.996735 250.999390,247.999390 250.759460,248.178436 
	C250.338425,248.911133 250.157303,249.464752 249.976196,250.018372 
	C249.976181,250.018372 250.008118,250.005981 249.769165,250.088593 
	C249.346054,250.453278 249.161896,250.735352 248.977722,251.017426 
	C248.977722,251.017426 249.000626,250.998596 248.765564,251.077911 
	C248.348511,251.443726 248.166489,251.730225 247.984467,252.016708 
	C247.984467,252.016708 248.000168,252.000931 247.700226,251.987396 
	C246.928101,252.319061 246.455933,252.664261 245.983765,253.009460 
	C245.983765,253.009476 245.998230,253.000778 246.004211,252.994446 
z"/>
<path fill="#9906D1" opacity="1.000000" stroke="none" 
	d="
M250.220551,249.846985 
	C250.157303,249.464752 250.338425,248.911133 250.758636,248.180878 
	C250.820114,248.561371 250.642502,249.118484 250.220551,249.846985 
z"/>
<path fill="#9906D1" opacity="1.000000" stroke="none" 
	d="
M249.214157,251.003799 
	C249.161896,250.735352 249.346054,250.453278 249.769226,250.071472 
	C250.008224,249.971741 249.966339,250.465790 249.944778,250.712433 
	C249.923218,250.959076 249.450592,250.990173 249.214157,251.003799 
z"/>
<path fill="#9906D1" opacity="1.000000" stroke="none" 
	d="
M251.206085,247.890350 
	C251.120972,247.704239 251.304871,247.462753 251.762070,247.174133 
	C251.841385,247.359222 251.654633,247.595230 251.206085,247.890350 
z"/>
<path fill="#9906D1" opacity="1.000000" stroke="none" 
	d="
M246.294434,253.026169 
	C246.455933,252.664261 246.928101,252.319061 247.709488,251.981277 
	C247.547501,252.340088 247.076309,252.691483 246.294434,253.026169 
z"/>
<path fill="#9906D1" opacity="1.000000" stroke="none" 
	d="
M248.217438,251.912216 
	C248.166489,251.730225 248.348511,251.443726 248.776581,251.067993 
	C248.831909,251.255081 248.641144,251.531403 248.217438,251.912216 
z"/>
<path fill="#9906D1" opacity="1.000000" stroke="none" 
	d="
M308.995850,166.944305 
	C308.350677,164.270401 307.705536,161.596481 307.424072,158.415314 
	C313.814758,156.908005 319.841736,155.907959 325.868744,154.907898 
	C326.936096,154.983795 328.003479,155.059708 329.555298,155.539581 
	C330.972290,159.360153 331.904755,162.776779 332.425018,166.163666 
	C326.678436,165.771103 321.344055,165.408279 315.659546,165.038925 
	C314.193268,165.350998 313.077087,165.669617 311.644806,165.999817 
	C310.551056,166.322357 309.773468,166.633331 308.995850,166.944305 
z"/>
<path fill="#6609E7" opacity="1.000000" stroke="none" 
	d="
M332.837219,166.193390 
	C331.904755,162.776779 330.972290,159.360153 329.952393,155.596558 
	C331.992523,155.810974 334.120087,156.372391 336.615906,156.934784 
	C337.996277,160.964218 339.008392,164.992676 339.719360,169.343292 
	C338.270111,169.149246 337.122040,168.633041 335.662170,168.053040 
	C334.512665,167.390625 333.674927,166.792007 332.837219,166.193390 
z"/>
<path fill="#8579E4" opacity="1.000000" stroke="none" 
	d="
M325.574951,154.638962 
	C319.841736,155.907959 313.814758,156.908005 307.431366,158.039185 
	C302.948517,160.459946 298.822083,162.749588 294.339233,165.021545 
	C299.086304,157.730423 306.903687,155.490112 314.984314,154.141251 
	C318.311157,153.585907 321.842682,154.256866 325.574951,154.638962 
z"/>
<path fill="#8579E4" opacity="1.000000" stroke="none" 
	d="
M291.652863,166.932983 
	C291.508759,167.587479 291.023773,168.207535 290.244690,168.911255 
	C290.404388,168.296143 290.858215,167.597336 291.652863,166.932983 
z"/>
<path fill="#8579E4" opacity="1.000000" stroke="none" 
	d="
M288.708679,170.037338 
	C288.793610,170.271332 288.584259,170.589951 288.112152,171.050598 
	C288.037720,170.835739 288.226044,170.478851 288.708679,170.037338 
z"/>
<path fill="#8579E4" opacity="1.000000" stroke="none" 
	d="
M292.701721,165.980469 
	C292.837402,166.285599 292.678802,166.597946 292.244385,166.950775 
	C292.114838,166.656708 292.261139,166.322189 292.701721,165.980469 
z"/>
<path fill="#8579E4" opacity="1.000000" stroke="none" 
	d="
M293.711334,164.991333 
	C293.850739,165.302780 293.696564,165.622452 293.257904,165.968658 
	C293.121490,165.663284 293.269623,165.331406 293.711334,164.991333 
z"/>
<path fill="#8579E4" opacity="1.000000" stroke="none" 
	d="
M289.715668,168.996140 
	C289.820526,169.255844 289.648468,169.558426 289.214417,169.929932 
	C289.114502,169.678909 289.276611,169.358963 289.715668,168.996140 
z"/>
<path fill="#AA39E9" opacity="1.000000" stroke="none" 
	d="
M351.331116,184.940857 
	C348.785522,183.386292 346.480011,181.596634 344.251099,179.333130 
	C344.872681,177.630661 345.417664,176.402054 345.962646,175.173462 
	C345.962646,175.173462 346.458374,175.117233 346.707458,175.126328 
	C348.494812,178.325546 350.033020,181.515656 351.331116,184.940857 
z"/>
<path fill="#4D3EEE" opacity="1.000000" stroke="none" 
	d="
M172.495071,160.909515 
	C172.506561,161.052429 172.321045,161.213211 172.035248,161.229172 
	C171.934967,161.084366 172.298080,160.927399 172.495071,160.909515 
z"/>
<path fill="#4D3EEE" opacity="1.000000" stroke="none" 
	d="
M173.796844,160.060394 
	C173.902588,160.315643 173.704483,160.528107 173.200958,160.682129 
	C173.078354,160.401123 173.277496,160.199097 173.796844,160.060394 
z"/>
<path fill="#9906D1" opacity="1.000000" stroke="none" 
	d="
M238.037842,158.979782 
	C233.038773,157.396317 228.272827,155.626205 223.254623,153.297943 
	C223.032928,152.489517 223.063477,152.239212 223.094025,151.988922 
	C225.845383,152.890198 228.596725,153.791473 231.684753,154.816589 
	C234.104614,156.224686 236.187790,157.508911 238.037842,158.979782 
z"/>
<path fill="#6609E7" opacity="1.000000" stroke="none" 
	d="
M222.750702,151.836380 
	C223.063477,152.239212 223.032928,152.489517 222.953827,153.117752 
	C219.853882,153.009995 216.802444,152.524307 213.337555,151.970230 
	C212.945007,151.189606 212.965927,150.477356 212.982025,149.409286 
	C216.120575,149.930237 219.263977,150.807037 222.750702,151.836380 
z"/>
<path fill="#AA39E9" opacity="1.000000" stroke="none" 
	d="
M256.721985,170.891968 
	C256.329712,170.955246 255.855927,170.752167 255.264832,170.319458 
	C255.645172,170.268433 256.142853,170.447037 256.721985,170.891968 
z"/>
<path fill="#AA39E9" opacity="1.000000" stroke="none" 
	d="
M254.802338,169.694489 
	C254.595673,169.853119 254.375824,169.730225 254.150192,169.321716 
	C254.358170,169.168259 254.573090,169.293869 254.802338,169.694489 
z"/>
<path fill="#DE33E8" opacity="1.000000" stroke="none" 
	d="
M335.973938,168.116852 
	C337.122040,168.633041 338.270111,169.149246 339.726929,169.733185 
	C340.283569,170.034119 340.531494,170.267319 340.898804,171.131622 
	C340.661041,173.669891 340.303833,175.577057 339.946625,177.484222 
	C338.538116,177.062149 337.129578,176.640076 335.368958,175.680847 
	C335.335907,172.801407 335.654938,170.459122 335.973938,168.116852 
z"/>
<path fill="#C536EA" opacity="1.000000" stroke="none" 
	d="
M340.164307,177.685944 
	C340.303833,175.577057 340.661041,173.669891 341.029541,171.350525 
	C342.495605,172.232224 343.950348,173.526123 345.683868,174.996735 
	C345.417664,176.402054 344.872681,177.630661 344.044281,179.072784 
	C342.634552,178.820084 341.508270,178.353882 340.164307,177.685944 
z"/>
<path fill="#9906D1" opacity="1.000000" stroke="none" 
	d="
M196.276215,179.509750 
	C206.776138,174.556488 223.426422,176.886719 228.274475,183.354645 
	C220.918182,182.874908 212.999069,182.358459 204.900833,181.554382 
	C206.559433,181.033798 208.397156,180.800812 210.234894,180.567841 
	C210.212448,180.215149 210.190002,179.862442 210.167557,179.509750 
	C205.537109,179.509750 200.906662,179.509750 196.276215,179.509750 
z"/>
<path fill="#EF03DD" opacity="1.000000" stroke="none" 
	d="
M246.012604,217.906769 
	C245.868149,216.756683 245.848129,215.481781 246.365036,214.485428 
	C249.178574,209.062347 252.124405,203.707932 255.024719,198.329880 
	C255.511368,198.282394 255.998001,198.234894 256.484619,198.187408 
	C256.622009,199.703094 257.427124,201.636459 256.784302,202.664139 
	C253.524460,207.875519 249.888840,212.851852 246.012604,217.906769 
z"/>
<path fill="#560BAD" opacity="1.000000" stroke="none" 
	d="
M240.776154,224.481476 
	C241.276871,224.538208 242.034958,224.889786 242.007858,225.163681 
	C241.582764,229.458908 233.069138,236.548386 228.301727,236.663132 
	C228.785507,237.144638 229.269302,237.626160 229.753082,238.107666 
	C233.391479,233.651840 237.029861,229.196014 240.776154,224.481476 
z"/>
<path fill="#560BAD" opacity="1.000000" stroke="none" 
	d="
M196.265656,179.524933 
	C200.906662,179.509750 205.537109,179.509750 210.167557,179.509750 
	C210.190002,179.862442 210.212448,180.215149 210.234894,180.567841 
	C208.397156,180.800812 206.559433,181.033798 204.448929,181.490479 
	C200.030334,182.881241 195.884506,184.048279 191.435089,184.986053 
	C192.819168,183.404373 194.506851,182.051987 196.357635,180.546234 
	C196.604309,180.055313 196.507477,179.780548 196.230240,179.568558 
	C196.230240,179.568558 196.255096,179.540100 196.265656,179.524933 
z"/>
<path fill="#4111EA" opacity="1.000000" stroke="none" 
	d="
M196.194534,180.699585 
	C194.506851,182.051987 192.819168,183.404373 191.063904,185.135712 
	C188.255188,187.396637 185.514069,189.278625 182.772949,191.160629 
	C182.412994,190.654663 182.053040,190.148682 181.693085,189.642715 
	C186.271103,186.315903 190.849106,182.989090 195.804962,179.891754 
	C196.186737,180.314011 196.190643,180.506790 196.194534,180.699585 
z"/>
<path fill="#5209E7" opacity="1.000000" stroke="none" 
	d="
M207.549805,249.090851 
	C206.115509,249.243256 204.268387,249.318329 202.269104,249.049423 
	C203.790298,248.808136 205.463623,248.910828 207.549805,249.090851 
z"/>
<path fill="#9906D1" opacity="1.000000" stroke="none" 
	d="
M196.357635,180.546234 
	C196.190643,180.506790 196.186737,180.314011 196.185715,179.829315 
	C196.188599,179.537430 196.202209,179.592285 196.216217,179.580414 
	C196.507477,179.780548 196.604309,180.055313 196.357635,180.546234 
z"/>
<path fill="#0D0F83" opacity="1.000000" stroke="none" 
	d="
M181.188721,236.645126 
	C180.962723,236.709503 180.632217,236.495499 180.224335,235.986572 
	C180.459381,235.916702 180.771805,236.141724 181.188721,236.645126 
z"/>
<path fill="#8579E4" opacity="1.000000" stroke="none" 
	d="
M232.050323,247.721710 
	C229.419876,248.337616 227.041061,248.694138 224.237915,248.987976 
	C234.350174,245.442276 243.368576,239.525253 251.611450,231.883484 
	C247.556152,239.853561 239.990723,243.736160 232.050323,247.721710 
z"/>
<path fill="#8579E4" opacity="1.000000" stroke="none" 
	d="
M255.614105,226.949493 
	C255.174454,228.234238 254.385254,229.505005 253.276276,230.871597 
	C253.725861,229.623428 254.495224,228.279465 255.614105,226.949493 
z"/>
<path fill="#8579E4" opacity="1.000000" stroke="none" 
	d="
M256.727905,225.118927 
	C256.856415,225.563263 256.701141,226.150543 256.251526,226.857178 
	C256.119537,226.404984 256.281860,225.833420 256.727905,225.118927 
z"/>
<path fill="#8579E4" opacity="1.000000" stroke="none" 
	d="
M252.651260,230.929932 
	C252.806030,231.266327 252.649750,231.570999 252.229019,231.919388 
	C252.089783,231.608139 252.214996,231.253174 252.651260,230.929932 
z"/>
<path fill="#8579E4" opacity="1.000000" stroke="none" 
	d="
M257.723083,223.719086 
	C257.844513,223.944641 257.728394,224.369019 257.296265,224.906403 
	C257.148682,224.652252 257.317108,224.285080 257.723083,223.719086 
z"/>
<path fill="#FC35E8" opacity="1.000000" stroke="none" 
	d="
M235.628067,251.843002 
	C235.960052,253.533676 235.975983,255.301178 235.979279,257.502014 
	C231.192200,259.355225 226.417725,260.775116 221.348022,262.392883 
	C217.428314,262.762421 213.803833,262.934113 209.231766,263.150696 
	C217.966232,259.334534 225.767212,255.926239 233.793030,252.259338 
	C234.449234,251.973770 234.880630,251.946808 235.628067,251.843002 
z"/>
<path fill="#FC35E8" opacity="1.000000" stroke="none" 
	d="
M335.662170,168.053040 
	C335.654938,170.459122 335.335907,172.801407 335.027557,175.543945 
	C331.950317,175.640778 328.862396,175.337326 325.336945,175.056473 
	C321.912720,175.096588 318.926056,175.114105 315.521301,174.721863 
	C315.405426,171.223206 315.707550,168.134338 316.009674,165.045456 
	C321.344055,165.408279 326.678436,165.771103 332.425018,166.163666 
	C333.674927,166.792007 334.512665,167.390625 335.662170,168.053040 
z"/>
<path fill="#AA39E9" opacity="1.000000" stroke="none" 
	d="
M299.872864,171.801712 
	C302.018463,170.524857 304.164062,169.248016 306.658081,168.349457 
	C306.674744,172.407654 306.342987,176.087570 306.011261,179.767487 
	C304.226837,181.441895 302.442413,183.116302 300.346069,184.499390 
	C299.980408,180.072617 299.926636,175.937164 299.872864,171.801712 
z"/>
<path fill="#7F3BED" opacity="1.000000" stroke="none" 
	d="
M299.556610,171.881744 
	C299.926636,175.937164 299.980408,180.072617 300.047974,184.641693 
	C298.910309,186.657211 297.758850,188.239105 296.318390,189.980957 
	C296.182587,185.246582 296.335754,180.352219 296.198547,175.174408 
	C297.018890,173.914551 298.129639,172.938156 299.556610,171.881744 
z"/>
<path fill="#C536EA" opacity="1.000000" stroke="none" 
	d="
M306.314758,179.669983 
	C306.342987,176.087570 306.674744,172.407654 307.004272,168.275818 
	C307.473145,167.542877 307.944244,167.261871 308.705566,166.962585 
	C309.773468,166.633331 310.551056,166.322357 311.659363,166.429901 
	C311.658813,170.143402 311.327576,173.438385 310.996338,176.733368 
	C309.536987,177.679749 308.077606,178.626129 306.314758,179.669983 
z"/>
<path fill="#DE33E8" opacity="1.000000" stroke="none" 
	d="
M311.308228,176.675629 
	C311.327576,173.438385 311.658813,170.143402 311.975464,166.418335 
	C313.077087,165.669617 314.193268,165.350998 315.659546,165.038925 
	C315.707550,168.134338 315.405426,171.223206 315.071625,174.729385 
	C313.900024,175.637085 312.760071,176.127487 311.308228,176.675629 
z"/>
</svg>